<?xml version="1.0" encoding="UTF-8" standalone="no"?>
<svg
   width="720pt"
   height="432pt"
   viewBox="0 0 720 432"
   version="1.1"
   id="svg13263"
   sodipodi:docname="example_trial.svg"
   inkscape:version="1.2.2 (732a01da63, 2022-12-09)"
   inkscape:export-filename="..\png\example_trial.png"
   inkscape:export-xdpi="96"
   inkscape:export-ydpi="96"
   xmlns:inkscape="http://www.inkscape.org/namespaces/inkscape"
   xmlns:sodipodi="http://sodipodi.sourceforge.net/DTD/sodipodi-0.dtd"
   xmlns:xlink="http://www.w3.org/1999/xlink"
   xmlns="http://www.w3.org/2000/svg"
   xmlns:svg="http://www.w3.org/2000/svg"
   xmlns:rdf="http://www.w3.org/1999/02/22-rdf-syntax-ns#"
   xmlns:cc="http://creativecommons.org/ns#"
   xmlns:dc="http://purl.org/dc/elements/1.1/">
  <sodipodi:namedview
     id="namedview13265"
     pagecolor="#ffffff"
     bordercolor="#000000"
     borderopacity="0.25"
     inkscape:showpageshadow="2"
     inkscape:pageopacity="0.0"
     inkscape:pagecheckerboard="0"
     inkscape:deskcolor="#d1d1d1"
     inkscape:document-units="pt"
     showgrid="false"
     inkscape:zoom="1.3645833"
     inkscape:cx="429.0687"
     inkscape:cy="288.36641"
     inkscape:window-width="2560"
     inkscape:window-height="1351"
     inkscape:window-x="-9"
     inkscape:window-y="-9"
     inkscape:window-maximized="1"
     inkscape:current-layer="figure_1" />
  <metadata
     id="metadata12915">
    <rdf:RDF>
      <cc:Work>
        <dc:type
           rdf:resource="http://purl.org/dc/dcmitype/StillImage" />
        <dc:date>2023-07-27T22:18:36.477773</dc:date>
        <dc:format>image/svg+xml</dc:format>
        <dc:creator>
          <cc:Agent>
            <dc:title>Matplotlib v3.6.2, https://matplotlib.org/</dc:title>
          </cc:Agent>
        </dc:creator>
      </cc:Work>
    </rdf:RDF>
  </metadata>
  <defs
     id="defs12919">
    <style
       type="text/css"
       id="style12917">*{stroke-linejoin: round; stroke-linecap: butt}</style>
  </defs>
  <g
     id="figure_1">
    <g
       id="patch_1">
      <path
         d="M 0 432  L 720 432  L 720 0  L 0 0  z "
         style="fill: #ffffff"
         id="path12921" />
    </g>
    <g
       id="axes_1">
      <g
         id="patch_2">
        <path
           d="M 90 384.48  L 648 384.48  L 648 51.84  L 90 51.84  z "
           style="fill: #ffffff"
           id="path12924" />
      </g>
      <g
         id="matplotlib.axis_1">
        <g
           id="xtick_1">
          <g
             id="line2d_1">
            <defs
               id="defs12928">
              <path
                 id="m486527546e"
                 d="M 0 0  L 0 3.5  "
                 style="stroke: #000000; stroke-width: 0.8" />
            </defs>
            <g
               id="g12932">
              <use
                 xlink:href="#m486527546e"
                 x="115.363636"
                 y="384.48"
                 style="stroke: #000000; stroke-width: 0.8"
                 id="use12930" />
            </g>
          </g>
          <g
             id="text_1">
            <!-- 0 -->
            <g
               transform="translate(112.182386 399.078438) scale(0.1 -0.1)"
               id="g12940">
              <defs
                 id="defs12936">
                <path
                   id="DejaVuSans-30"
                   d="M 2034 4250  Q 1547 4250 1301 3770  Q 1056 3291 1056 2328  Q 1056 1369 1301 889  Q 1547 409 2034 409  Q 2525 409 2770 889  Q 3016 1369 3016 2328  Q 3016 3291 2770 3770  Q 2525 4250 2034 4250  z M 2034 4750  Q 2819 4750 3233 4129  Q 3647 3509 3647 2328  Q 3647 1150 3233 529  Q 2819 -91 2034 -91  Q 1250 -91 836 529  Q 422 1150 422 2328  Q 422 3509 836 4129  Q 1250 4750 2034 4750  z "
                   transform="scale(0.015625)" />
              </defs>
              <use
                 xlink:href="#DejaVuSans-30"
                 id="use12938" />
            </g>
          </g>
        </g>
        <g
           id="xtick_2">
          <g
             id="line2d_2">
            <g
               id="g12946">
              <use
                 xlink:href="#m486527546e"
                 x="217.22563"
                 y="384.48"
                 style="stroke: #000000; stroke-width: 0.8"
                 id="use12944" />
            </g>
          </g>
          <g
             id="text_2">
            <!-- 0.5 -->
            <g
               transform="translate(209.274067 399.078438) scale(0.1 -0.1)"
               id="g12959">
              <defs
                 id="defs12951">
                <path
                   id="DejaVuSans-2e"
                   d="M 684 794  L 1344 794  L 1344 0  L 684 0  L 684 794  z "
                   transform="scale(0.015625)" />
                <path
                   id="DejaVuSans-35"
                   d="M 691 4666  L 3169 4666  L 3169 4134  L 1269 4134  L 1269 2991  Q 1406 3038 1543 3061  Q 1681 3084 1819 3084  Q 2600 3084 3056 2656  Q 3513 2228 3513 1497  Q 3513 744 3044 326  Q 2575 -91 1722 -91  Q 1428 -91 1123 -41  Q 819 9 494 109  L 494 744  Q 775 591 1075 516  Q 1375 441 1709 441  Q 2250 441 2565 725  Q 2881 1009 2881 1497  Q 2881 1984 2565 2268  Q 2250 2553 1709 2553  Q 1456 2553 1204 2497  Q 953 2441 691 2322  L 691 4666  z "
                   transform="scale(0.015625)" />
              </defs>
              <use
                 xlink:href="#DejaVuSans-30"
                 id="use12953" />
              <use
                 xlink:href="#DejaVuSans-2e"
                 x="63.623047"
                 id="use12955" />
              <use
                 xlink:href="#DejaVuSans-35"
                 x="95.410156"
                 id="use12957" />
            </g>
          </g>
        </g>
        <g
           id="xtick_3">
          <g
             id="line2d_3">
            <g
               id="g12965">
              <use
                 xlink:href="#m486527546e"
                 x="319.087623"
                 y="384.48"
                 style="stroke: #000000; stroke-width: 0.8"
                 id="use12963" />
            </g>
          </g>
          <g
             id="text_3">
            <!-- 1 -->
            <g
               transform="translate(315.906373 399.078438) scale(0.1 -0.1)"
               id="g12973">
              <defs
                 id="defs12969">
                <path
                   id="DejaVuSans-31"
                   d="M 794 531  L 1825 531  L 1825 4091  L 703 3866  L 703 4441  L 1819 4666  L 2450 4666  L 2450 531  L 3481 531  L 3481 0  L 794 0  L 794 531  z "
                   transform="scale(0.015625)" />
              </defs>
              <use
                 xlink:href="#DejaVuSans-31"
                 id="use12971" />
            </g>
          </g>
        </g>
        <g
           id="xtick_4">
          <g
             id="line2d_4">
            <g
               id="g12979">
              <use
                 xlink:href="#m486527546e"
                 x="420.949617"
                 y="384.48"
                 style="stroke: #000000; stroke-width: 0.8"
                 id="use12977" />
            </g>
          </g>
          <g
             id="text_4">
            <!-- 1.5 -->
            <g
               transform="translate(412.998054 399.078438) scale(0.1 -0.1)"
               id="g12988">
              <use
                 xlink:href="#DejaVuSans-31"
                 id="use12982" />
              <use
                 xlink:href="#DejaVuSans-2e"
                 x="63.623047"
                 id="use12984" />
              <use
                 xlink:href="#DejaVuSans-35"
                 x="95.410156"
                 id="use12986" />
            </g>
          </g>
        </g>
        <g
           id="xtick_5">
          <g
             id="line2d_5">
            <g
               id="g12994">
              <use
                 xlink:href="#m486527546e"
                 x="522.81161"
                 y="384.48"
                 style="stroke: #000000; stroke-width: 0.8"
                 id="use12992" />
            </g>
          </g>
          <g
             id="text_5">
            <!-- 2 -->
            <g
               transform="translate(519.63036 399.078438) scale(0.1 -0.1)"
               id="g13002">
              <defs
                 id="defs12998">
                <path
                   id="DejaVuSans-32"
                   d="M 1228 531  L 3431 531  L 3431 0  L 469 0  L 469 531  Q 828 903 1448 1529  Q 2069 2156 2228 2338  Q 2531 2678 2651 2914  Q 2772 3150 2772 3378  Q 2772 3750 2511 3984  Q 2250 4219 1831 4219  Q 1534 4219 1204 4116  Q 875 4013 500 3803  L 500 4441  Q 881 4594 1212 4672  Q 1544 4750 1819 4750  Q 2544 4750 2975 4387  Q 3406 4025 3406 3419  Q 3406 3131 3298 2873  Q 3191 2616 2906 2266  Q 2828 2175 2409 1742  Q 1991 1309 1228 531  z "
                   transform="scale(0.015625)" />
              </defs>
              <use
                 xlink:href="#DejaVuSans-32"
                 id="use13000" />
            </g>
          </g>
        </g>
        <g
           id="xtick_6">
          <g
             id="line2d_6">
            <g
               id="g13008">
              <use
                 xlink:href="#m486527546e"
                 x="624.673604"
                 y="384.48"
                 style="stroke: #000000; stroke-width: 0.8"
                 id="use13006" />
            </g>
          </g>
          <g
             id="text_6">
            <!-- 2.5 -->
            <g
               transform="translate(616.722041 399.078438) scale(0.1 -0.1)"
               id="g13017">
              <use
                 xlink:href="#DejaVuSans-32"
                 id="use13011" />
              <use
                 xlink:href="#DejaVuSans-2e"
                 x="63.623047"
                 id="use13013" />
              <use
                 xlink:href="#DejaVuSans-35"
                 x="95.410156"
                 id="use13015" />
            </g>
          </g>
        </g>
        <g
           id="text_7">
          <!-- Time (sec) -->
          <g
             transform="translate(327.1525 417.315625) scale(0.16 -0.16)"
             id="g13052">
            <defs
               id="defs13030">
              <path
                 id="DejaVuSans-54"
                 d="M -19 4666  L 3928 4666  L 3928 4134  L 2272 4134  L 2272 0  L 1638 0  L 1638 4134  L -19 4134  L -19 4666  z "
                 transform="scale(0.015625)" />
              <path
                 id="DejaVuSans-69"
                 d="M 603 3500  L 1178 3500  L 1178 0  L 603 0  L 603 3500  z M 603 4863  L 1178 4863  L 1178 4134  L 603 4134  L 603 4863  z "
                 transform="scale(0.015625)" />
              <path
                 id="DejaVuSans-6d"
                 d="M 3328 2828  Q 3544 3216 3844 3400  Q 4144 3584 4550 3584  Q 5097 3584 5394 3201  Q 5691 2819 5691 2113  L 5691 0  L 5113 0  L 5113 2094  Q 5113 2597 4934 2840  Q 4756 3084 4391 3084  Q 3944 3084 3684 2787  Q 3425 2491 3425 1978  L 3425 0  L 2847 0  L 2847 2094  Q 2847 2600 2669 2842  Q 2491 3084 2119 3084  Q 1678 3084 1418 2786  Q 1159 2488 1159 1978  L 1159 0  L 581 0  L 581 3500  L 1159 3500  L 1159 2956  Q 1356 3278 1631 3431  Q 1906 3584 2284 3584  Q 2666 3584 2933 3390  Q 3200 3197 3328 2828  z "
                 transform="scale(0.015625)" />
              <path
                 id="DejaVuSans-65"
                 d="M 3597 1894  L 3597 1613  L 953 1613  Q 991 1019 1311 708  Q 1631 397 2203 397  Q 2534 397 2845 478  Q 3156 559 3463 722  L 3463 178  Q 3153 47 2828 -22  Q 2503 -91 2169 -91  Q 1331 -91 842 396  Q 353 884 353 1716  Q 353 2575 817 3079  Q 1281 3584 2069 3584  Q 2775 3584 3186 3129  Q 3597 2675 3597 1894  z M 3022 2063  Q 3016 2534 2758 2815  Q 2500 3097 2075 3097  Q 1594 3097 1305 2825  Q 1016 2553 972 2059  L 3022 2063  z "
                 transform="scale(0.015625)" />
              <path
                 id="DejaVuSans-20"
                 transform="scale(0.015625)" />
              <path
                 id="DejaVuSans-28"
                 d="M 1984 4856  Q 1566 4138 1362 3434  Q 1159 2731 1159 2009  Q 1159 1288 1364 580  Q 1569 -128 1984 -844  L 1484 -844  Q 1016 -109 783 600  Q 550 1309 550 2009  Q 550 2706 781 3412  Q 1013 4119 1484 4856  L 1984 4856  z "
                 transform="scale(0.015625)" />
              <path
                 id="DejaVuSans-73"
                 d="M 2834 3397  L 2834 2853  Q 2591 2978 2328 3040  Q 2066 3103 1784 3103  Q 1356 3103 1142 2972  Q 928 2841 928 2578  Q 928 2378 1081 2264  Q 1234 2150 1697 2047  L 1894 2003  Q 2506 1872 2764 1633  Q 3022 1394 3022 966  Q 3022 478 2636 193  Q 2250 -91 1575 -91  Q 1294 -91 989 -36  Q 684 19 347 128  L 347 722  Q 666 556 975 473  Q 1284 391 1588 391  Q 1994 391 2212 530  Q 2431 669 2431 922  Q 2431 1156 2273 1281  Q 2116 1406 1581 1522  L 1381 1569  Q 847 1681 609 1914  Q 372 2147 372 2553  Q 372 3047 722 3315  Q 1072 3584 1716 3584  Q 2034 3584 2315 3537  Q 2597 3491 2834 3397  z "
                 transform="scale(0.015625)" />
              <path
                 id="DejaVuSans-63"
                 d="M 3122 3366  L 3122 2828  Q 2878 2963 2633 3030  Q 2388 3097 2138 3097  Q 1578 3097 1268 2742  Q 959 2388 959 1747  Q 959 1106 1268 751  Q 1578 397 2138 397  Q 2388 397 2633 464  Q 2878 531 3122 666  L 3122 134  Q 2881 22 2623 -34  Q 2366 -91 2075 -91  Q 1284 -91 818 406  Q 353 903 353 1747  Q 353 2603 823 3093  Q 1294 3584 2113 3584  Q 2378 3584 2631 3529  Q 2884 3475 3122 3366  z "
                 transform="scale(0.015625)" />
              <path
                 id="DejaVuSans-29"
                 d="M 513 4856  L 1013 4856  Q 1481 4119 1714 3412  Q 1947 2706 1947 2009  Q 1947 1309 1714 600  Q 1481 -109 1013 -844  L 513 -844  Q 928 -128 1133 580  Q 1338 1288 1338 2009  Q 1338 2731 1133 3434  Q 928 4138 513 4856  z "
                 transform="scale(0.015625)" />
            </defs>
            <use
               xlink:href="#DejaVuSans-54"
               id="use13032" />
            <use
               xlink:href="#DejaVuSans-69"
               x="57.958984"
               id="use13034" />
            <use
               xlink:href="#DejaVuSans-6d"
               x="85.742188"
               id="use13036" />
            <use
               xlink:href="#DejaVuSans-65"
               x="183.154297"
               id="use13038" />
            <use
               xlink:href="#DejaVuSans-20"
               x="244.677734"
               id="use13040" />
            <use
               xlink:href="#DejaVuSans-28"
               x="276.464844"
               id="use13042" />
            <use
               xlink:href="#DejaVuSans-73"
               x="315.478516"
               id="use13044" />
            <use
               xlink:href="#DejaVuSans-65"
               x="367.578125"
               id="use13046" />
            <use
               xlink:href="#DejaVuSans-63"
               x="429.101562"
               id="use13048" />
            <use
               xlink:href="#DejaVuSans-29"
               x="484.082031"
               id="use13050" />
          </g>
        </g>
      </g>
      <g
         id="matplotlib.axis_2">
        <g
           id="ytick_1">
          <g
             id="line2d_7">
            <defs
               id="defs13057">
              <path
                 id="m258fd99b35"
                 d="M 0 0  L -3.5 0  "
                 style="stroke: #000000; stroke-width: 0.8" />
            </defs>
            <g
               id="g13061">
              <use
                 xlink:href="#m258fd99b35"
                 x="90"
                 y="360.96"
                 style="stroke: #000000; stroke-width: 0.8"
                 id="use13059" />
            </g>
          </g>
          <g
             id="text_8">
            <!-- −2.5 -->
            <g
               transform="translate(58.717187 364.759219) scale(0.1 -0.1)"
               id="g13075">
              <defs
                 id="defs13065">
                <path
                   id="DejaVuSans-2212"
                   d="M 678 2272  L 4684 2272  L 4684 1741  L 678 1741  L 678 2272  z "
                   transform="scale(0.015625)" />
              </defs>
              <use
                 xlink:href="#DejaVuSans-2212"
                 id="use13067" />
              <use
                 xlink:href="#DejaVuSans-32"
                 x="83.789062"
                 id="use13069" />
              <use
                 xlink:href="#DejaVuSans-2e"
                 x="147.412109"
                 id="use13071" />
              <use
                 xlink:href="#DejaVuSans-35"
                 x="179.199219"
                 id="use13073" />
            </g>
          </g>
        </g>
        <g
           id="ytick_2">
          <g
             id="line2d_8">
            <g
               id="g13081">
              <use
                 xlink:href="#m258fd99b35"
                 x="90"
                 y="318.96"
                 style="stroke: #000000; stroke-width: 0.8"
                 id="use13079" />
            </g>
          </g>
          <g
             id="text_9">
            <!-- 0.0 -->
            <g
               transform="translate(67.096875 322.759219) scale(0.1 -0.1)"
               id="g13090">
              <use
                 xlink:href="#DejaVuSans-30"
                 id="use13084" />
              <use
                 xlink:href="#DejaVuSans-2e"
                 x="63.623047"
                 id="use13086" />
              <use
                 xlink:href="#DejaVuSans-30"
                 x="95.410156"
                 id="use13088" />
            </g>
          </g>
        </g>
        <g
           id="ytick_3">
          <g
             id="line2d_9">
            <g
               id="g13096">
              <use
                 xlink:href="#m258fd99b35"
                 x="90"
                 y="276.96"
                 style="stroke: #000000; stroke-width: 0.8"
                 id="use13094" />
            </g>
          </g>
          <g
             id="text_10">
            <!-- 2.5 -->
            <g
               transform="translate(67.096875 280.759219) scale(0.1 -0.1)"
               id="g13105">
              <use
                 xlink:href="#DejaVuSans-32"
                 id="use13099" />
              <use
                 xlink:href="#DejaVuSans-2e"
                 x="63.623047"
                 id="use13101" />
              <use
                 xlink:href="#DejaVuSans-35"
                 x="95.410156"
                 id="use13103" />
            </g>
          </g>
        </g>
        <g
           id="ytick_4">
          <g
             id="line2d_10">
            <g
               id="g13111">
              <use
                 xlink:href="#m258fd99b35"
                 x="90"
                 y="234.96"
                 style="stroke: #000000; stroke-width: 0.8"
                 id="use13109" />
            </g>
          </g>
          <g
             id="text_11">
            <!-- 5.0 -->
            <g
               transform="translate(67.096875 238.759219) scale(0.1 -0.1)"
               id="g13120">
              <use
                 xlink:href="#DejaVuSans-35"
                 id="use13114" />
              <use
                 xlink:href="#DejaVuSans-2e"
                 x="63.623047"
                 id="use13116" />
              <use
                 xlink:href="#DejaVuSans-30"
                 x="95.410156"
                 id="use13118" />
            </g>
          </g>
        </g>
        <g
           id="ytick_5">
          <g
             id="line2d_11">
            <g
               id="g13126">
              <use
                 xlink:href="#m258fd99b35"
                 x="90"
                 y="192.96"
                 style="stroke: #000000; stroke-width: 0.8"
                 id="use13124" />
            </g>
          </g>
          <g
             id="text_12">
            <!-- 7.5 -->
            <g
               transform="translate(67.096875 196.759219) scale(0.1 -0.1)"
               id="g13138">
              <defs
                 id="defs13130">
                <path
                   id="DejaVuSans-37"
                   d="M 525 4666  L 3525 4666  L 3525 4397  L 1831 0  L 1172 0  L 2766 4134  L 525 4134  L 525 4666  z "
                   transform="scale(0.015625)" />
              </defs>
              <use
                 xlink:href="#DejaVuSans-37"
                 id="use13132" />
              <use
                 xlink:href="#DejaVuSans-2e"
                 x="63.623047"
                 id="use13134" />
              <use
                 xlink:href="#DejaVuSans-35"
                 x="95.410156"
                 id="use13136" />
            </g>
          </g>
        </g>
        <g
           id="ytick_6">
          <g
             id="line2d_12">
            <g
               id="g13144">
              <use
                 xlink:href="#m258fd99b35"
                 x="90"
                 y="150.96"
                 style="stroke: #000000; stroke-width: 0.8"
                 id="use13142" />
            </g>
          </g>
          <g
             id="text_13">
            <!-- 10.0 -->
            <g
               transform="translate(60.734375 154.759219) scale(0.1 -0.1)"
               id="g13155">
              <use
                 xlink:href="#DejaVuSans-31"
                 id="use13147" />
              <use
                 xlink:href="#DejaVuSans-30"
                 x="63.623047"
                 id="use13149" />
              <use
                 xlink:href="#DejaVuSans-2e"
                 x="127.246094"
                 id="use13151" />
              <use
                 xlink:href="#DejaVuSans-30"
                 x="159.033203"
                 id="use13153" />
            </g>
          </g>
        </g>
        <g
           id="ytick_7">
          <g
             id="line2d_13">
            <g
               id="g13161">
              <use
                 xlink:href="#m258fd99b35"
                 x="90"
                 y="108.96"
                 style="stroke: #000000; stroke-width: 0.8"
                 id="use13159" />
            </g>
          </g>
          <g
             id="text_14">
            <!-- 12.5 -->
            <g
               transform="translate(60.734375 112.759219) scale(0.1 -0.1)"
               id="g13172">
              <use
                 xlink:href="#DejaVuSans-31"
                 id="use13164" />
              <use
                 xlink:href="#DejaVuSans-32"
                 x="63.623047"
                 id="use13166" />
              <use
                 xlink:href="#DejaVuSans-2e"
                 x="127.246094"
                 id="use13168" />
              <use
                 xlink:href="#DejaVuSans-35"
                 x="159.033203"
                 id="use13170" />
            </g>
          </g>
        </g>
        <g
           id="ytick_8">
          <g
             id="line2d_14">
            <g
               id="g13178">
              <use
                 xlink:href="#m258fd99b35"
                 x="90"
                 y="66.96"
                 style="stroke: #000000; stroke-width: 0.8"
                 id="use13176" />
            </g>
          </g>
          <g
             id="text_15">
            <!-- 15.0 -->
            <g
               transform="translate(60.734375 70.759219) scale(0.1 -0.1)"
               id="g13189">
              <use
                 xlink:href="#DejaVuSans-31"
                 id="use13181" />
              <use
                 xlink:href="#DejaVuSans-35"
                 x="63.623047"
                 id="use13183" />
              <use
                 xlink:href="#DejaVuSans-2e"
                 x="127.246094"
                 id="use13185" />
              <use
                 xlink:href="#DejaVuSans-30"
                 x="159.033203"
                 id="use13187" />
            </g>
          </g>
        </g>
        <g
           id="text_16">
          <!-- Wheel speed (cm/s) -->
          <g
             transform="translate(51.389687 297.75875) rotate(-90) scale(0.16 -0.16)"
             id="g13237">
            <defs
               id="defs13199">
              <path
                 id="DejaVuSans-57"
                 d="M 213 4666  L 850 4666  L 1831 722  L 2809 4666  L 3519 4666  L 4500 722  L 5478 4666  L 6119 4666  L 4947 0  L 4153 0  L 3169 4050  L 2175 0  L 1381 0  L 213 4666  z "
                 transform="scale(0.015625)" />
              <path
                 id="DejaVuSans-68"
                 d="M 3513 2113  L 3513 0  L 2938 0  L 2938 2094  Q 2938 2591 2744 2837  Q 2550 3084 2163 3084  Q 1697 3084 1428 2787  Q 1159 2491 1159 1978  L 1159 0  L 581 0  L 581 4863  L 1159 4863  L 1159 2956  Q 1366 3272 1645 3428  Q 1925 3584 2291 3584  Q 2894 3584 3203 3211  Q 3513 2838 3513 2113  z "
                 transform="scale(0.015625)" />
              <path
                 id="DejaVuSans-6c"
                 d="M 603 4863  L 1178 4863  L 1178 0  L 603 0  L 603 4863  z "
                 transform="scale(0.015625)" />
              <path
                 id="DejaVuSans-70"
                 d="M 1159 525  L 1159 -1331  L 581 -1331  L 581 3500  L 1159 3500  L 1159 2969  Q 1341 3281 1617 3432  Q 1894 3584 2278 3584  Q 2916 3584 3314 3078  Q 3713 2572 3713 1747  Q 3713 922 3314 415  Q 2916 -91 2278 -91  Q 1894 -91 1617 61  Q 1341 213 1159 525  z M 3116 1747  Q 3116 2381 2855 2742  Q 2594 3103 2138 3103  Q 1681 3103 1420 2742  Q 1159 2381 1159 1747  Q 1159 1113 1420 752  Q 1681 391 2138 391  Q 2594 391 2855 752  Q 3116 1113 3116 1747  z "
                 transform="scale(0.015625)" />
              <path
                 id="DejaVuSans-64"
                 d="M 2906 2969  L 2906 4863  L 3481 4863  L 3481 0  L 2906 0  L 2906 525  Q 2725 213 2448 61  Q 2172 -91 1784 -91  Q 1150 -91 751 415  Q 353 922 353 1747  Q 353 2572 751 3078  Q 1150 3584 1784 3584  Q 2172 3584 2448 3432  Q 2725 3281 2906 2969  z M 947 1747  Q 947 1113 1208 752  Q 1469 391 1925 391  Q 2381 391 2643 752  Q 2906 1113 2906 1747  Q 2906 2381 2643 2742  Q 2381 3103 1925 3103  Q 1469 3103 1208 2742  Q 947 2381 947 1747  z "
                 transform="scale(0.015625)" />
              <path
                 id="DejaVuSans-2f"
                 d="M 1625 4666  L 2156 4666  L 531 -594  L 0 -594  L 1625 4666  z "
                 transform="scale(0.015625)" />
            </defs>
            <use
               xlink:href="#DejaVuSans-57"
               id="use13201" />
            <use
               xlink:href="#DejaVuSans-68"
               x="98.876953"
               id="use13203" />
            <use
               xlink:href="#DejaVuSans-65"
               x="162.255859"
               id="use13205" />
            <use
               xlink:href="#DejaVuSans-65"
               x="223.779297"
               id="use13207" />
            <use
               xlink:href="#DejaVuSans-6c"
               x="285.302734"
               id="use13209" />
            <use
               xlink:href="#DejaVuSans-20"
               x="313.085938"
               id="use13211" />
            <use
               xlink:href="#DejaVuSans-73"
               x="344.873047"
               id="use13213" />
            <use
               xlink:href="#DejaVuSans-70"
               x="396.972656"
               id="use13215" />
            <use
               xlink:href="#DejaVuSans-65"
               x="460.449219"
               id="use13217" />
            <use
               xlink:href="#DejaVuSans-65"
               x="521.972656"
               id="use13219" />
            <use
               xlink:href="#DejaVuSans-64"
               x="583.496094"
               id="use13221" />
            <use
               xlink:href="#DejaVuSans-20"
               x="646.972656"
               id="use13223" />
            <use
               xlink:href="#DejaVuSans-28"
               x="678.759766"
               id="use13225" />
            <use
               xlink:href="#DejaVuSans-63"
               x="717.773438"
               id="use13227" />
            <use
               xlink:href="#DejaVuSans-6d"
               x="772.753906"
               id="use13229" />
            <use
               xlink:href="#DejaVuSans-2f"
               x="870.166016"
               id="use13231" />
            <use
               xlink:href="#DejaVuSans-73"
               x="903.857422"
               id="use13233" />
            <use
               xlink:href="#DejaVuSans-29"
               x="955.957031"
               id="use13235" />
          </g>
        </g>
      </g>
      <g
         id="line2d_15"
         style="fill:none;fill-opacity:1;stroke:#545454;stroke-opacity:1;stroke-width:2.5;stroke-dasharray:none">
        <path
           d="M 115.363636 318.96  L 117.400876 302.16  L 119.438116 318.96  L 123.512596 318.96  L 125.549836 335.76  L 127.587076 318.96  L 129.624315 318.96  L 131.661555 335.76  L 133.698795 318.96  L 176.480832 318.96  L 178.518072 302.16  L 180.555312 318.96  L 241.672508 318.96  L 245.746988 285.36  L 247.784228 251.76  L 249.821468 201.36  L 253.895947 134.16  L 255.933187 117.36  L 257.970427 83.76  L 260.007667 83.76  L 262.044907 66.96  L 264.082147 66.96  L 266.119387 83.76  L 268.156627 66.96  L 270.193866 83.76  L 272.231106 66.96  L 276.305586 100.56  L 282.417306 100.56  L 284.454545 117.36  L 286.491785 117.36  L 288.529025 134.16  L 290.566265 100.56  L 292.603505 117.36  L 294.640745 117.36  L 296.677985 100.56  L 298.715225 134.16  L 300.752464 117.36  L 302.789704 150.96  L 304.826944 150.96  L 306.864184 167.76  L 308.901424 167.76  L 312.975904 134.16  L 315.013143 150.96  L 317.050383 134.16  L 321.124863 167.76  L 323.162103 167.76  L 327.236583 201.36  L 329.273823 234.96  L 331.311062 285.36  L 333.348302 302.16  L 335.385542 352.56  L 341.497262 352.56  L 343.534502 335.76  L 345.571742 335.76  L 351.683461 234.96  L 353.720701 218.16  L 355.757941 167.76  L 357.795181 150.96  L 359.832421 117.36  L 361.86966 117.36  L 363.9069 100.56  L 365.94414 134.16  L 367.98138 134.16  L 370.01862 150.96  L 372.05586 184.56  L 374.0931 201.36  L 378.167579 268.56  L 380.204819 285.36  L 382.242059 318.96  L 386.316539 318.96  L 388.353779 352.56  L 390.391019 335.76  L 394.465498 335.76  L 396.502738 318.96  L 400.577218 352.56  L 402.614458 335.76  L 404.651698 352.56  L 406.688938 335.76  L 408.726177 335.76  L 410.763417 318.96  L 412.800657 335.76  L 414.837897 318.96  L 416.875137 318.96  L 418.912377 302.16  L 420.949617 318.96  L 431.135816 318.96  L 433.173056 302.16  L 435.210296 318.96  L 437.247536 302.16  L 439.284775 318.96  L 441.322015 302.16  L 443.359255 318.96  L 455.582694 318.96  L 457.619934 335.76  L 459.657174 318.96  L 465.768894 318.96  L 467.806134 335.76  L 473.917853 335.76  L 475.955093 318.96  L 477.992333 335.76  L 480.029573 318.96  L 494.290252 318.96  L 496.327492 335.76  L 498.364732 318.96  L 500.401972 318.96  L 502.439211 335.76  L 504.476451 318.96  L 506.513691 318.96  L 508.550931 335.76  L 510.588171 318.96  L 526.88609 318.96  L 528.92333 335.76  L 530.96057 318.96  L 532.997809 318.96  L 535.035049 335.76  L 537.072289 318.96  L 559.481928 318.96  L 561.519168 335.76  L 563.556407 318.96  L 569.668127 318.96  L 571.705367 335.76  L 573.742607 318.96  L 575.779847 318.96  L 577.817087 335.76  L 579.854326 318.96  L 581.891566 335.76  L 583.928806 318.96  L 594.115005 318.96  L 596.152245 335.76  L 598.189485 318.96  L 600.226725 335.76  L 602.263965 335.76  L 606.338445 369.36  L 612.450164 369.36  L 614.487404 352.56  L 616.524644 369.36  L 622.636364 369.36  L 622.636364 369.36  "
           clip-path="url(#p27b85ef8c2)"
           style="fill:none;stroke:#545454;stroke-width:2.5;stroke-linecap:square;fill-opacity:1;stroke-opacity:1;stroke-dasharray:none"
           id="path13241" />
      </g>
      <g
         id="patch_3"
         style="stroke-width:1.5;stroke-dasharray:none">
        <path
           d="M 90 384.48  L 90 51.84  "
           style="fill:none;stroke:#000000;stroke-width:1.5;stroke-linejoin:miter;stroke-linecap:square;stroke-dasharray:none"
           id="path13244" />
      </g>
      <g
         id="patch_4"
         style="stroke-width:1.5;stroke-dasharray:none">
        <path
           d="M 648 384.48  L 648 51.84  "
           style="fill:none;stroke:#000000;stroke-width:1.5;stroke-linejoin:miter;stroke-linecap:square;stroke-dasharray:none"
           id="path13247" />
      </g>
      <g
         id="patch_5"
         style="stroke-width:1.5;stroke-dasharray:none">
        <path
           d="M 90 384.48  L 648 384.48  "
           style="fill:none;stroke:#000000;stroke-width:1.5;stroke-linejoin:miter;stroke-linecap:square;stroke-dasharray:none"
           id="path13250" />
      </g>
      <g
         id="patch_6"
         style="stroke-width:1.5;stroke-dasharray:none">
        <path
           d="M 90 51.84  L 648 51.84  "
           style="fill:none;stroke:#000000;stroke-width:1.5;stroke-linejoin:miter;stroke-linecap:square;stroke-dasharray:none"
           id="path13253" />
      </g>
      <rect
         style="fill:#d2d21b;fill-opacity:0.398148;stroke:none;stroke-width:3.17513;stroke-dasharray:none;stroke-opacity:1"
         id="rect14273"
         width="124.76336"
         height="331.96948"
         x="91.786209"
         y="52.763355" />
      <rect
         style="fill:#d2d21b;fill-opacity:0.398148;stroke:none;stroke-width:4.28276;stroke-dasharray:none;stroke-opacity:1"
         id="rect17293"
         width="226.99237"
         height="331.96948"
         x="420.28619"
         y="52.763355" />
    </g>
  </g>
  <defs
     id="defs13261">
    <clipPath
       id="p27b85ef8c2">
      <rect
         x="90"
         y="51.84"
         width="558"
         height="332.64"
         id="rect13258" />
    </clipPath>
  </defs>
</svg>
