<?xml version="1.0" encoding="utf-8" standalone="no"?>
<!DOCTYPE svg PUBLIC "-//W3C//DTD SVG 1.1//EN"
  "http://www.w3.org/Graphics/SVG/1.1/DTD/svg11.dtd">
<!-- Created with matplotlib (https://matplotlib.org/) -->
<svg height="360pt" version="1.1" viewBox="0 0 504 360" width="504pt" xmlns="http://www.w3.org/2000/svg" xmlns:xlink="http://www.w3.org/1999/xlink">
 <defs>
  <style type="text/css">
*{stroke-linecap:butt;stroke-linejoin:round;}
  </style>
 </defs>
 <g id="figure_1">
  <g id="patch_1">
   <path d="M 0 360 
L 504 360 
L 504 0 
L 0 0 
z
" style="fill:#ffffff;"/>
  </g>
  <g id="axes_1">
   <g id="patch_2">
    <path d="M 51.75 315.52 
L 452.25 315.52 
L 452.25 27.96 
L 51.75 27.96 
z
" style="fill:#ffffff;"/>
   </g>
   <g id="matplotlib.axis_1">
    <g id="xtick_1">
     <g id="line2d_1">
      <defs>
       <path d="M 0 0 
L 0 3.5 
" id="mdee6feb210" style="stroke:#000000;stroke-width:0.8;"/>
      </defs>
      <g>
       <use style="stroke:#000000;stroke-width:0.8;" x="64.677866" xlink:href="#mdee6feb210" y="315.52"/>
      </g>
     </g>
     <g id="text_1">
      <!-- 0 -->
      <defs>
       <path d="M 31.78125 66.40625 
Q 24.171875 66.40625 20.328125 58.90625 
Q 16.5 51.421875 16.5 36.375 
Q 16.5 21.390625 20.328125 13.890625 
Q 24.171875 6.390625 31.78125 6.390625 
Q 39.453125 6.390625 43.28125 13.890625 
Q 47.125 21.390625 47.125 36.375 
Q 47.125 51.421875 43.28125 58.90625 
Q 39.453125 66.40625 31.78125 66.40625 
z
M 31.78125 74.21875 
Q 44.046875 74.21875 50.515625 64.515625 
Q 56.984375 54.828125 56.984375 36.375 
Q 56.984375 17.96875 50.515625 8.265625 
Q 44.046875 -1.421875 31.78125 -1.421875 
Q 19.53125 -1.421875 13.0625 8.265625 
Q 6.59375 17.96875 6.59375 36.375 
Q 6.59375 54.828125 13.0625 64.515625 
Q 19.53125 74.21875 31.78125 74.21875 
z
" id="DejaVuSans-48"/>
      </defs>
      <g transform="translate(61.178491 330.878281)scale(0.11 -0.11)">
       <use xlink:href="#DejaVuSans-48"/>
      </g>
     </g>
    </g>
    <g id="xtick_2">
     <g id="line2d_2">
      <g>
       <use style="stroke:#000000;stroke-width:0.8;" x="117.444664" xlink:href="#mdee6feb210" y="315.52"/>
      </g>
     </g>
     <g id="text_2">
      <!-- 10 -->
      <defs>
       <path d="M 12.40625 8.296875 
L 28.515625 8.296875 
L 28.515625 63.921875 
L 10.984375 60.40625 
L 10.984375 69.390625 
L 28.421875 72.90625 
L 38.28125 72.90625 
L 38.28125 8.296875 
L 54.390625 8.296875 
L 54.390625 0 
L 12.40625 0 
z
" id="DejaVuSans-49"/>
      </defs>
      <g transform="translate(110.445914 330.878281)scale(0.11 -0.11)">
       <use xlink:href="#DejaVuSans-49"/>
       <use x="63.623047" xlink:href="#DejaVuSans-48"/>
      </g>
     </g>
    </g>
    <g id="xtick_3">
     <g id="line2d_3">
      <g>
       <use style="stroke:#000000;stroke-width:0.8;" x="170.211462" xlink:href="#mdee6feb210" y="315.52"/>
      </g>
     </g>
     <g id="text_3">
      <!-- 20 -->
      <defs>
       <path d="M 19.1875 8.296875 
L 53.609375 8.296875 
L 53.609375 0 
L 7.328125 0 
L 7.328125 8.296875 
Q 12.9375 14.109375 22.625 23.890625 
Q 32.328125 33.6875 34.8125 36.53125 
Q 39.546875 41.84375 41.421875 45.53125 
Q 43.3125 49.21875 43.3125 52.78125 
Q 43.3125 58.59375 39.234375 62.25 
Q 35.15625 65.921875 28.609375 65.921875 
Q 23.96875 65.921875 18.8125 64.3125 
Q 13.671875 62.703125 7.8125 59.421875 
L 7.8125 69.390625 
Q 13.765625 71.78125 18.9375 73 
Q 24.125 74.21875 28.421875 74.21875 
Q 39.75 74.21875 46.484375 68.546875 
Q 53.21875 62.890625 53.21875 53.421875 
Q 53.21875 48.921875 51.53125 44.890625 
Q 49.859375 40.875 45.40625 35.40625 
Q 44.1875 33.984375 37.640625 27.21875 
Q 31.109375 20.453125 19.1875 8.296875 
z
" id="DejaVuSans-50"/>
      </defs>
      <g transform="translate(163.212712 330.878281)scale(0.11 -0.11)">
       <use xlink:href="#DejaVuSans-50"/>
       <use x="63.623047" xlink:href="#DejaVuSans-48"/>
      </g>
     </g>
    </g>
    <g id="xtick_4">
     <g id="line2d_4">
      <g>
       <use style="stroke:#000000;stroke-width:0.8;" x="222.978261" xlink:href="#mdee6feb210" y="315.52"/>
      </g>
     </g>
     <g id="text_4">
      <!-- 30 -->
      <defs>
       <path d="M 40.578125 39.3125 
Q 47.65625 37.796875 51.625 33 
Q 55.609375 28.21875 55.609375 21.1875 
Q 55.609375 10.40625 48.1875 4.484375 
Q 40.765625 -1.421875 27.09375 -1.421875 
Q 22.515625 -1.421875 17.65625 -0.515625 
Q 12.796875 0.390625 7.625 2.203125 
L 7.625 11.71875 
Q 11.71875 9.328125 16.59375 8.109375 
Q 21.484375 6.890625 26.8125 6.890625 
Q 36.078125 6.890625 40.9375 10.546875 
Q 45.796875 14.203125 45.796875 21.1875 
Q 45.796875 27.640625 41.28125 31.265625 
Q 36.765625 34.90625 28.71875 34.90625 
L 20.21875 34.90625 
L 20.21875 43.015625 
L 29.109375 43.015625 
Q 36.375 43.015625 40.234375 45.921875 
Q 44.09375 48.828125 44.09375 54.296875 
Q 44.09375 59.90625 40.109375 62.90625 
Q 36.140625 65.921875 28.71875 65.921875 
Q 24.65625 65.921875 20.015625 65.03125 
Q 15.375 64.15625 9.8125 62.3125 
L 9.8125 71.09375 
Q 15.4375 72.65625 20.34375 73.4375 
Q 25.25 74.21875 29.59375 74.21875 
Q 40.828125 74.21875 47.359375 69.109375 
Q 53.90625 64.015625 53.90625 55.328125 
Q 53.90625 49.265625 50.4375 45.09375 
Q 46.96875 40.921875 40.578125 39.3125 
z
" id="DejaVuSans-51"/>
      </defs>
      <g transform="translate(215.979511 330.878281)scale(0.11 -0.11)">
       <use xlink:href="#DejaVuSans-51"/>
       <use x="63.623047" xlink:href="#DejaVuSans-48"/>
      </g>
     </g>
    </g>
    <g id="xtick_5">
     <g id="line2d_5">
      <g>
       <use style="stroke:#000000;stroke-width:0.8;" x="275.745059" xlink:href="#mdee6feb210" y="315.52"/>
      </g>
     </g>
     <g id="text_5">
      <!-- 40 -->
      <defs>
       <path d="M 37.796875 64.3125 
L 12.890625 25.390625 
L 37.796875 25.390625 
z
M 35.203125 72.90625 
L 47.609375 72.90625 
L 47.609375 25.390625 
L 58.015625 25.390625 
L 58.015625 17.1875 
L 47.609375 17.1875 
L 47.609375 0 
L 37.796875 0 
L 37.796875 17.1875 
L 4.890625 17.1875 
L 4.890625 26.703125 
z
" id="DejaVuSans-52"/>
      </defs>
      <g transform="translate(268.746309 330.878281)scale(0.11 -0.11)">
       <use xlink:href="#DejaVuSans-52"/>
       <use x="63.623047" xlink:href="#DejaVuSans-48"/>
      </g>
     </g>
    </g>
    <g id="xtick_6">
     <g id="line2d_6">
      <g>
       <use style="stroke:#000000;stroke-width:0.8;" x="328.511858" xlink:href="#mdee6feb210" y="315.52"/>
      </g>
     </g>
     <g id="text_6">
      <!-- 50 -->
      <defs>
       <path d="M 10.796875 72.90625 
L 49.515625 72.90625 
L 49.515625 64.59375 
L 19.828125 64.59375 
L 19.828125 46.734375 
Q 21.96875 47.46875 24.109375 47.828125 
Q 26.265625 48.1875 28.421875 48.1875 
Q 40.625 48.1875 47.75 41.5 
Q 54.890625 34.8125 54.890625 23.390625 
Q 54.890625 11.625 47.5625 5.09375 
Q 40.234375 -1.421875 26.90625 -1.421875 
Q 22.3125 -1.421875 17.546875 -0.640625 
Q 12.796875 0.140625 7.71875 1.703125 
L 7.71875 11.625 
Q 12.109375 9.234375 16.796875 8.0625 
Q 21.484375 6.890625 26.703125 6.890625 
Q 35.15625 6.890625 40.078125 11.328125 
Q 45.015625 15.765625 45.015625 23.390625 
Q 45.015625 31 40.078125 35.4375 
Q 35.15625 39.890625 26.703125 39.890625 
Q 22.75 39.890625 18.8125 39.015625 
Q 14.890625 38.140625 10.796875 36.28125 
z
" id="DejaVuSans-53"/>
      </defs>
      <g transform="translate(321.513108 330.878281)scale(0.11 -0.11)">
       <use xlink:href="#DejaVuSans-53"/>
       <use x="63.623047" xlink:href="#DejaVuSans-48"/>
      </g>
     </g>
    </g>
    <g id="xtick_7">
     <g id="line2d_7">
      <g>
       <use style="stroke:#000000;stroke-width:0.8;" x="381.278656" xlink:href="#mdee6feb210" y="315.52"/>
      </g>
     </g>
     <g id="text_7">
      <!-- 60 -->
      <defs>
       <path d="M 33.015625 40.375 
Q 26.375 40.375 22.484375 35.828125 
Q 18.609375 31.296875 18.609375 23.390625 
Q 18.609375 15.53125 22.484375 10.953125 
Q 26.375 6.390625 33.015625 6.390625 
Q 39.65625 6.390625 43.53125 10.953125 
Q 47.40625 15.53125 47.40625 23.390625 
Q 47.40625 31.296875 43.53125 35.828125 
Q 39.65625 40.375 33.015625 40.375 
z
M 52.59375 71.296875 
L 52.59375 62.3125 
Q 48.875 64.0625 45.09375 64.984375 
Q 41.3125 65.921875 37.59375 65.921875 
Q 27.828125 65.921875 22.671875 59.328125 
Q 17.53125 52.734375 16.796875 39.40625 
Q 19.671875 43.65625 24.015625 45.921875 
Q 28.375 48.1875 33.59375 48.1875 
Q 44.578125 48.1875 50.953125 41.515625 
Q 57.328125 34.859375 57.328125 23.390625 
Q 57.328125 12.15625 50.6875 5.359375 
Q 44.046875 -1.421875 33.015625 -1.421875 
Q 20.359375 -1.421875 13.671875 8.265625 
Q 6.984375 17.96875 6.984375 36.375 
Q 6.984375 53.65625 15.1875 63.9375 
Q 23.390625 74.21875 37.203125 74.21875 
Q 40.921875 74.21875 44.703125 73.484375 
Q 48.484375 72.75 52.59375 71.296875 
z
" id="DejaVuSans-54"/>
      </defs>
      <g transform="translate(374.279906 330.878281)scale(0.11 -0.11)">
       <use xlink:href="#DejaVuSans-54"/>
       <use x="63.623047" xlink:href="#DejaVuSans-48"/>
      </g>
     </g>
    </g>
    <g id="xtick_8">
     <g id="line2d_8">
      <g>
       <use style="stroke:#000000;stroke-width:0.8;" x="434.045455" xlink:href="#mdee6feb210" y="315.52"/>
      </g>
     </g>
     <g id="text_8">
      <!-- 70 -->
      <defs>
       <path d="M 8.203125 72.90625 
L 55.078125 72.90625 
L 55.078125 68.703125 
L 28.609375 0 
L 18.3125 0 
L 43.21875 64.59375 
L 8.203125 64.59375 
z
" id="DejaVuSans-55"/>
      </defs>
      <g transform="translate(427.046705 330.878281)scale(0.11 -0.11)">
       <use xlink:href="#DejaVuSans-55"/>
       <use x="63.623047" xlink:href="#DejaVuSans-48"/>
      </g>
     </g>
    </g>
    <g id="text_9">
     <!-- GRU Epochs -->
     <defs>
      <path d="M 59.515625 10.40625 
L 59.515625 29.984375 
L 43.40625 29.984375 
L 43.40625 38.09375 
L 69.28125 38.09375 
L 69.28125 6.78125 
Q 63.578125 2.734375 56.6875 0.65625 
Q 49.8125 -1.421875 42 -1.421875 
Q 24.90625 -1.421875 15.25 8.5625 
Q 5.609375 18.5625 5.609375 36.375 
Q 5.609375 54.25 15.25 64.234375 
Q 24.90625 74.21875 42 74.21875 
Q 49.125 74.21875 55.546875 72.453125 
Q 61.96875 70.703125 67.390625 67.28125 
L 67.390625 56.78125 
Q 61.921875 61.421875 55.765625 63.765625 
Q 49.609375 66.109375 42.828125 66.109375 
Q 29.4375 66.109375 22.71875 58.640625 
Q 16.015625 51.171875 16.015625 36.375 
Q 16.015625 21.625 22.71875 14.15625 
Q 29.4375 6.6875 42.828125 6.6875 
Q 48.046875 6.6875 52.140625 7.59375 
Q 56.25 8.5 59.515625 10.40625 
z
" id="DejaVuSans-71"/>
      <path d="M 44.390625 34.1875 
Q 47.5625 33.109375 50.5625 29.59375 
Q 53.5625 26.078125 56.59375 19.921875 
L 66.609375 0 
L 56 0 
L 46.6875 18.703125 
Q 43.0625 26.03125 39.671875 28.421875 
Q 36.28125 30.8125 30.421875 30.8125 
L 19.671875 30.8125 
L 19.671875 0 
L 9.8125 0 
L 9.8125 72.90625 
L 32.078125 72.90625 
Q 44.578125 72.90625 50.734375 67.671875 
Q 56.890625 62.453125 56.890625 51.90625 
Q 56.890625 45.015625 53.6875 40.46875 
Q 50.484375 35.9375 44.390625 34.1875 
z
M 19.671875 64.796875 
L 19.671875 38.921875 
L 32.078125 38.921875 
Q 39.203125 38.921875 42.84375 42.21875 
Q 46.484375 45.515625 46.484375 51.90625 
Q 46.484375 58.296875 42.84375 61.546875 
Q 39.203125 64.796875 32.078125 64.796875 
z
" id="DejaVuSans-82"/>
      <path d="M 8.6875 72.90625 
L 18.609375 72.90625 
L 18.609375 28.609375 
Q 18.609375 16.890625 22.84375 11.734375 
Q 27.09375 6.59375 36.625 6.59375 
Q 46.09375 6.59375 50.34375 11.734375 
Q 54.59375 16.890625 54.59375 28.609375 
L 54.59375 72.90625 
L 64.5 72.90625 
L 64.5 27.390625 
Q 64.5 13.140625 57.4375 5.859375 
Q 50.390625 -1.421875 36.625 -1.421875 
Q 22.796875 -1.421875 15.734375 5.859375 
Q 8.6875 13.140625 8.6875 27.390625 
z
" id="DejaVuSans-85"/>
      <path id="DejaVuSans-32"/>
      <path d="M 9.8125 72.90625 
L 55.90625 72.90625 
L 55.90625 64.59375 
L 19.671875 64.59375 
L 19.671875 43.015625 
L 54.390625 43.015625 
L 54.390625 34.71875 
L 19.671875 34.71875 
L 19.671875 8.296875 
L 56.78125 8.296875 
L 56.78125 0 
L 9.8125 0 
z
" id="DejaVuSans-69"/>
      <path d="M 18.109375 8.203125 
L 18.109375 -20.796875 
L 9.078125 -20.796875 
L 9.078125 54.6875 
L 18.109375 54.6875 
L 18.109375 46.390625 
Q 20.953125 51.265625 25.265625 53.625 
Q 29.59375 56 35.59375 56 
Q 45.5625 56 51.78125 48.09375 
Q 58.015625 40.1875 58.015625 27.296875 
Q 58.015625 14.40625 51.78125 6.484375 
Q 45.5625 -1.421875 35.59375 -1.421875 
Q 29.59375 -1.421875 25.265625 0.953125 
Q 20.953125 3.328125 18.109375 8.203125 
z
M 48.6875 27.296875 
Q 48.6875 37.203125 44.609375 42.84375 
Q 40.53125 48.484375 33.40625 48.484375 
Q 26.265625 48.484375 22.1875 42.84375 
Q 18.109375 37.203125 18.109375 27.296875 
Q 18.109375 17.390625 22.1875 11.75 
Q 26.265625 6.109375 33.40625 6.109375 
Q 40.53125 6.109375 44.609375 11.75 
Q 48.6875 17.390625 48.6875 27.296875 
z
" id="DejaVuSans-112"/>
      <path d="M 30.609375 48.390625 
Q 23.390625 48.390625 19.1875 42.75 
Q 14.984375 37.109375 14.984375 27.296875 
Q 14.984375 17.484375 19.15625 11.84375 
Q 23.34375 6.203125 30.609375 6.203125 
Q 37.796875 6.203125 41.984375 11.859375 
Q 46.1875 17.53125 46.1875 27.296875 
Q 46.1875 37.015625 41.984375 42.703125 
Q 37.796875 48.390625 30.609375 48.390625 
z
M 30.609375 56 
Q 42.328125 56 49.015625 48.375 
Q 55.71875 40.765625 55.71875 27.296875 
Q 55.71875 13.875 49.015625 6.21875 
Q 42.328125 -1.421875 30.609375 -1.421875 
Q 18.84375 -1.421875 12.171875 6.21875 
Q 5.515625 13.875 5.515625 27.296875 
Q 5.515625 40.765625 12.171875 48.375 
Q 18.84375 56 30.609375 56 
z
" id="DejaVuSans-111"/>
      <path d="M 48.78125 52.59375 
L 48.78125 44.1875 
Q 44.96875 46.296875 41.140625 47.34375 
Q 37.3125 48.390625 33.40625 48.390625 
Q 24.65625 48.390625 19.8125 42.84375 
Q 14.984375 37.3125 14.984375 27.296875 
Q 14.984375 17.28125 19.8125 11.734375 
Q 24.65625 6.203125 33.40625 6.203125 
Q 37.3125 6.203125 41.140625 7.25 
Q 44.96875 8.296875 48.78125 10.40625 
L 48.78125 2.09375 
Q 45.015625 0.34375 40.984375 -0.53125 
Q 36.96875 -1.421875 32.421875 -1.421875 
Q 20.0625 -1.421875 12.78125 6.34375 
Q 5.515625 14.109375 5.515625 27.296875 
Q 5.515625 40.671875 12.859375 48.328125 
Q 20.21875 56 33.015625 56 
Q 37.15625 56 41.109375 55.140625 
Q 45.0625 54.296875 48.78125 52.59375 
z
" id="DejaVuSans-99"/>
      <path d="M 54.890625 33.015625 
L 54.890625 0 
L 45.90625 0 
L 45.90625 32.71875 
Q 45.90625 40.484375 42.875 44.328125 
Q 39.84375 48.1875 33.796875 48.1875 
Q 26.515625 48.1875 22.3125 43.546875 
Q 18.109375 38.921875 18.109375 30.90625 
L 18.109375 0 
L 9.078125 0 
L 9.078125 75.984375 
L 18.109375 75.984375 
L 18.109375 46.1875 
Q 21.34375 51.125 25.703125 53.5625 
Q 30.078125 56 35.796875 56 
Q 45.21875 56 50.046875 50.171875 
Q 54.890625 44.34375 54.890625 33.015625 
z
" id="DejaVuSans-104"/>
      <path d="M 44.28125 53.078125 
L 44.28125 44.578125 
Q 40.484375 46.53125 36.375 47.5 
Q 32.28125 48.484375 27.875 48.484375 
Q 21.1875 48.484375 17.84375 46.4375 
Q 14.5 44.390625 14.5 40.28125 
Q 14.5 37.15625 16.890625 35.375 
Q 19.28125 33.59375 26.515625 31.984375 
L 29.59375 31.296875 
Q 39.15625 29.25 43.1875 25.515625 
Q 47.21875 21.78125 47.21875 15.09375 
Q 47.21875 7.46875 41.1875 3.015625 
Q 35.15625 -1.421875 24.609375 -1.421875 
Q 20.21875 -1.421875 15.453125 -0.5625 
Q 10.6875 0.296875 5.421875 2 
L 5.421875 11.28125 
Q 10.40625 8.6875 15.234375 7.390625 
Q 20.0625 6.109375 24.8125 6.109375 
Q 31.15625 6.109375 34.5625 8.28125 
Q 37.984375 10.453125 37.984375 14.40625 
Q 37.984375 18.0625 35.515625 20.015625 
Q 33.0625 21.96875 24.703125 23.78125 
L 21.578125 24.515625 
Q 13.234375 26.265625 9.515625 29.90625 
Q 5.8125 33.546875 5.8125 39.890625 
Q 5.8125 47.609375 11.28125 51.796875 
Q 16.75 56 26.8125 56 
Q 31.78125 56 36.171875 55.265625 
Q 40.578125 54.546875 44.28125 53.078125 
z
" id="DejaVuSans-115"/>
     </defs>
     <g transform="translate(218.43625 345.524219)scale(0.11 -0.11)">
      <use xlink:href="#DejaVuSans-71"/>
      <use x="77.490234" xlink:href="#DejaVuSans-82"/>
      <use x="146.972656" xlink:href="#DejaVuSans-85"/>
      <use x="220.166016" xlink:href="#DejaVuSans-32"/>
      <use x="251.953125" xlink:href="#DejaVuSans-69"/>
      <use x="315.136719" xlink:href="#DejaVuSans-112"/>
      <use x="378.613281" xlink:href="#DejaVuSans-111"/>
      <use x="439.794922" xlink:href="#DejaVuSans-99"/>
      <use x="494.775391" xlink:href="#DejaVuSans-104"/>
      <use x="558.154297" xlink:href="#DejaVuSans-115"/>
     </g>
    </g>
   </g>
   <g id="matplotlib.axis_2">
    <g id="ytick_1">
     <g id="line2d_9">
      <defs>
       <path d="M 0 0 
L -3.5 0 
" id="maf140b3f70" style="stroke:#000000;stroke-width:0.8;"/>
      </defs>
      <g>
       <use style="stroke:#000000;stroke-width:0.8;" x="51.75" xlink:href="#maf140b3f70" y="307.066648"/>
      </g>
     </g>
     <g id="text_10">
      <!-- 0.4 -->
      <defs>
       <path d="M 10.6875 12.40625 
L 21 12.40625 
L 21 0 
L 10.6875 0 
z
" id="DejaVuSans-46"/>
      </defs>
      <g transform="translate(27.256563 311.245788)scale(0.11 -0.11)">
       <use xlink:href="#DejaVuSans-48"/>
       <use x="63.623047" xlink:href="#DejaVuSans-46"/>
       <use x="95.410156" xlink:href="#DejaVuSans-52"/>
      </g>
     </g>
    </g>
    <g id="ytick_2">
     <g id="line2d_10">
      <g>
       <use style="stroke:#000000;stroke-width:0.8;" x="51.75" xlink:href="#maf140b3f70" y="267.817416"/>
      </g>
     </g>
     <g id="text_11">
      <!-- 0.5 -->
      <g transform="translate(27.256563 271.996556)scale(0.11 -0.11)">
       <use xlink:href="#DejaVuSans-48"/>
       <use x="63.623047" xlink:href="#DejaVuSans-46"/>
       <use x="95.410156" xlink:href="#DejaVuSans-53"/>
      </g>
     </g>
    </g>
    <g id="ytick_3">
     <g id="line2d_11">
      <g>
       <use style="stroke:#000000;stroke-width:0.8;" x="51.75" xlink:href="#maf140b3f70" y="228.568184"/>
      </g>
     </g>
     <g id="text_12">
      <!-- 0.6 -->
      <g transform="translate(27.256563 232.747325)scale(0.11 -0.11)">
       <use xlink:href="#DejaVuSans-48"/>
       <use x="63.623047" xlink:href="#DejaVuSans-46"/>
       <use x="95.410156" xlink:href="#DejaVuSans-54"/>
      </g>
     </g>
    </g>
    <g id="ytick_4">
     <g id="line2d_12">
      <g>
       <use style="stroke:#000000;stroke-width:0.8;" x="51.75" xlink:href="#maf140b3f70" y="189.318952"/>
      </g>
     </g>
     <g id="text_13">
      <!-- 0.7 -->
      <g transform="translate(27.256563 193.498093)scale(0.11 -0.11)">
       <use xlink:href="#DejaVuSans-48"/>
       <use x="63.623047" xlink:href="#DejaVuSans-46"/>
       <use x="95.410156" xlink:href="#DejaVuSans-55"/>
      </g>
     </g>
    </g>
    <g id="ytick_5">
     <g id="line2d_13">
      <g>
       <use style="stroke:#000000;stroke-width:0.8;" x="51.75" xlink:href="#maf140b3f70" y="150.06972"/>
      </g>
     </g>
     <g id="text_14">
      <!-- 0.8 -->
      <defs>
       <path d="M 31.78125 34.625 
Q 24.75 34.625 20.71875 30.859375 
Q 16.703125 27.09375 16.703125 20.515625 
Q 16.703125 13.921875 20.71875 10.15625 
Q 24.75 6.390625 31.78125 6.390625 
Q 38.8125 6.390625 42.859375 10.171875 
Q 46.921875 13.96875 46.921875 20.515625 
Q 46.921875 27.09375 42.890625 30.859375 
Q 38.875 34.625 31.78125 34.625 
z
M 21.921875 38.8125 
Q 15.578125 40.375 12.03125 44.71875 
Q 8.5 49.078125 8.5 55.328125 
Q 8.5 64.0625 14.71875 69.140625 
Q 20.953125 74.21875 31.78125 74.21875 
Q 42.671875 74.21875 48.875 69.140625 
Q 55.078125 64.0625 55.078125 55.328125 
Q 55.078125 49.078125 51.53125 44.71875 
Q 48 40.375 41.703125 38.8125 
Q 48.828125 37.15625 52.796875 32.3125 
Q 56.78125 27.484375 56.78125 20.515625 
Q 56.78125 9.90625 50.3125 4.234375 
Q 43.84375 -1.421875 31.78125 -1.421875 
Q 19.734375 -1.421875 13.25 4.234375 
Q 6.78125 9.90625 6.78125 20.515625 
Q 6.78125 27.484375 10.78125 32.3125 
Q 14.796875 37.15625 21.921875 38.8125 
z
M 18.3125 54.390625 
Q 18.3125 48.734375 21.84375 45.5625 
Q 25.390625 42.390625 31.78125 42.390625 
Q 38.140625 42.390625 41.71875 45.5625 
Q 45.3125 48.734375 45.3125 54.390625 
Q 45.3125 60.0625 41.71875 63.234375 
Q 38.140625 66.40625 31.78125 66.40625 
Q 25.390625 66.40625 21.84375 63.234375 
Q 18.3125 60.0625 18.3125 54.390625 
z
" id="DejaVuSans-56"/>
      </defs>
      <g transform="translate(27.256563 154.248861)scale(0.11 -0.11)">
       <use xlink:href="#DejaVuSans-48"/>
       <use x="63.623047" xlink:href="#DejaVuSans-46"/>
       <use x="95.410156" xlink:href="#DejaVuSans-56"/>
      </g>
     </g>
    </g>
    <g id="ytick_6">
     <g id="line2d_14">
      <g>
       <use style="stroke:#000000;stroke-width:0.8;" x="51.75" xlink:href="#maf140b3f70" y="110.820489"/>
      </g>
     </g>
     <g id="text_15">
      <!-- 0.9 -->
      <defs>
       <path d="M 10.984375 1.515625 
L 10.984375 10.5 
Q 14.703125 8.734375 18.5 7.8125 
Q 22.3125 6.890625 25.984375 6.890625 
Q 35.75 6.890625 40.890625 13.453125 
Q 46.046875 20.015625 46.78125 33.40625 
Q 43.953125 29.203125 39.59375 26.953125 
Q 35.25 24.703125 29.984375 24.703125 
Q 19.046875 24.703125 12.671875 31.3125 
Q 6.296875 37.9375 6.296875 49.421875 
Q 6.296875 60.640625 12.9375 67.421875 
Q 19.578125 74.21875 30.609375 74.21875 
Q 43.265625 74.21875 49.921875 64.515625 
Q 56.59375 54.828125 56.59375 36.375 
Q 56.59375 19.140625 48.40625 8.859375 
Q 40.234375 -1.421875 26.421875 -1.421875 
Q 22.703125 -1.421875 18.890625 -0.6875 
Q 15.09375 0.046875 10.984375 1.515625 
z
M 30.609375 32.421875 
Q 37.25 32.421875 41.125 36.953125 
Q 45.015625 41.5 45.015625 49.421875 
Q 45.015625 57.28125 41.125 61.84375 
Q 37.25 66.40625 30.609375 66.40625 
Q 23.96875 66.40625 20.09375 61.84375 
Q 16.21875 57.28125 16.21875 49.421875 
Q 16.21875 41.5 20.09375 36.953125 
Q 23.96875 32.421875 30.609375 32.421875 
z
" id="DejaVuSans-57"/>
      </defs>
      <g transform="translate(27.256563 114.999629)scale(0.11 -0.11)">
       <use xlink:href="#DejaVuSans-48"/>
       <use x="63.623047" xlink:href="#DejaVuSans-46"/>
       <use x="95.410156" xlink:href="#DejaVuSans-57"/>
      </g>
     </g>
    </g>
    <g id="ytick_7">
     <g id="line2d_15">
      <g>
       <use style="stroke:#000000;stroke-width:0.8;" x="51.75" xlink:href="#maf140b3f70" y="71.571257"/>
      </g>
     </g>
     <g id="text_16">
      <!-- 1.0 -->
      <g transform="translate(27.256563 75.750398)scale(0.11 -0.11)">
       <use xlink:href="#DejaVuSans-49"/>
       <use x="63.623047" xlink:href="#DejaVuSans-46"/>
       <use x="95.410156" xlink:href="#DejaVuSans-48"/>
      </g>
     </g>
    </g>
    <g id="ytick_8">
     <g id="line2d_16">
      <g>
       <use style="stroke:#000000;stroke-width:0.8;" x="51.75" xlink:href="#maf140b3f70" y="32.322025"/>
      </g>
     </g>
     <g id="text_17">
      <!-- 1.1 -->
      <g transform="translate(27.256563 36.501166)scale(0.11 -0.11)">
       <use xlink:href="#DejaVuSans-49"/>
       <use x="63.623047" xlink:href="#DejaVuSans-46"/>
       <use x="95.410156" xlink:href="#DejaVuSans-49"/>
      </g>
     </g>
    </g>
    <g id="text_18">
     <!-- GRU Loss and Accuracy -->
     <defs>
      <path d="M 9.8125 72.90625 
L 19.671875 72.90625 
L 19.671875 8.296875 
L 55.171875 8.296875 
L 55.171875 0 
L 9.8125 0 
z
" id="DejaVuSans-76"/>
      <path d="M 34.28125 27.484375 
Q 23.390625 27.484375 19.1875 25 
Q 14.984375 22.515625 14.984375 16.5 
Q 14.984375 11.71875 18.140625 8.90625 
Q 21.296875 6.109375 26.703125 6.109375 
Q 34.1875 6.109375 38.703125 11.40625 
Q 43.21875 16.703125 43.21875 25.484375 
L 43.21875 27.484375 
z
M 52.203125 31.203125 
L 52.203125 0 
L 43.21875 0 
L 43.21875 8.296875 
Q 40.140625 3.328125 35.546875 0.953125 
Q 30.953125 -1.421875 24.3125 -1.421875 
Q 15.921875 -1.421875 10.953125 3.296875 
Q 6 8.015625 6 15.921875 
Q 6 25.140625 12.171875 29.828125 
Q 18.359375 34.515625 30.609375 34.515625 
L 43.21875 34.515625 
L 43.21875 35.40625 
Q 43.21875 41.609375 39.140625 45 
Q 35.0625 48.390625 27.6875 48.390625 
Q 23 48.390625 18.546875 47.265625 
Q 14.109375 46.140625 10.015625 43.890625 
L 10.015625 52.203125 
Q 14.9375 54.109375 19.578125 55.046875 
Q 24.21875 56 28.609375 56 
Q 40.484375 56 46.34375 49.84375 
Q 52.203125 43.703125 52.203125 31.203125 
z
" id="DejaVuSans-97"/>
      <path d="M 54.890625 33.015625 
L 54.890625 0 
L 45.90625 0 
L 45.90625 32.71875 
Q 45.90625 40.484375 42.875 44.328125 
Q 39.84375 48.1875 33.796875 48.1875 
Q 26.515625 48.1875 22.3125 43.546875 
Q 18.109375 38.921875 18.109375 30.90625 
L 18.109375 0 
L 9.078125 0 
L 9.078125 54.6875 
L 18.109375 54.6875 
L 18.109375 46.1875 
Q 21.34375 51.125 25.703125 53.5625 
Q 30.078125 56 35.796875 56 
Q 45.21875 56 50.046875 50.171875 
Q 54.890625 44.34375 54.890625 33.015625 
z
" id="DejaVuSans-110"/>
      <path d="M 45.40625 46.390625 
L 45.40625 75.984375 
L 54.390625 75.984375 
L 54.390625 0 
L 45.40625 0 
L 45.40625 8.203125 
Q 42.578125 3.328125 38.25 0.953125 
Q 33.9375 -1.421875 27.875 -1.421875 
Q 17.96875 -1.421875 11.734375 6.484375 
Q 5.515625 14.40625 5.515625 27.296875 
Q 5.515625 40.1875 11.734375 48.09375 
Q 17.96875 56 27.875 56 
Q 33.9375 56 38.25 53.625 
Q 42.578125 51.265625 45.40625 46.390625 
z
M 14.796875 27.296875 
Q 14.796875 17.390625 18.875 11.75 
Q 22.953125 6.109375 30.078125 6.109375 
Q 37.203125 6.109375 41.296875 11.75 
Q 45.40625 17.390625 45.40625 27.296875 
Q 45.40625 37.203125 41.296875 42.84375 
Q 37.203125 48.484375 30.078125 48.484375 
Q 22.953125 48.484375 18.875 42.84375 
Q 14.796875 37.203125 14.796875 27.296875 
z
" id="DejaVuSans-100"/>
      <path d="M 34.1875 63.1875 
L 20.796875 26.90625 
L 47.609375 26.90625 
z
M 28.609375 72.90625 
L 39.796875 72.90625 
L 67.578125 0 
L 57.328125 0 
L 50.6875 18.703125 
L 17.828125 18.703125 
L 11.1875 0 
L 0.78125 0 
z
" id="DejaVuSans-65"/>
      <path d="M 8.5 21.578125 
L 8.5 54.6875 
L 17.484375 54.6875 
L 17.484375 21.921875 
Q 17.484375 14.15625 20.5 10.265625 
Q 23.53125 6.390625 29.59375 6.390625 
Q 36.859375 6.390625 41.078125 11.03125 
Q 45.3125 15.671875 45.3125 23.6875 
L 45.3125 54.6875 
L 54.296875 54.6875 
L 54.296875 0 
L 45.3125 0 
L 45.3125 8.40625 
Q 42.046875 3.421875 37.71875 1 
Q 33.40625 -1.421875 27.6875 -1.421875 
Q 18.265625 -1.421875 13.375 4.4375 
Q 8.5 10.296875 8.5 21.578125 
z
M 31.109375 56 
z
" id="DejaVuSans-117"/>
      <path d="M 41.109375 46.296875 
Q 39.59375 47.171875 37.8125 47.578125 
Q 36.03125 48 33.890625 48 
Q 26.265625 48 22.1875 43.046875 
Q 18.109375 38.09375 18.109375 28.8125 
L 18.109375 0 
L 9.078125 0 
L 9.078125 54.6875 
L 18.109375 54.6875 
L 18.109375 46.1875 
Q 20.953125 51.171875 25.484375 53.578125 
Q 30.03125 56 36.53125 56 
Q 37.453125 56 38.578125 55.875 
Q 39.703125 55.765625 41.0625 55.515625 
z
" id="DejaVuSans-114"/>
      <path d="M 32.171875 -5.078125 
Q 28.375 -14.84375 24.75 -17.8125 
Q 21.140625 -20.796875 15.09375 -20.796875 
L 7.90625 -20.796875 
L 7.90625 -13.28125 
L 13.1875 -13.28125 
Q 16.890625 -13.28125 18.9375 -11.515625 
Q 21 -9.765625 23.484375 -3.21875 
L 25.09375 0.875 
L 2.984375 54.6875 
L 12.5 54.6875 
L 29.59375 11.921875 
L 46.6875 54.6875 
L 56.203125 54.6875 
z
" id="DejaVuSans-121"/>
     </defs>
     <g transform="translate(20.968906 236.615078)rotate(-90)scale(0.11 -0.11)">
      <use xlink:href="#DejaVuSans-71"/>
      <use x="77.490234" xlink:href="#DejaVuSans-82"/>
      <use x="146.972656" xlink:href="#DejaVuSans-85"/>
      <use x="220.166016" xlink:href="#DejaVuSans-32"/>
      <use x="251.953125" xlink:href="#DejaVuSans-76"/>
      <use x="305.916016" xlink:href="#DejaVuSans-111"/>
      <use x="367.097656" xlink:href="#DejaVuSans-115"/>
      <use x="419.197266" xlink:href="#DejaVuSans-115"/>
      <use x="471.296875" xlink:href="#DejaVuSans-32"/>
      <use x="503.083984" xlink:href="#DejaVuSans-97"/>
      <use x="564.363281" xlink:href="#DejaVuSans-110"/>
      <use x="627.742188" xlink:href="#DejaVuSans-100"/>
      <use x="691.21875" xlink:href="#DejaVuSans-32"/>
      <use x="723.005859" xlink:href="#DejaVuSans-65"/>
      <use x="789.664062" xlink:href="#DejaVuSans-99"/>
      <use x="844.644531" xlink:href="#DejaVuSans-99"/>
      <use x="899.625" xlink:href="#DejaVuSans-117"/>
      <use x="963.003906" xlink:href="#DejaVuSans-114"/>
      <use x="1004.117188" xlink:href="#DejaVuSans-97"/>
      <use x="1065.396484" xlink:href="#DejaVuSans-99"/>
      <use x="1120.376953" xlink:href="#DejaVuSans-121"/>
     </g>
    </g>
   </g>
   <g id="line2d_17">
    <path clip-path="url(#p600b02cfe6)" d="M 69.954545 41.030909 
L 75.231225 61.422985 
L 80.507905 73.782696 
L 85.784585 89.499108 
L 91.061265 115.735079 
L 96.337945 153.200066 
L 101.614625 165.804729 
L 106.891304 176.203087 
L 112.167984 191.88081 
L 117.444664 210.346123 
L 122.721344 215.511836 
L 127.998024 226.996444 
L 133.274704 230.786084 
L 138.551383 237.651759 
L 143.828063 240.354453 
L 149.104743 242.410159 
L 154.381423 242.91384 
L 159.658103 243.459473 
L 164.934783 244.454827 
L 170.211462 245.482511 
L 175.488142 246.652597 
L 180.764822 246.458999 
L 186.041502 246.834114 
L 191.318182 247.021142 
L 196.594862 247.104656 
L 201.871542 247.27992 
L 207.148221 247.318284 
L 212.424901 247.347005 
L 217.701581 247.375443 
L 222.978261 247.397758 
L 228.254941 247.412911 
L 233.531621 247.427041 
L 238.8083 247.438685 
L 244.08498 247.449045 
L 249.36166 247.45755 
L 254.63834 247.465869 
L 259.91502 247.472526 
L 265.1917 247.478615 
L 270.468379 247.484347 
L 275.745059 247.489584 
L 281.021739 247.494397 
L 286.298419 247.498928 
L 291.575099 247.503584 
L 296.851779 247.507397 
L 302.128458 247.511438 
L 307.405138 247.514813 
L 312.681818 247.518403 
L 317.958498 247.520996 
L 323.235178 247.524518 
L 328.511858 247.527533 
L 333.788538 247.53031 
L 339.065217 247.533074 
L 344.341897 247.535283 
L 349.618577 247.537957 
L 354.895257 247.539848 
L 360.171937 247.542255 
L 365.448617 247.544484 
L 370.725296 247.538445 
L 376.001976 233.278473 
L 381.278656 205.99419 
L 386.555336 222.481472 
L 391.832016 233.97866 
L 397.108696 242.543544 
L 402.385375 245.565321 
L 407.662055 246.839388 
L 412.938735 247.171541 
L 418.215415 247.321285 
L 423.492095 247.393988 
L 428.768775 247.427405 
L 434.045455 247.453039 
" style="fill:none;stroke:#1f77b4;stroke-dasharray:5.55,2.4;stroke-dashoffset:0;stroke-width:1.5;"/>
   </g>
   <g id="line2d_18">
    <path clip-path="url(#p600b02cfe6)" d="M 69.954545 50.548917 
L 75.231225 56.397087 
L 80.507905 62.014542 
L 85.784585 71.197906 
L 91.061265 102.455305 
L 96.337945 155.843106 
L 101.614625 126.381026 
L 106.891304 137.189433 
L 112.167984 162.386159 
L 117.444664 178.301755 
L 122.721344 163.853255 
L 127.998024 189.515318 
L 133.274704 188.86327 
L 138.551383 189.953471 
L 143.828063 184.139947 
L 149.104743 190.226916 
L 154.381423 181.833965 
L 159.658103 192.549637 
L 164.934783 189.751788 
L 170.211462 182.544428 
L 175.488142 191.562243 
L 180.764822 189.202699 
L 186.041502 173.167815 
L 191.318182 190.502607 
L 196.594862 189.1566 
L 201.871542 186.429507 
L 207.148221 185.849842 
L 212.424901 186.755508 
L 217.701581 187.603752 
L 222.978261 187.612057 
L 228.254941 187.581797 
L 233.531621 187.541745 
L 238.8083 187.460087 
L 244.08498 187.517965 
L 249.36166 187.410655 
L 254.63834 187.402338 
L 259.91502 187.332881 
L 265.1917 187.115371 
L 270.468379 187.107745 
L 275.745059 186.885697 
L 281.021739 186.983626 
L 286.298419 186.779042 
L 291.575099 186.753741 
L 296.851779 186.726931 
L 302.128458 186.707105 
L 307.405138 186.533554 
L 312.681818 186.134762 
L 317.958498 186.126421 
L 323.235178 186.051326 
L 328.511858 185.836296 
L 333.788538 185.705838 
L 339.065217 185.458875 
L 344.341897 185.284096 
L 349.618577 185.015002 
L 354.895257 184.89996 
L 360.171937 184.563631 
L 365.448617 184.448812 
L 370.725296 189.525389 
L 376.001976 131.121438 
L 381.278656 131.161232 
L 386.555336 144.913843 
L 391.832016 154.346065 
L 397.108696 163.550847 
L 402.385375 181.942246 
L 407.662055 189.697747 
L 412.938735 192.753554 
L 418.215415 194.392762 
L 423.492095 195.411891 
L 428.768775 196.076817 
L 434.045455 196.469562 
" style="fill:none;stroke:#ff7f0e;stroke-dasharray:5.55,2.4;stroke-dashoffset:0;stroke-width:1.5;"/>
   </g>
   <g id="line2d_19">
    <path clip-path="url(#p600b02cfe6)" d="M 69.954545 302.449091 
L 75.231225 219.992722 
L 80.507905 182.062792 
L 85.784585 168.869773 
L 91.061265 167.220645 
L 96.337945 167.220645 
L 101.614625 162.273263 
L 106.891304 125.992461 
L 112.167984 102.904677 
L 117.444664 88.062531 
L 122.721344 88.062531 
L 127.998024 81.466021 
L 133.274704 81.466021 
L 138.551383 76.518639 
L 143.828063 74.869512 
L 149.104743 74.869512 
L 154.381423 74.869512 
L 159.658103 74.869512 
L 164.934783 73.220384 
L 170.211462 73.220384 
L 175.488142 71.571257 
L 180.764822 71.571257 
L 186.041502 71.571257 
L 191.318182 71.571257 
L 196.594862 71.571257 
L 201.871542 71.571257 
L 207.148221 71.571257 
L 212.424901 71.571257 
L 217.701581 71.571257 
L 222.978261 71.571257 
L 228.254941 71.571257 
L 233.531621 71.571257 
L 238.8083 71.571257 
L 244.08498 71.571257 
L 249.36166 71.571257 
L 254.63834 71.571257 
L 259.91502 71.571257 
L 265.1917 71.571257 
L 270.468379 71.571257 
L 275.745059 71.571257 
L 281.021739 71.571257 
L 286.298419 71.571257 
L 291.575099 71.571257 
L 296.851779 71.571257 
L 302.128458 71.571257 
L 307.405138 71.571257 
L 312.681818 71.571257 
L 317.958498 71.571257 
L 323.235178 71.571257 
L 328.511858 71.571257 
L 333.788538 71.571257 
L 339.065217 71.571257 
L 344.341897 71.571257 
L 349.618577 71.571257 
L 354.895257 71.571257 
L 360.171937 71.571257 
L 365.448617 71.571257 
L 370.725296 71.571257 
L 376.001976 86.413403 
L 381.278656 104.553805 
L 386.555336 73.220384 
L 391.832016 76.518639 
L 397.108696 71.571257 
L 402.385375 71.571257 
L 407.662055 71.571257 
L 412.938735 71.571257 
L 418.215415 71.571257 
L 423.492095 71.571257 
L 428.768775 71.571257 
L 434.045455 71.571257 
" style="fill:none;stroke:#2ca02c;stroke-linecap:square;stroke-width:1.5;"/>
   </g>
   <g id="line2d_20">
    <path clip-path="url(#p600b02cfe6)" d="M 69.954545 290.905199 
L 75.231225 250.501578 
L 80.507905 244.729632 
L 85.784585 227.413795 
L 91.061265 181.238228 
L 96.337945 163.922391 
L 101.614625 192.78212 
L 106.891304 158.150445 
L 112.167984 152.378499 
L 117.444664 140.834607 
L 122.721344 152.378499 
L 127.998024 140.834607 
L 133.274704 135.062661 
L 138.551383 135.062661 
L 143.828063 140.834607 
L 149.104743 140.834607 
L 154.381423 140.834607 
L 159.658103 123.51877 
L 164.934783 135.062661 
L 170.211462 140.834607 
L 175.488142 129.290715 
L 180.764822 135.062661 
L 186.041502 146.606553 
L 191.318182 135.062661 
L 196.594862 135.062661 
L 201.871542 135.062661 
L 207.148221 135.062661 
L 212.424901 135.062661 
L 217.701581 129.290715 
L 222.978261 129.290715 
L 228.254941 129.290715 
L 233.531621 129.290715 
L 238.8083 129.290715 
L 244.08498 129.290715 
L 249.36166 129.290715 
L 254.63834 129.290715 
L 259.91502 129.290715 
L 265.1917 129.290715 
L 270.468379 129.290715 
L 275.745059 129.290715 
L 281.021739 129.290715 
L 286.298419 129.290715 
L 291.575099 129.290715 
L 296.851779 129.290715 
L 302.128458 129.290715 
L 307.405138 129.290715 
L 312.681818 129.290715 
L 317.958498 129.290715 
L 323.235178 129.290715 
L 328.511858 129.290715 
L 333.788538 129.290715 
L 339.065217 129.290715 
L 344.341897 129.290715 
L 349.618577 129.290715 
L 354.895257 135.062661 
L 360.171937 135.062661 
L 365.448617 135.062661 
L 370.725296 129.290715 
L 376.001976 198.554066 
L 381.278656 181.238228 
L 386.555336 175.466282 
L 391.832016 158.150445 
L 397.108696 146.606553 
L 402.385375 123.51877 
L 407.662055 129.290715 
L 412.938735 123.51877 
L 418.215415 123.51877 
L 423.492095 117.746824 
L 428.768775 117.746824 
L 434.045455 111.974878 
" style="fill:none;stroke:#d62728;stroke-linecap:square;stroke-width:1.5;"/>
   </g>
   <g id="patch_3">
    <path d="M 51.75 315.52 
L 51.75 27.96 
" style="fill:none;stroke:#000000;stroke-linecap:square;stroke-linejoin:miter;stroke-width:0.8;"/>
   </g>
   <g id="patch_4">
    <path d="M 452.25 315.52 
L 452.25 27.96 
" style="fill:none;stroke:#000000;stroke-linecap:square;stroke-linejoin:miter;stroke-width:0.8;"/>
   </g>
   <g id="patch_5">
    <path d="M 51.75 315.52 
L 452.25 315.52 
" style="fill:none;stroke:#000000;stroke-linecap:square;stroke-linejoin:miter;stroke-width:0.8;"/>
   </g>
   <g id="patch_6">
    <path d="M 51.75 27.96 
L 452.25 27.96 
" style="fill:none;stroke:#000000;stroke-linecap:square;stroke-linejoin:miter;stroke-width:0.8;"/>
   </g>
   <g id="text_19">
    <!-- GRU Training and Validation Losses/Accuracies for Sliced Time Samples -->
    <defs>
     <path d="M -0.296875 72.90625 
L 61.375 72.90625 
L 61.375 64.59375 
L 35.5 64.59375 
L 35.5 0 
L 25.59375 0 
L 25.59375 64.59375 
L -0.296875 64.59375 
z
" id="DejaVuSans-84"/>
     <path d="M 9.421875 54.6875 
L 18.40625 54.6875 
L 18.40625 0 
L 9.421875 0 
z
M 9.421875 75.984375 
L 18.40625 75.984375 
L 18.40625 64.59375 
L 9.421875 64.59375 
z
" id="DejaVuSans-105"/>
     <path d="M 45.40625 27.984375 
Q 45.40625 37.75 41.375 43.109375 
Q 37.359375 48.484375 30.078125 48.484375 
Q 22.859375 48.484375 18.828125 43.109375 
Q 14.796875 37.75 14.796875 27.984375 
Q 14.796875 18.265625 18.828125 12.890625 
Q 22.859375 7.515625 30.078125 7.515625 
Q 37.359375 7.515625 41.375 12.890625 
Q 45.40625 18.265625 45.40625 27.984375 
z
M 54.390625 6.78125 
Q 54.390625 -7.171875 48.1875 -13.984375 
Q 42 -20.796875 29.203125 -20.796875 
Q 24.46875 -20.796875 20.265625 -20.09375 
Q 16.0625 -19.390625 12.109375 -17.921875 
L 12.109375 -9.1875 
Q 16.0625 -11.328125 19.921875 -12.34375 
Q 23.78125 -13.375 27.78125 -13.375 
Q 36.625 -13.375 41.015625 -8.765625 
Q 45.40625 -4.15625 45.40625 5.171875 
L 45.40625 9.625 
Q 42.625 4.78125 38.28125 2.390625 
Q 33.9375 0 27.875 0 
Q 17.828125 0 11.671875 7.65625 
Q 5.515625 15.328125 5.515625 27.984375 
Q 5.515625 40.671875 11.671875 48.328125 
Q 17.828125 56 27.875 56 
Q 33.9375 56 38.28125 53.609375 
Q 42.625 51.21875 45.40625 46.390625 
L 45.40625 54.6875 
L 54.390625 54.6875 
z
" id="DejaVuSans-103"/>
     <path d="M 28.609375 0 
L 0.78125 72.90625 
L 11.078125 72.90625 
L 34.1875 11.53125 
L 57.328125 72.90625 
L 67.578125 72.90625 
L 39.796875 0 
z
" id="DejaVuSans-86"/>
     <path d="M 9.421875 75.984375 
L 18.40625 75.984375 
L 18.40625 0 
L 9.421875 0 
z
" id="DejaVuSans-108"/>
     <path d="M 18.3125 70.21875 
L 18.3125 54.6875 
L 36.8125 54.6875 
L 36.8125 47.703125 
L 18.3125 47.703125 
L 18.3125 18.015625 
Q 18.3125 11.328125 20.140625 9.421875 
Q 21.96875 7.515625 27.59375 7.515625 
L 36.8125 7.515625 
L 36.8125 0 
L 27.59375 0 
Q 17.1875 0 13.234375 3.875 
Q 9.28125 7.765625 9.28125 18.015625 
L 9.28125 47.703125 
L 2.6875 47.703125 
L 2.6875 54.6875 
L 9.28125 54.6875 
L 9.28125 70.21875 
z
" id="DejaVuSans-116"/>
     <path d="M 56.203125 29.59375 
L 56.203125 25.203125 
L 14.890625 25.203125 
Q 15.484375 15.921875 20.484375 11.0625 
Q 25.484375 6.203125 34.421875 6.203125 
Q 39.59375 6.203125 44.453125 7.46875 
Q 49.3125 8.734375 54.109375 11.28125 
L 54.109375 2.78125 
Q 49.265625 0.734375 44.1875 -0.34375 
Q 39.109375 -1.421875 33.890625 -1.421875 
Q 20.796875 -1.421875 13.15625 6.1875 
Q 5.515625 13.8125 5.515625 26.8125 
Q 5.515625 40.234375 12.765625 48.109375 
Q 20.015625 56 32.328125 56 
Q 43.359375 56 49.78125 48.890625 
Q 56.203125 41.796875 56.203125 29.59375 
z
M 47.21875 32.234375 
Q 47.125 39.59375 43.09375 43.984375 
Q 39.0625 48.390625 32.421875 48.390625 
Q 24.90625 48.390625 20.390625 44.140625 
Q 15.875 39.890625 15.1875 32.171875 
z
" id="DejaVuSans-101"/>
     <path d="M 25.390625 72.90625 
L 33.6875 72.90625 
L 8.296875 -9.28125 
L 0 -9.28125 
z
" id="DejaVuSans-47"/>
     <path d="M 37.109375 75.984375 
L 37.109375 68.5 
L 28.515625 68.5 
Q 23.6875 68.5 21.796875 66.546875 
Q 19.921875 64.59375 19.921875 59.515625 
L 19.921875 54.6875 
L 34.71875 54.6875 
L 34.71875 47.703125 
L 19.921875 47.703125 
L 19.921875 0 
L 10.890625 0 
L 10.890625 47.703125 
L 2.296875 47.703125 
L 2.296875 54.6875 
L 10.890625 54.6875 
L 10.890625 58.5 
Q 10.890625 67.625 15.140625 71.796875 
Q 19.390625 75.984375 28.609375 75.984375 
z
" id="DejaVuSans-102"/>
     <path d="M 53.515625 70.515625 
L 53.515625 60.890625 
Q 47.90625 63.578125 42.921875 64.890625 
Q 37.9375 66.21875 33.296875 66.21875 
Q 25.25 66.21875 20.875 63.09375 
Q 16.5 59.96875 16.5 54.203125 
Q 16.5 49.359375 19.40625 46.890625 
Q 22.3125 44.4375 30.421875 42.921875 
L 36.375 41.703125 
Q 47.40625 39.59375 52.65625 34.296875 
Q 57.90625 29 57.90625 20.125 
Q 57.90625 9.515625 50.796875 4.046875 
Q 43.703125 -1.421875 29.984375 -1.421875 
Q 24.8125 -1.421875 18.96875 -0.25 
Q 13.140625 0.921875 6.890625 3.21875 
L 6.890625 13.375 
Q 12.890625 10.015625 18.65625 8.296875 
Q 24.421875 6.59375 29.984375 6.59375 
Q 38.421875 6.59375 43.015625 9.90625 
Q 47.609375 13.234375 47.609375 19.390625 
Q 47.609375 24.75 44.3125 27.78125 
Q 41.015625 30.8125 33.5 32.328125 
L 27.484375 33.5 
Q 16.453125 35.6875 11.515625 40.375 
Q 6.59375 45.0625 6.59375 53.421875 
Q 6.59375 63.09375 13.40625 68.65625 
Q 20.21875 74.21875 32.171875 74.21875 
Q 37.3125 74.21875 42.625 73.28125 
Q 47.953125 72.359375 53.515625 70.515625 
z
" id="DejaVuSans-83"/>
     <path d="M 52 44.1875 
Q 55.375 50.25 60.0625 53.125 
Q 64.75 56 71.09375 56 
Q 79.640625 56 84.28125 50.015625 
Q 88.921875 44.046875 88.921875 33.015625 
L 88.921875 0 
L 79.890625 0 
L 79.890625 32.71875 
Q 79.890625 40.578125 77.09375 44.375 
Q 74.3125 48.1875 68.609375 48.1875 
Q 61.625 48.1875 57.5625 43.546875 
Q 53.515625 38.921875 53.515625 30.90625 
L 53.515625 0 
L 44.484375 0 
L 44.484375 32.71875 
Q 44.484375 40.625 41.703125 44.40625 
Q 38.921875 48.1875 33.109375 48.1875 
Q 26.21875 48.1875 22.15625 43.53125 
Q 18.109375 38.875 18.109375 30.90625 
L 18.109375 0 
L 9.078125 0 
L 9.078125 54.6875 
L 18.109375 54.6875 
L 18.109375 46.1875 
Q 21.1875 51.21875 25.484375 53.609375 
Q 29.78125 56 35.6875 56 
Q 41.65625 56 45.828125 52.96875 
Q 50 49.953125 52 44.1875 
z
" id="DejaVuSans-109"/>
    </defs>
    <g transform="translate(16.736812 21.96)scale(0.132 -0.132)">
     <use xlink:href="#DejaVuSans-71"/>
     <use x="77.490234" xlink:href="#DejaVuSans-82"/>
     <use x="146.972656" xlink:href="#DejaVuSans-85"/>
     <use x="220.166016" xlink:href="#DejaVuSans-32"/>
     <use x="251.953125" xlink:href="#DejaVuSans-84"/>
     <use x="298.287109" xlink:href="#DejaVuSans-114"/>
     <use x="339.400391" xlink:href="#DejaVuSans-97"/>
     <use x="400.679688" xlink:href="#DejaVuSans-105"/>
     <use x="428.462891" xlink:href="#DejaVuSans-110"/>
     <use x="491.841797" xlink:href="#DejaVuSans-105"/>
     <use x="519.625" xlink:href="#DejaVuSans-110"/>
     <use x="583.003906" xlink:href="#DejaVuSans-103"/>
     <use x="646.480469" xlink:href="#DejaVuSans-32"/>
     <use x="678.267578" xlink:href="#DejaVuSans-97"/>
     <use x="739.546875" xlink:href="#DejaVuSans-110"/>
     <use x="802.925781" xlink:href="#DejaVuSans-100"/>
     <use x="866.402344" xlink:href="#DejaVuSans-32"/>
     <use x="898.189453" xlink:href="#DejaVuSans-86"/>
     <use x="958.847656" xlink:href="#DejaVuSans-97"/>
     <use x="1020.126953" xlink:href="#DejaVuSans-108"/>
     <use x="1047.910156" xlink:href="#DejaVuSans-105"/>
     <use x="1075.693359" xlink:href="#DejaVuSans-100"/>
     <use x="1139.169922" xlink:href="#DejaVuSans-97"/>
     <use x="1200.449219" xlink:href="#DejaVuSans-116"/>
     <use x="1239.658203" xlink:href="#DejaVuSans-105"/>
     <use x="1267.441406" xlink:href="#DejaVuSans-111"/>
     <use x="1328.623047" xlink:href="#DejaVuSans-110"/>
     <use x="1392.001953" xlink:href="#DejaVuSans-32"/>
     <use x="1423.789062" xlink:href="#DejaVuSans-76"/>
     <use x="1477.751953" xlink:href="#DejaVuSans-111"/>
     <use x="1538.933594" xlink:href="#DejaVuSans-115"/>
     <use x="1591.033203" xlink:href="#DejaVuSans-115"/>
     <use x="1643.132812" xlink:href="#DejaVuSans-101"/>
     <use x="1704.65625" xlink:href="#DejaVuSans-115"/>
     <use x="1756.755859" xlink:href="#DejaVuSans-47"/>
     <use x="1790.447266" xlink:href="#DejaVuSans-65"/>
     <use x="1857.105469" xlink:href="#DejaVuSans-99"/>
     <use x="1912.085938" xlink:href="#DejaVuSans-99"/>
     <use x="1967.066406" xlink:href="#DejaVuSans-117"/>
     <use x="2030.445312" xlink:href="#DejaVuSans-114"/>
     <use x="2071.558594" xlink:href="#DejaVuSans-97"/>
     <use x="2132.837891" xlink:href="#DejaVuSans-99"/>
     <use x="2187.818359" xlink:href="#DejaVuSans-105"/>
     <use x="2215.601562" xlink:href="#DejaVuSans-101"/>
     <use x="2277.125" xlink:href="#DejaVuSans-115"/>
     <use x="2329.224609" xlink:href="#DejaVuSans-32"/>
     <use x="2361.011719" xlink:href="#DejaVuSans-102"/>
     <use x="2396.216797" xlink:href="#DejaVuSans-111"/>
     <use x="2457.398438" xlink:href="#DejaVuSans-114"/>
     <use x="2498.511719" xlink:href="#DejaVuSans-32"/>
     <use x="2530.298828" xlink:href="#DejaVuSans-83"/>
     <use x="2593.775391" xlink:href="#DejaVuSans-108"/>
     <use x="2621.558594" xlink:href="#DejaVuSans-105"/>
     <use x="2649.341797" xlink:href="#DejaVuSans-99"/>
     <use x="2704.322266" xlink:href="#DejaVuSans-101"/>
     <use x="2765.845703" xlink:href="#DejaVuSans-100"/>
     <use x="2829.322266" xlink:href="#DejaVuSans-32"/>
     <use x="2861.109375" xlink:href="#DejaVuSans-84"/>
     <use x="2919.068359" xlink:href="#DejaVuSans-105"/>
     <use x="2946.851562" xlink:href="#DejaVuSans-109"/>
     <use x="3044.263672" xlink:href="#DejaVuSans-101"/>
     <use x="3105.787109" xlink:href="#DejaVuSans-32"/>
     <use x="3137.574219" xlink:href="#DejaVuSans-83"/>
     <use x="3201.050781" xlink:href="#DejaVuSans-97"/>
     <use x="3262.330078" xlink:href="#DejaVuSans-109"/>
     <use x="3359.742188" xlink:href="#DejaVuSans-112"/>
     <use x="3423.21875" xlink:href="#DejaVuSans-108"/>
     <use x="3451.001953" xlink:href="#DejaVuSans-101"/>
     <use x="3512.525391" xlink:href="#DejaVuSans-115"/>
    </g>
   </g>
   <g id="legend_1">
    <g id="patch_7">
     <path d="M 59.45 310.02 
L 230.400313 310.02 
Q 232.600313 310.02 232.600313 307.82 
L 232.600313 244.33625 
Q 232.600313 242.13625 230.400313 242.13625 
L 59.45 242.13625 
Q 57.25 242.13625 57.25 244.33625 
L 57.25 307.82 
Q 57.25 310.02 59.45 310.02 
z
" style="fill:#ffffff;opacity:0.8;stroke:#cccccc;stroke-linejoin:miter;"/>
    </g>
    <g id="line2d_21">
     <path d="M 61.65 251.044531 
L 83.65 251.044531 
" style="fill:none;stroke:#1f77b4;stroke-dasharray:5.55,2.4;stroke-dashoffset:0;stroke-width:1.5;"/>
    </g>
    <g id="line2d_22"/>
    <g id="text_20">
     <!-- GRU Training Loss -->
     <g transform="translate(92.45 254.894531)scale(0.11 -0.11)">
      <use xlink:href="#DejaVuSans-71"/>
      <use x="77.490234" xlink:href="#DejaVuSans-82"/>
      <use x="146.972656" xlink:href="#DejaVuSans-85"/>
      <use x="220.166016" xlink:href="#DejaVuSans-32"/>
      <use x="251.953125" xlink:href="#DejaVuSans-84"/>
      <use x="298.287109" xlink:href="#DejaVuSans-114"/>
      <use x="339.400391" xlink:href="#DejaVuSans-97"/>
      <use x="400.679688" xlink:href="#DejaVuSans-105"/>
      <use x="428.462891" xlink:href="#DejaVuSans-110"/>
      <use x="491.841797" xlink:href="#DejaVuSans-105"/>
      <use x="519.625" xlink:href="#DejaVuSans-110"/>
      <use x="583.003906" xlink:href="#DejaVuSans-103"/>
      <use x="646.480469" xlink:href="#DejaVuSans-32"/>
      <use x="678.267578" xlink:href="#DejaVuSans-76"/>
      <use x="732.230469" xlink:href="#DejaVuSans-111"/>
      <use x="793.412109" xlink:href="#DejaVuSans-115"/>
      <use x="845.511719" xlink:href="#DejaVuSans-115"/>
     </g>
    </g>
    <g id="line2d_23">
     <path d="M 61.65 267.190469 
L 83.65 267.190469 
" style="fill:none;stroke:#ff7f0e;stroke-dasharray:5.55,2.4;stroke-dashoffset:0;stroke-width:1.5;"/>
    </g>
    <g id="line2d_24"/>
    <g id="text_21">
     <!-- GRU Validation Loss -->
     <g transform="translate(92.45 271.040469)scale(0.11 -0.11)">
      <use xlink:href="#DejaVuSans-71"/>
      <use x="77.490234" xlink:href="#DejaVuSans-82"/>
      <use x="146.972656" xlink:href="#DejaVuSans-85"/>
      <use x="220.166016" xlink:href="#DejaVuSans-32"/>
      <use x="251.953125" xlink:href="#DejaVuSans-86"/>
      <use x="312.611328" xlink:href="#DejaVuSans-97"/>
      <use x="373.890625" xlink:href="#DejaVuSans-108"/>
      <use x="401.673828" xlink:href="#DejaVuSans-105"/>
      <use x="429.457031" xlink:href="#DejaVuSans-100"/>
      <use x="492.933594" xlink:href="#DejaVuSans-97"/>
      <use x="554.212891" xlink:href="#DejaVuSans-116"/>
      <use x="593.421875" xlink:href="#DejaVuSans-105"/>
      <use x="621.205078" xlink:href="#DejaVuSans-111"/>
      <use x="682.386719" xlink:href="#DejaVuSans-110"/>
      <use x="745.765625" xlink:href="#DejaVuSans-32"/>
      <use x="777.552734" xlink:href="#DejaVuSans-76"/>
      <use x="831.515625" xlink:href="#DejaVuSans-111"/>
      <use x="892.697266" xlink:href="#DejaVuSans-115"/>
      <use x="944.796875" xlink:href="#DejaVuSans-115"/>
     </g>
    </g>
    <g id="line2d_25">
     <path d="M 61.65 283.336406 
L 83.65 283.336406 
" style="fill:none;stroke:#2ca02c;stroke-linecap:square;stroke-width:1.5;"/>
    </g>
    <g id="line2d_26"/>
    <g id="text_22">
     <!-- GRU Training Accuracy -->
     <g transform="translate(92.45 287.186406)scale(0.11 -0.11)">
      <use xlink:href="#DejaVuSans-71"/>
      <use x="77.490234" xlink:href="#DejaVuSans-82"/>
      <use x="146.972656" xlink:href="#DejaVuSans-85"/>
      <use x="220.166016" xlink:href="#DejaVuSans-32"/>
      <use x="251.953125" xlink:href="#DejaVuSans-84"/>
      <use x="298.287109" xlink:href="#DejaVuSans-114"/>
      <use x="339.400391" xlink:href="#DejaVuSans-97"/>
      <use x="400.679688" xlink:href="#DejaVuSans-105"/>
      <use x="428.462891" xlink:href="#DejaVuSans-110"/>
      <use x="491.841797" xlink:href="#DejaVuSans-105"/>
      <use x="519.625" xlink:href="#DejaVuSans-110"/>
      <use x="583.003906" xlink:href="#DejaVuSans-103"/>
      <use x="646.480469" xlink:href="#DejaVuSans-32"/>
      <use x="678.267578" xlink:href="#DejaVuSans-65"/>
      <use x="744.925781" xlink:href="#DejaVuSans-99"/>
      <use x="799.90625" xlink:href="#DejaVuSans-99"/>
      <use x="854.886719" xlink:href="#DejaVuSans-117"/>
      <use x="918.265625" xlink:href="#DejaVuSans-114"/>
      <use x="959.378906" xlink:href="#DejaVuSans-97"/>
      <use x="1020.658203" xlink:href="#DejaVuSans-99"/>
      <use x="1075.638672" xlink:href="#DejaVuSans-121"/>
     </g>
    </g>
    <g id="line2d_27">
     <path d="M 61.65 299.482344 
L 83.65 299.482344 
" style="fill:none;stroke:#d62728;stroke-linecap:square;stroke-width:1.5;"/>
    </g>
    <g id="line2d_28"/>
    <g id="text_23">
     <!-- GRU Validation Accuracy -->
     <g transform="translate(92.45 303.332344)scale(0.11 -0.11)">
      <use xlink:href="#DejaVuSans-71"/>
      <use x="77.490234" xlink:href="#DejaVuSans-82"/>
      <use x="146.972656" xlink:href="#DejaVuSans-85"/>
      <use x="220.166016" xlink:href="#DejaVuSans-32"/>
      <use x="251.953125" xlink:href="#DejaVuSans-86"/>
      <use x="312.611328" xlink:href="#DejaVuSans-97"/>
      <use x="373.890625" xlink:href="#DejaVuSans-108"/>
      <use x="401.673828" xlink:href="#DejaVuSans-105"/>
      <use x="429.457031" xlink:href="#DejaVuSans-100"/>
      <use x="492.933594" xlink:href="#DejaVuSans-97"/>
      <use x="554.212891" xlink:href="#DejaVuSans-116"/>
      <use x="593.421875" xlink:href="#DejaVuSans-105"/>
      <use x="621.205078" xlink:href="#DejaVuSans-111"/>
      <use x="682.386719" xlink:href="#DejaVuSans-110"/>
      <use x="745.765625" xlink:href="#DejaVuSans-32"/>
      <use x="777.552734" xlink:href="#DejaVuSans-65"/>
      <use x="844.210938" xlink:href="#DejaVuSans-99"/>
      <use x="899.191406" xlink:href="#DejaVuSans-99"/>
      <use x="954.171875" xlink:href="#DejaVuSans-117"/>
      <use x="1017.550781" xlink:href="#DejaVuSans-114"/>
      <use x="1058.664062" xlink:href="#DejaVuSans-97"/>
      <use x="1119.943359" xlink:href="#DejaVuSans-99"/>
      <use x="1174.923828" xlink:href="#DejaVuSans-121"/>
     </g>
    </g>
   </g>
  </g>
 </g>
 <defs>
  <clipPath id="p600b02cfe6">
   <rect height="287.56" width="400.5" x="51.75" y="27.96"/>
  </clipPath>
 </defs>
</svg>
