<?xml version="1.0" encoding="utf-8" standalone="no"?>
<!DOCTYPE svg PUBLIC "-//W3C//DTD SVG 1.1//EN"
  "http://www.w3.org/Graphics/SVG/1.1/DTD/svg11.dtd">
<!-- Created with matplotlib (https://matplotlib.org/) -->
<svg height="360pt" version="1.1" viewBox="0 0 504 360" width="504pt" xmlns="http://www.w3.org/2000/svg" xmlns:xlink="http://www.w3.org/1999/xlink">
 <defs>
  <style type="text/css">
*{stroke-linecap:butt;stroke-linejoin:round;}
  </style>
 </defs>
 <g id="figure_1">
  <g id="patch_1">
   <path d="M 0 360 
L 504 360 
L 504 0 
L 0 0 
z
" style="fill:#ffffff;"/>
  </g>
  <g id="axes_1">
   <g id="patch_2">
    <path d="M 47.81 318.04 
L 493.2 318.04 
L 493.2 25.44 
L 47.81 25.44 
z
" style="fill:#ffffff;"/>
   </g>
   <g id="matplotlib.axis_1">
    <g id="xtick_1">
     <g id="line2d_1">
      <defs>
       <path d="M 0 0 
L 0 3.5 
" id="mb274b713e6" style="stroke:#000000;stroke-width:0.8;"/>
      </defs>
      <g>
       <use style="stroke:#000000;stroke-width:0.8;" x="63.965101" xlink:href="#mb274b713e6" y="318.04"/>
      </g>
     </g>
     <g id="text_1">
      <!-- 0 -->
      <defs>
       <path d="M 31.78125 66.40625 
Q 24.171875 66.40625 20.328125 58.90625 
Q 16.5 51.421875 16.5 36.375 
Q 16.5 21.390625 20.328125 13.890625 
Q 24.171875 6.390625 31.78125 6.390625 
Q 39.453125 6.390625 43.28125 13.890625 
Q 47.125 21.390625 47.125 36.375 
Q 47.125 51.421875 43.28125 58.90625 
Q 39.453125 66.40625 31.78125 66.40625 
z
M 31.78125 74.21875 
Q 44.046875 74.21875 50.515625 64.515625 
Q 56.984375 54.828125 56.984375 36.375 
Q 56.984375 17.96875 50.515625 8.265625 
Q 44.046875 -1.421875 31.78125 -1.421875 
Q 19.53125 -1.421875 13.0625 8.265625 
Q 6.59375 17.96875 6.59375 36.375 
Q 6.59375 54.828125 13.0625 64.515625 
Q 19.53125 74.21875 31.78125 74.21875 
z
" id="DejaVuSans-48"/>
      </defs>
      <g transform="translate(60.783851 332.638438)scale(0.1 -0.1)">
       <use xlink:href="#DejaVuSans-48"/>
      </g>
     </g>
    </g>
    <g id="xtick_2">
     <g id="line2d_2">
      <g>
       <use style="stroke:#000000;stroke-width:0.8;" x="145.763081" xlink:href="#mb274b713e6" y="318.04"/>
      </g>
     </g>
     <g id="text_2">
      <!-- 20 -->
      <defs>
       <path d="M 19.1875 8.296875 
L 53.609375 8.296875 
L 53.609375 0 
L 7.328125 0 
L 7.328125 8.296875 
Q 12.9375 14.109375 22.625 23.890625 
Q 32.328125 33.6875 34.8125 36.53125 
Q 39.546875 41.84375 41.421875 45.53125 
Q 43.3125 49.21875 43.3125 52.78125 
Q 43.3125 58.59375 39.234375 62.25 
Q 35.15625 65.921875 28.609375 65.921875 
Q 23.96875 65.921875 18.8125 64.3125 
Q 13.671875 62.703125 7.8125 59.421875 
L 7.8125 69.390625 
Q 13.765625 71.78125 18.9375 73 
Q 24.125 74.21875 28.421875 74.21875 
Q 39.75 74.21875 46.484375 68.546875 
Q 53.21875 62.890625 53.21875 53.421875 
Q 53.21875 48.921875 51.53125 44.890625 
Q 49.859375 40.875 45.40625 35.40625 
Q 44.1875 33.984375 37.640625 27.21875 
Q 31.109375 20.453125 19.1875 8.296875 
z
" id="DejaVuSans-50"/>
      </defs>
      <g transform="translate(139.400581 332.638438)scale(0.1 -0.1)">
       <use xlink:href="#DejaVuSans-50"/>
       <use x="63.623047" xlink:href="#DejaVuSans-48"/>
      </g>
     </g>
    </g>
    <g id="xtick_3">
     <g id="line2d_3">
      <g>
       <use style="stroke:#000000;stroke-width:0.8;" x="227.561061" xlink:href="#mb274b713e6" y="318.04"/>
      </g>
     </g>
     <g id="text_3">
      <!-- 40 -->
      <defs>
       <path d="M 37.796875 64.3125 
L 12.890625 25.390625 
L 37.796875 25.390625 
z
M 35.203125 72.90625 
L 47.609375 72.90625 
L 47.609375 25.390625 
L 58.015625 25.390625 
L 58.015625 17.1875 
L 47.609375 17.1875 
L 47.609375 0 
L 37.796875 0 
L 37.796875 17.1875 
L 4.890625 17.1875 
L 4.890625 26.703125 
z
" id="DejaVuSans-52"/>
      </defs>
      <g transform="translate(221.198561 332.638438)scale(0.1 -0.1)">
       <use xlink:href="#DejaVuSans-52"/>
       <use x="63.623047" xlink:href="#DejaVuSans-48"/>
      </g>
     </g>
    </g>
    <g id="xtick_4">
     <g id="line2d_4">
      <g>
       <use style="stroke:#000000;stroke-width:0.8;" x="309.35904" xlink:href="#mb274b713e6" y="318.04"/>
      </g>
     </g>
     <g id="text_4">
      <!-- 60 -->
      <defs>
       <path d="M 33.015625 40.375 
Q 26.375 40.375 22.484375 35.828125 
Q 18.609375 31.296875 18.609375 23.390625 
Q 18.609375 15.53125 22.484375 10.953125 
Q 26.375 6.390625 33.015625 6.390625 
Q 39.65625 6.390625 43.53125 10.953125 
Q 47.40625 15.53125 47.40625 23.390625 
Q 47.40625 31.296875 43.53125 35.828125 
Q 39.65625 40.375 33.015625 40.375 
z
M 52.59375 71.296875 
L 52.59375 62.3125 
Q 48.875 64.0625 45.09375 64.984375 
Q 41.3125 65.921875 37.59375 65.921875 
Q 27.828125 65.921875 22.671875 59.328125 
Q 17.53125 52.734375 16.796875 39.40625 
Q 19.671875 43.65625 24.015625 45.921875 
Q 28.375 48.1875 33.59375 48.1875 
Q 44.578125 48.1875 50.953125 41.515625 
Q 57.328125 34.859375 57.328125 23.390625 
Q 57.328125 12.15625 50.6875 5.359375 
Q 44.046875 -1.421875 33.015625 -1.421875 
Q 20.359375 -1.421875 13.671875 8.265625 
Q 6.984375 17.96875 6.984375 36.375 
Q 6.984375 53.65625 15.1875 63.9375 
Q 23.390625 74.21875 37.203125 74.21875 
Q 40.921875 74.21875 44.703125 73.484375 
Q 48.484375 72.75 52.59375 71.296875 
z
" id="DejaVuSans-54"/>
      </defs>
      <g transform="translate(302.99654 332.638438)scale(0.1 -0.1)">
       <use xlink:href="#DejaVuSans-54"/>
       <use x="63.623047" xlink:href="#DejaVuSans-48"/>
      </g>
     </g>
    </g>
    <g id="xtick_5">
     <g id="line2d_5">
      <g>
       <use style="stroke:#000000;stroke-width:0.8;" x="391.15702" xlink:href="#mb274b713e6" y="318.04"/>
      </g>
     </g>
     <g id="text_5">
      <!-- 80 -->
      <defs>
       <path d="M 31.78125 34.625 
Q 24.75 34.625 20.71875 30.859375 
Q 16.703125 27.09375 16.703125 20.515625 
Q 16.703125 13.921875 20.71875 10.15625 
Q 24.75 6.390625 31.78125 6.390625 
Q 38.8125 6.390625 42.859375 10.171875 
Q 46.921875 13.96875 46.921875 20.515625 
Q 46.921875 27.09375 42.890625 30.859375 
Q 38.875 34.625 31.78125 34.625 
z
M 21.921875 38.8125 
Q 15.578125 40.375 12.03125 44.71875 
Q 8.5 49.078125 8.5 55.328125 
Q 8.5 64.0625 14.71875 69.140625 
Q 20.953125 74.21875 31.78125 74.21875 
Q 42.671875 74.21875 48.875 69.140625 
Q 55.078125 64.0625 55.078125 55.328125 
Q 55.078125 49.078125 51.53125 44.71875 
Q 48 40.375 41.703125 38.8125 
Q 48.828125 37.15625 52.796875 32.3125 
Q 56.78125 27.484375 56.78125 20.515625 
Q 56.78125 9.90625 50.3125 4.234375 
Q 43.84375 -1.421875 31.78125 -1.421875 
Q 19.734375 -1.421875 13.25 4.234375 
Q 6.78125 9.90625 6.78125 20.515625 
Q 6.78125 27.484375 10.78125 32.3125 
Q 14.796875 37.15625 21.921875 38.8125 
z
M 18.3125 54.390625 
Q 18.3125 48.734375 21.84375 45.5625 
Q 25.390625 42.390625 31.78125 42.390625 
Q 38.140625 42.390625 41.71875 45.5625 
Q 45.3125 48.734375 45.3125 54.390625 
Q 45.3125 60.0625 41.71875 63.234375 
Q 38.140625 66.40625 31.78125 66.40625 
Q 25.390625 66.40625 21.84375 63.234375 
Q 18.3125 60.0625 18.3125 54.390625 
z
" id="DejaVuSans-56"/>
      </defs>
      <g transform="translate(384.79452 332.638438)scale(0.1 -0.1)">
       <use xlink:href="#DejaVuSans-56"/>
       <use x="63.623047" xlink:href="#DejaVuSans-48"/>
      </g>
     </g>
    </g>
    <g id="xtick_6">
     <g id="line2d_6">
      <g>
       <use style="stroke:#000000;stroke-width:0.8;" x="472.955" xlink:href="#mb274b713e6" y="318.04"/>
      </g>
     </g>
     <g id="text_6">
      <!-- 100 -->
      <defs>
       <path d="M 12.40625 8.296875 
L 28.515625 8.296875 
L 28.515625 63.921875 
L 10.984375 60.40625 
L 10.984375 69.390625 
L 28.421875 72.90625 
L 38.28125 72.90625 
L 38.28125 8.296875 
L 54.390625 8.296875 
L 54.390625 0 
L 12.40625 0 
z
" id="DejaVuSans-49"/>
      </defs>
      <g transform="translate(463.41125 332.638438)scale(0.1 -0.1)">
       <use xlink:href="#DejaVuSans-49"/>
       <use x="63.623047" xlink:href="#DejaVuSans-48"/>
       <use x="127.246094" xlink:href="#DejaVuSans-48"/>
      </g>
     </g>
    </g>
    <g id="text_7">
     <!-- LSTM Epochs -->
     <defs>
      <path d="M 9.8125 72.90625 
L 19.671875 72.90625 
L 19.671875 8.296875 
L 55.171875 8.296875 
L 55.171875 0 
L 9.8125 0 
z
" id="DejaVuSans-76"/>
      <path d="M 53.515625 70.515625 
L 53.515625 60.890625 
Q 47.90625 63.578125 42.921875 64.890625 
Q 37.9375 66.21875 33.296875 66.21875 
Q 25.25 66.21875 20.875 63.09375 
Q 16.5 59.96875 16.5 54.203125 
Q 16.5 49.359375 19.40625 46.890625 
Q 22.3125 44.4375 30.421875 42.921875 
L 36.375 41.703125 
Q 47.40625 39.59375 52.65625 34.296875 
Q 57.90625 29 57.90625 20.125 
Q 57.90625 9.515625 50.796875 4.046875 
Q 43.703125 -1.421875 29.984375 -1.421875 
Q 24.8125 -1.421875 18.96875 -0.25 
Q 13.140625 0.921875 6.890625 3.21875 
L 6.890625 13.375 
Q 12.890625 10.015625 18.65625 8.296875 
Q 24.421875 6.59375 29.984375 6.59375 
Q 38.421875 6.59375 43.015625 9.90625 
Q 47.609375 13.234375 47.609375 19.390625 
Q 47.609375 24.75 44.3125 27.78125 
Q 41.015625 30.8125 33.5 32.328125 
L 27.484375 33.5 
Q 16.453125 35.6875 11.515625 40.375 
Q 6.59375 45.0625 6.59375 53.421875 
Q 6.59375 63.09375 13.40625 68.65625 
Q 20.21875 74.21875 32.171875 74.21875 
Q 37.3125 74.21875 42.625 73.28125 
Q 47.953125 72.359375 53.515625 70.515625 
z
" id="DejaVuSans-83"/>
      <path d="M -0.296875 72.90625 
L 61.375 72.90625 
L 61.375 64.59375 
L 35.5 64.59375 
L 35.5 0 
L 25.59375 0 
L 25.59375 64.59375 
L -0.296875 64.59375 
z
" id="DejaVuSans-84"/>
      <path d="M 9.8125 72.90625 
L 24.515625 72.90625 
L 43.109375 23.296875 
L 61.8125 72.90625 
L 76.515625 72.90625 
L 76.515625 0 
L 66.890625 0 
L 66.890625 64.015625 
L 48.09375 14.015625 
L 38.1875 14.015625 
L 19.390625 64.015625 
L 19.390625 0 
L 9.8125 0 
z
" id="DejaVuSans-77"/>
      <path id="DejaVuSans-32"/>
      <path d="M 9.8125 72.90625 
L 55.90625 72.90625 
L 55.90625 64.59375 
L 19.671875 64.59375 
L 19.671875 43.015625 
L 54.390625 43.015625 
L 54.390625 34.71875 
L 19.671875 34.71875 
L 19.671875 8.296875 
L 56.78125 8.296875 
L 56.78125 0 
L 9.8125 0 
z
" id="DejaVuSans-69"/>
      <path d="M 18.109375 8.203125 
L 18.109375 -20.796875 
L 9.078125 -20.796875 
L 9.078125 54.6875 
L 18.109375 54.6875 
L 18.109375 46.390625 
Q 20.953125 51.265625 25.265625 53.625 
Q 29.59375 56 35.59375 56 
Q 45.5625 56 51.78125 48.09375 
Q 58.015625 40.1875 58.015625 27.296875 
Q 58.015625 14.40625 51.78125 6.484375 
Q 45.5625 -1.421875 35.59375 -1.421875 
Q 29.59375 -1.421875 25.265625 0.953125 
Q 20.953125 3.328125 18.109375 8.203125 
z
M 48.6875 27.296875 
Q 48.6875 37.203125 44.609375 42.84375 
Q 40.53125 48.484375 33.40625 48.484375 
Q 26.265625 48.484375 22.1875 42.84375 
Q 18.109375 37.203125 18.109375 27.296875 
Q 18.109375 17.390625 22.1875 11.75 
Q 26.265625 6.109375 33.40625 6.109375 
Q 40.53125 6.109375 44.609375 11.75 
Q 48.6875 17.390625 48.6875 27.296875 
z
" id="DejaVuSans-112"/>
      <path d="M 30.609375 48.390625 
Q 23.390625 48.390625 19.1875 42.75 
Q 14.984375 37.109375 14.984375 27.296875 
Q 14.984375 17.484375 19.15625 11.84375 
Q 23.34375 6.203125 30.609375 6.203125 
Q 37.796875 6.203125 41.984375 11.859375 
Q 46.1875 17.53125 46.1875 27.296875 
Q 46.1875 37.015625 41.984375 42.703125 
Q 37.796875 48.390625 30.609375 48.390625 
z
M 30.609375 56 
Q 42.328125 56 49.015625 48.375 
Q 55.71875 40.765625 55.71875 27.296875 
Q 55.71875 13.875 49.015625 6.21875 
Q 42.328125 -1.421875 30.609375 -1.421875 
Q 18.84375 -1.421875 12.171875 6.21875 
Q 5.515625 13.875 5.515625 27.296875 
Q 5.515625 40.765625 12.171875 48.375 
Q 18.84375 56 30.609375 56 
z
" id="DejaVuSans-111"/>
      <path d="M 48.78125 52.59375 
L 48.78125 44.1875 
Q 44.96875 46.296875 41.140625 47.34375 
Q 37.3125 48.390625 33.40625 48.390625 
Q 24.65625 48.390625 19.8125 42.84375 
Q 14.984375 37.3125 14.984375 27.296875 
Q 14.984375 17.28125 19.8125 11.734375 
Q 24.65625 6.203125 33.40625 6.203125 
Q 37.3125 6.203125 41.140625 7.25 
Q 44.96875 8.296875 48.78125 10.40625 
L 48.78125 2.09375 
Q 45.015625 0.34375 40.984375 -0.53125 
Q 36.96875 -1.421875 32.421875 -1.421875 
Q 20.0625 -1.421875 12.78125 6.34375 
Q 5.515625 14.109375 5.515625 27.296875 
Q 5.515625 40.671875 12.859375 48.328125 
Q 20.21875 56 33.015625 56 
Q 37.15625 56 41.109375 55.140625 
Q 45.0625 54.296875 48.78125 52.59375 
z
" id="DejaVuSans-99"/>
      <path d="M 54.890625 33.015625 
L 54.890625 0 
L 45.90625 0 
L 45.90625 32.71875 
Q 45.90625 40.484375 42.875 44.328125 
Q 39.84375 48.1875 33.796875 48.1875 
Q 26.515625 48.1875 22.3125 43.546875 
Q 18.109375 38.921875 18.109375 30.90625 
L 18.109375 0 
L 9.078125 0 
L 9.078125 75.984375 
L 18.109375 75.984375 
L 18.109375 46.1875 
Q 21.34375 51.125 25.703125 53.5625 
Q 30.078125 56 35.796875 56 
Q 45.21875 56 50.046875 50.171875 
Q 54.890625 44.34375 54.890625 33.015625 
z
" id="DejaVuSans-104"/>
      <path d="M 44.28125 53.078125 
L 44.28125 44.578125 
Q 40.484375 46.53125 36.375 47.5 
Q 32.28125 48.484375 27.875 48.484375 
Q 21.1875 48.484375 17.84375 46.4375 
Q 14.5 44.390625 14.5 40.28125 
Q 14.5 37.15625 16.890625 35.375 
Q 19.28125 33.59375 26.515625 31.984375 
L 29.59375 31.296875 
Q 39.15625 29.25 43.1875 25.515625 
Q 47.21875 21.78125 47.21875 15.09375 
Q 47.21875 7.46875 41.1875 3.015625 
Q 35.15625 -1.421875 24.609375 -1.421875 
Q 20.21875 -1.421875 15.453125 -0.5625 
Q 10.6875 0.296875 5.421875 2 
L 5.421875 11.28125 
Q 10.40625 8.6875 15.234375 7.390625 
Q 20.0625 6.109375 24.8125 6.109375 
Q 31.15625 6.109375 34.5625 8.28125 
Q 37.984375 10.453125 37.984375 14.40625 
Q 37.984375 18.0625 35.515625 20.015625 
Q 33.0625 21.96875 24.703125 23.78125 
L 21.578125 24.515625 
Q 13.234375 26.265625 9.515625 29.90625 
Q 5.8125 33.546875 5.8125 39.890625 
Q 5.8125 47.609375 11.28125 51.796875 
Q 16.75 56 26.8125 56 
Q 31.78125 56 36.171875 55.265625 
Q 40.578125 54.546875 44.28125 53.078125 
z
" id="DejaVuSans-115"/>
     </defs>
     <g transform="translate(237.672188 346.316563)scale(0.1 -0.1)">
      <use xlink:href="#DejaVuSans-76"/>
      <use x="55.712891" xlink:href="#DejaVuSans-83"/>
      <use x="119.189453" xlink:href="#DejaVuSans-84"/>
      <use x="180.273438" xlink:href="#DejaVuSans-77"/>
      <use x="266.552734" xlink:href="#DejaVuSans-32"/>
      <use x="298.339844" xlink:href="#DejaVuSans-69"/>
      <use x="361.523438" xlink:href="#DejaVuSans-112"/>
      <use x="425" xlink:href="#DejaVuSans-111"/>
      <use x="486.181641" xlink:href="#DejaVuSans-99"/>
      <use x="541.162109" xlink:href="#DejaVuSans-104"/>
      <use x="604.541016" xlink:href="#DejaVuSans-115"/>
     </g>
    </g>
   </g>
   <g id="matplotlib.axis_2">
    <g id="ytick_1">
     <g id="line2d_7">
      <defs>
       <path d="M 0 0 
L -3.5 0 
" id="maf057a2662" style="stroke:#000000;stroke-width:0.8;"/>
      </defs>
      <g>
       <use style="stroke:#000000;stroke-width:0.8;" x="47.81" xlink:href="#maf057a2662" y="285.942201"/>
      </g>
     </g>
     <g id="text_8">
      <!-- 0.4 -->
      <defs>
       <path d="M 10.6875 12.40625 
L 21 12.40625 
L 21 0 
L 10.6875 0 
z
" id="DejaVuSans-46"/>
      </defs>
      <g transform="translate(24.906875 289.741419)scale(0.1 -0.1)">
       <use xlink:href="#DejaVuSans-48"/>
       <use x="63.623047" xlink:href="#DejaVuSans-46"/>
       <use x="95.410156" xlink:href="#DejaVuSans-52"/>
      </g>
     </g>
    </g>
    <g id="ytick_2">
     <g id="line2d_8">
      <g>
       <use style="stroke:#000000;stroke-width:0.8;" x="47.81" xlink:href="#maf057a2662" y="250.072931"/>
      </g>
     </g>
     <g id="text_9">
      <!-- 0.5 -->
      <defs>
       <path d="M 10.796875 72.90625 
L 49.515625 72.90625 
L 49.515625 64.59375 
L 19.828125 64.59375 
L 19.828125 46.734375 
Q 21.96875 47.46875 24.109375 47.828125 
Q 26.265625 48.1875 28.421875 48.1875 
Q 40.625 48.1875 47.75 41.5 
Q 54.890625 34.8125 54.890625 23.390625 
Q 54.890625 11.625 47.5625 5.09375 
Q 40.234375 -1.421875 26.90625 -1.421875 
Q 22.3125 -1.421875 17.546875 -0.640625 
Q 12.796875 0.140625 7.71875 1.703125 
L 7.71875 11.625 
Q 12.109375 9.234375 16.796875 8.0625 
Q 21.484375 6.890625 26.703125 6.890625 
Q 35.15625 6.890625 40.078125 11.328125 
Q 45.015625 15.765625 45.015625 23.390625 
Q 45.015625 31 40.078125 35.4375 
Q 35.15625 39.890625 26.703125 39.890625 
Q 22.75 39.890625 18.8125 39.015625 
Q 14.890625 38.140625 10.796875 36.28125 
z
" id="DejaVuSans-53"/>
      </defs>
      <g transform="translate(24.906875 253.872149)scale(0.1 -0.1)">
       <use xlink:href="#DejaVuSans-48"/>
       <use x="63.623047" xlink:href="#DejaVuSans-46"/>
       <use x="95.410156" xlink:href="#DejaVuSans-53"/>
      </g>
     </g>
    </g>
    <g id="ytick_3">
     <g id="line2d_9">
      <g>
       <use style="stroke:#000000;stroke-width:0.8;" x="47.81" xlink:href="#maf057a2662" y="214.203661"/>
      </g>
     </g>
     <g id="text_10">
      <!-- 0.6 -->
      <g transform="translate(24.906875 218.002879)scale(0.1 -0.1)">
       <use xlink:href="#DejaVuSans-48"/>
       <use x="63.623047" xlink:href="#DejaVuSans-46"/>
       <use x="95.410156" xlink:href="#DejaVuSans-54"/>
      </g>
     </g>
    </g>
    <g id="ytick_4">
     <g id="line2d_10">
      <g>
       <use style="stroke:#000000;stroke-width:0.8;" x="47.81" xlink:href="#maf057a2662" y="178.334391"/>
      </g>
     </g>
     <g id="text_11">
      <!-- 0.7 -->
      <defs>
       <path d="M 8.203125 72.90625 
L 55.078125 72.90625 
L 55.078125 68.703125 
L 28.609375 0 
L 18.3125 0 
L 43.21875 64.59375 
L 8.203125 64.59375 
z
" id="DejaVuSans-55"/>
      </defs>
      <g transform="translate(24.906875 182.133609)scale(0.1 -0.1)">
       <use xlink:href="#DejaVuSans-48"/>
       <use x="63.623047" xlink:href="#DejaVuSans-46"/>
       <use x="95.410156" xlink:href="#DejaVuSans-55"/>
      </g>
     </g>
    </g>
    <g id="ytick_5">
     <g id="line2d_11">
      <g>
       <use style="stroke:#000000;stroke-width:0.8;" x="47.81" xlink:href="#maf057a2662" y="142.465121"/>
      </g>
     </g>
     <g id="text_12">
      <!-- 0.8 -->
      <g transform="translate(24.906875 146.264339)scale(0.1 -0.1)">
       <use xlink:href="#DejaVuSans-48"/>
       <use x="63.623047" xlink:href="#DejaVuSans-46"/>
       <use x="95.410156" xlink:href="#DejaVuSans-56"/>
      </g>
     </g>
    </g>
    <g id="ytick_6">
     <g id="line2d_12">
      <g>
       <use style="stroke:#000000;stroke-width:0.8;" x="47.81" xlink:href="#maf057a2662" y="106.59585"/>
      </g>
     </g>
     <g id="text_13">
      <!-- 0.9 -->
      <defs>
       <path d="M 10.984375 1.515625 
L 10.984375 10.5 
Q 14.703125 8.734375 18.5 7.8125 
Q 22.3125 6.890625 25.984375 6.890625 
Q 35.75 6.890625 40.890625 13.453125 
Q 46.046875 20.015625 46.78125 33.40625 
Q 43.953125 29.203125 39.59375 26.953125 
Q 35.25 24.703125 29.984375 24.703125 
Q 19.046875 24.703125 12.671875 31.3125 
Q 6.296875 37.9375 6.296875 49.421875 
Q 6.296875 60.640625 12.9375 67.421875 
Q 19.578125 74.21875 30.609375 74.21875 
Q 43.265625 74.21875 49.921875 64.515625 
Q 56.59375 54.828125 56.59375 36.375 
Q 56.59375 19.140625 48.40625 8.859375 
Q 40.234375 -1.421875 26.421875 -1.421875 
Q 22.703125 -1.421875 18.890625 -0.6875 
Q 15.09375 0.046875 10.984375 1.515625 
z
M 30.609375 32.421875 
Q 37.25 32.421875 41.125 36.953125 
Q 45.015625 41.5 45.015625 49.421875 
Q 45.015625 57.28125 41.125 61.84375 
Q 37.25 66.40625 30.609375 66.40625 
Q 23.96875 66.40625 20.09375 61.84375 
Q 16.21875 57.28125 16.21875 49.421875 
Q 16.21875 41.5 20.09375 36.953125 
Q 23.96875 32.421875 30.609375 32.421875 
z
" id="DejaVuSans-57"/>
      </defs>
      <g transform="translate(24.906875 110.395069)scale(0.1 -0.1)">
       <use xlink:href="#DejaVuSans-48"/>
       <use x="63.623047" xlink:href="#DejaVuSans-46"/>
       <use x="95.410156" xlink:href="#DejaVuSans-57"/>
      </g>
     </g>
    </g>
    <g id="ytick_7">
     <g id="line2d_13">
      <g>
       <use style="stroke:#000000;stroke-width:0.8;" x="47.81" xlink:href="#maf057a2662" y="70.72658"/>
      </g>
     </g>
     <g id="text_14">
      <!-- 1.0 -->
      <g transform="translate(24.906875 74.525799)scale(0.1 -0.1)">
       <use xlink:href="#DejaVuSans-49"/>
       <use x="63.623047" xlink:href="#DejaVuSans-46"/>
       <use x="95.410156" xlink:href="#DejaVuSans-48"/>
      </g>
     </g>
    </g>
    <g id="ytick_8">
     <g id="line2d_14">
      <g>
       <use style="stroke:#000000;stroke-width:0.8;" x="47.81" xlink:href="#maf057a2662" y="34.85731"/>
      </g>
     </g>
     <g id="text_15">
      <!-- 1.1 -->
      <g transform="translate(24.906875 38.656529)scale(0.1 -0.1)">
       <use xlink:href="#DejaVuSans-49"/>
       <use x="63.623047" xlink:href="#DejaVuSans-46"/>
       <use x="95.410156" xlink:href="#DejaVuSans-49"/>
      </g>
     </g>
    </g>
    <g id="text_16">
     <!-- LSTM Loss and Accuracy -->
     <defs>
      <path d="M 34.28125 27.484375 
Q 23.390625 27.484375 19.1875 25 
Q 14.984375 22.515625 14.984375 16.5 
Q 14.984375 11.71875 18.140625 8.90625 
Q 21.296875 6.109375 26.703125 6.109375 
Q 34.1875 6.109375 38.703125 11.40625 
Q 43.21875 16.703125 43.21875 25.484375 
L 43.21875 27.484375 
z
M 52.203125 31.203125 
L 52.203125 0 
L 43.21875 0 
L 43.21875 8.296875 
Q 40.140625 3.328125 35.546875 0.953125 
Q 30.953125 -1.421875 24.3125 -1.421875 
Q 15.921875 -1.421875 10.953125 3.296875 
Q 6 8.015625 6 15.921875 
Q 6 25.140625 12.171875 29.828125 
Q 18.359375 34.515625 30.609375 34.515625 
L 43.21875 34.515625 
L 43.21875 35.40625 
Q 43.21875 41.609375 39.140625 45 
Q 35.0625 48.390625 27.6875 48.390625 
Q 23 48.390625 18.546875 47.265625 
Q 14.109375 46.140625 10.015625 43.890625 
L 10.015625 52.203125 
Q 14.9375 54.109375 19.578125 55.046875 
Q 24.21875 56 28.609375 56 
Q 40.484375 56 46.34375 49.84375 
Q 52.203125 43.703125 52.203125 31.203125 
z
" id="DejaVuSans-97"/>
      <path d="M 54.890625 33.015625 
L 54.890625 0 
L 45.90625 0 
L 45.90625 32.71875 
Q 45.90625 40.484375 42.875 44.328125 
Q 39.84375 48.1875 33.796875 48.1875 
Q 26.515625 48.1875 22.3125 43.546875 
Q 18.109375 38.921875 18.109375 30.90625 
L 18.109375 0 
L 9.078125 0 
L 9.078125 54.6875 
L 18.109375 54.6875 
L 18.109375 46.1875 
Q 21.34375 51.125 25.703125 53.5625 
Q 30.078125 56 35.796875 56 
Q 45.21875 56 50.046875 50.171875 
Q 54.890625 44.34375 54.890625 33.015625 
z
" id="DejaVuSans-110"/>
      <path d="M 45.40625 46.390625 
L 45.40625 75.984375 
L 54.390625 75.984375 
L 54.390625 0 
L 45.40625 0 
L 45.40625 8.203125 
Q 42.578125 3.328125 38.25 0.953125 
Q 33.9375 -1.421875 27.875 -1.421875 
Q 17.96875 -1.421875 11.734375 6.484375 
Q 5.515625 14.40625 5.515625 27.296875 
Q 5.515625 40.1875 11.734375 48.09375 
Q 17.96875 56 27.875 56 
Q 33.9375 56 38.25 53.625 
Q 42.578125 51.265625 45.40625 46.390625 
z
M 14.796875 27.296875 
Q 14.796875 17.390625 18.875 11.75 
Q 22.953125 6.109375 30.078125 6.109375 
Q 37.203125 6.109375 41.296875 11.75 
Q 45.40625 17.390625 45.40625 27.296875 
Q 45.40625 37.203125 41.296875 42.84375 
Q 37.203125 48.484375 30.078125 48.484375 
Q 22.953125 48.484375 18.875 42.84375 
Q 14.796875 37.203125 14.796875 27.296875 
z
" id="DejaVuSans-100"/>
      <path d="M 34.1875 63.1875 
L 20.796875 26.90625 
L 47.609375 26.90625 
z
M 28.609375 72.90625 
L 39.796875 72.90625 
L 67.578125 0 
L 57.328125 0 
L 50.6875 18.703125 
L 17.828125 18.703125 
L 11.1875 0 
L 0.78125 0 
z
" id="DejaVuSans-65"/>
      <path d="M 8.5 21.578125 
L 8.5 54.6875 
L 17.484375 54.6875 
L 17.484375 21.921875 
Q 17.484375 14.15625 20.5 10.265625 
Q 23.53125 6.390625 29.59375 6.390625 
Q 36.859375 6.390625 41.078125 11.03125 
Q 45.3125 15.671875 45.3125 23.6875 
L 45.3125 54.6875 
L 54.296875 54.6875 
L 54.296875 0 
L 45.3125 0 
L 45.3125 8.40625 
Q 42.046875 3.421875 37.71875 1 
Q 33.40625 -1.421875 27.6875 -1.421875 
Q 18.265625 -1.421875 13.375 4.4375 
Q 8.5 10.296875 8.5 21.578125 
z
M 31.109375 56 
z
" id="DejaVuSans-117"/>
      <path d="M 41.109375 46.296875 
Q 39.59375 47.171875 37.8125 47.578125 
Q 36.03125 48 33.890625 48 
Q 26.265625 48 22.1875 43.046875 
Q 18.109375 38.09375 18.109375 28.8125 
L 18.109375 0 
L 9.078125 0 
L 9.078125 54.6875 
L 18.109375 54.6875 
L 18.109375 46.1875 
Q 20.953125 51.171875 25.484375 53.578125 
Q 30.03125 56 36.53125 56 
Q 37.453125 56 38.578125 55.875 
Q 39.703125 55.765625 41.0625 55.515625 
z
" id="DejaVuSans-114"/>
      <path d="M 32.171875 -5.078125 
Q 28.375 -14.84375 24.75 -17.8125 
Q 21.140625 -20.796875 15.09375 -20.796875 
L 7.90625 -20.796875 
L 7.90625 -13.28125 
L 13.1875 -13.28125 
Q 16.890625 -13.28125 18.9375 -11.515625 
Q 21 -9.765625 23.484375 -3.21875 
L 25.09375 0.875 
L 2.984375 54.6875 
L 12.5 54.6875 
L 29.59375 11.921875 
L 46.6875 54.6875 
L 56.203125 54.6875 
z
" id="DejaVuSans-121"/>
     </defs>
     <g transform="translate(18.827188 233.037656)rotate(-90)scale(0.1 -0.1)">
      <use xlink:href="#DejaVuSans-76"/>
      <use x="55.712891" xlink:href="#DejaVuSans-83"/>
      <use x="119.189453" xlink:href="#DejaVuSans-84"/>
      <use x="180.273438" xlink:href="#DejaVuSans-77"/>
      <use x="266.552734" xlink:href="#DejaVuSans-32"/>
      <use x="298.339844" xlink:href="#DejaVuSans-76"/>
      <use x="352.302734" xlink:href="#DejaVuSans-111"/>
      <use x="413.484375" xlink:href="#DejaVuSans-115"/>
      <use x="465.583984" xlink:href="#DejaVuSans-115"/>
      <use x="517.683594" xlink:href="#DejaVuSans-32"/>
      <use x="549.470703" xlink:href="#DejaVuSans-97"/>
      <use x="610.75" xlink:href="#DejaVuSans-110"/>
      <use x="674.128906" xlink:href="#DejaVuSans-100"/>
      <use x="737.605469" xlink:href="#DejaVuSans-32"/>
      <use x="769.392578" xlink:href="#DejaVuSans-65"/>
      <use x="836.050781" xlink:href="#DejaVuSans-99"/>
      <use x="891.03125" xlink:href="#DejaVuSans-99"/>
      <use x="946.011719" xlink:href="#DejaVuSans-117"/>
      <use x="1009.390625" xlink:href="#DejaVuSans-114"/>
      <use x="1050.503906" xlink:href="#DejaVuSans-97"/>
      <use x="1111.783203" xlink:href="#DejaVuSans-99"/>
      <use x="1166.763672" xlink:href="#DejaVuSans-121"/>
     </g>
    </g>
   </g>
   <g id="line2d_15">
    <path clip-path="url(#pb102ceb752)" d="M 68.055 38.74 
L 72.144899 52.306115 
L 76.234798 66.870422 
L 80.324697 94.206033 
L 84.414596 147.863086 
L 88.504495 150.985923 
L 92.594394 159.154998 
L 96.684293 97.543316 
L 100.774192 127.46834 
L 104.864091 188.102682 
L 108.95399 184.747779 
L 113.043889 196.80532 
L 117.133788 197.249178 
L 121.223687 200.153086 
L 125.313586 208.513107 
L 129.403485 212.396728 
L 133.493384 216.067852 
L 137.583283 215.402372 
L 141.673182 220.996337 
L 145.763081 221.501135 
L 149.85298 219.240276 
L 153.942879 207.861117 
L 158.032778 207.719377 
L 162.122677 213.640998 
L 166.212576 213.961961 
L 170.302475 215.865283 
L 174.392374 221.13238 
L 178.482273 221.144567 
L 182.572172 224.02954 
L 186.662071 220.521807 
L 190.75197 224.038184 
L 194.841869 223.902006 
L 198.931768 225.737607 
L 203.021667 228.728175 
L 207.111566 229.63794 
L 211.201465 230.438708 
L 215.291364 230.920119 
L 219.381263 231.030763 
L 223.471162 231.179221 
L 227.561061 231.225098 
L 231.65096 231.303141 
L 235.740859 231.325522 
L 239.830758 231.36123 
L 243.920657 231.36897 
L 248.010556 231.373007 
L 252.100455 231.403772 
L 256.190354 231.37667 
L 260.280253 231.419714 
L 264.370152 231.435379 
L 268.460051 231.450106 
L 272.549949 231.452219 
L 276.639848 231.455354 
L 280.729747 231.463183 
L 284.819646 231.474899 
L 288.909545 231.479485 
L 292.999444 231.486088 
L 297.089343 231.490268 
L 301.179242 231.495716 
L 305.269141 231.497665 
L 309.35904 231.503637 
L 313.448939 231.507753 
L 317.538838 231.50498 
L 321.628737 231.513721 
L 325.718636 231.51433 
L 329.808535 231.518385 
L 333.898434 231.520057 
L 337.988333 231.522316 
L 342.078232 231.526734 
L 346.168131 231.525231 
L 350.25803 231.523777 
L 354.347929 231.533138 
L 358.437828 231.532265 
L 362.527727 231.534331 
L 366.617626 231.535222 
L 370.707525 231.531231 
L 374.797424 231.542776 
L 378.887323 231.539391 
L 382.977222 231.546179 
L 387.067121 231.544594 
L 391.15702 231.549625 
L 395.246919 231.547565 
L 399.336818 231.546129 
L 403.426717 231.550548 
L 407.516616 231.554332 
L 411.606515 231.555333 
L 415.696414 231.556933 
L 419.786313 231.556609 
L 423.876212 231.558669 
L 427.966111 231.559189 
L 432.05601 231.561145 
L 436.145909 231.56117 
L 440.235808 231.561177 
L 444.325707 231.562161 
L 448.415606 231.564163 
L 452.505505 231.562563 
L 456.595404 231.565075 
L 460.685303 231.563233 
L 464.775202 231.569458 
L 468.865101 231.570078 
L 472.955 231.570744 
" style="fill:none;stroke:#1f77b4;stroke-dasharray:5.55,2.4;stroke-dashoffset:0;stroke-width:1.5;"/>
   </g>
   <g id="line2d_16">
    <path clip-path="url(#pb102ceb752)" d="M 68.055 45.323139 
L 72.144899 53.855904 
L 76.234798 66.532408 
L 80.324697 115.624635 
L 84.414596 134.888528 
L 88.504495 160.245907 
L 92.594394 92.516235 
L 96.684293 73.908572 
L 100.774192 167.126777 
L 104.864091 167.114077 
L 108.95399 166.07469 
L 113.043889 184.998036 
L 117.133788 181.054166 
L 121.223687 169.975212 
L 125.313586 177.357586 
L 129.403485 182.832833 
L 133.493384 184.238723 
L 137.583283 181.910821 
L 141.673182 182.087065 
L 145.763081 176.963739 
L 149.85298 174.301212 
L 153.942879 130.579086 
L 158.032778 182.187999 
L 162.122677 171.177513 
L 166.212576 173.683123 
L 170.302475 179.713945 
L 174.392374 185.458855 
L 178.482273 188.503652 
L 182.572172 190.353268 
L 186.662071 186.869844 
L 190.75197 185.081449 
L 194.841869 167.902819 
L 198.931768 185.311559 
L 203.021667 182.133363 
L 207.111566 180.549508 
L 211.201465 178.884143 
L 215.291364 176.119527 
L 219.381263 174.180213 
L 223.471162 173.70632 
L 227.561061 173.525469 
L 231.65096 173.463767 
L 235.740859 173.308956 
L 239.830758 173.09564 
L 243.920657 172.783666 
L 248.010556 172.522513 
L 252.100455 172.403481 
L 256.190354 172.327593 
L 260.280253 172.129115 
L 264.370152 172.028982 
L 268.460051 172.011825 
L 272.549949 171.995555 
L 276.639848 171.974603 
L 280.729747 171.930123 
L 284.819646 171.92977 
L 288.909545 171.919764 
L 292.999444 171.911715 
L 297.089343 171.937017 
L 301.179242 171.981231 
L 305.269141 172.081138 
L 309.35904 172.201923 
L 313.448939 172.406592 
L 317.538838 172.692888 
L 321.628737 173.438197 
L 325.718636 175.011319 
L 329.808535 175.669933 
L 333.898434 176.105994 
L 337.988333 176.170817 
L 342.078232 176.191449 
L 346.168131 176.182918 
L 350.25803 176.16915 
L 354.347929 176.185997 
L 358.437828 176.168615 
L 362.527727 176.175436 
L 366.617626 176.146199 
L 370.707525 176.10391 
L 374.797424 176.036072 
L 378.887323 176.010362 
L 382.977222 175.990084 
L 387.067121 176.02071 
L 391.15702 176.028621 
L 395.246919 176.036788 
L 399.336818 175.992115 
L 403.426717 175.978282 
L 407.516616 176.004975 
L 411.606515 176.01095 
L 415.696414 176.009037 
L 419.786313 175.993676 
L 423.876212 176.004857 
L 427.966111 176.022389 
L 432.05601 176.008011 
L 436.145909 175.991334 
L 440.235808 176.011966 
L 444.325707 176.0032 
L 448.415606 176.023212 
L 452.505505 176.017867 
L 456.595404 176.038167 
L 460.685303 176.073999 
L 464.775202 176.122595 
L 468.865101 176.125888 
L 472.955 176.167878 
" style="fill:none;stroke:#ff7f0e;stroke-dasharray:5.55,2.4;stroke-dashoffset:0;stroke-width:1.5;"/>
   </g>
   <g id="line2d_17">
    <path clip-path="url(#pb102ceb752)" d="M 68.055 304.74 
L 72.144899 216.505432 
L 76.234798 243.359431 
L 80.324697 189.651433 
L 84.414596 124.434578 
L 88.504495 132.107149 
L 92.594394 118.68015 
L 96.684293 193.487719 
L 100.774192 178.142576 
L 104.864091 101.416865 
L 108.95399 103.335008 
L 113.043889 93.744294 
L 117.133788 99.498722 
L 121.223687 95.662437 
L 125.313586 87.989865 
L 129.403485 82.235437 
L 133.493384 80.317294 
L 137.583283 80.317294 
L 141.673182 78.399152 
L 145.763081 80.317294 
L 149.85298 84.15358 
L 153.942879 91.826151 
L 158.032778 93.744294 
L 162.122677 86.071723 
L 166.212576 84.15358 
L 170.302475 80.317294 
L 174.392374 78.399152 
L 178.482273 78.399152 
L 182.572172 76.481009 
L 186.662071 76.481009 
L 190.75197 78.399152 
L 194.841869 76.481009 
L 198.931768 72.644723 
L 203.021667 70.72658 
L 207.111566 70.72658 
L 211.201465 70.72658 
L 215.291364 70.72658 
L 219.381263 70.72658 
L 223.471162 70.72658 
L 227.561061 70.72658 
L 231.65096 70.72658 
L 235.740859 70.72658 
L 239.830758 70.72658 
L 243.920657 70.72658 
L 248.010556 70.72658 
L 252.100455 70.72658 
L 256.190354 70.72658 
L 260.280253 70.72658 
L 264.370152 70.72658 
L 268.460051 70.72658 
L 272.549949 70.72658 
L 276.639848 70.72658 
L 280.729747 70.72658 
L 284.819646 70.72658 
L 288.909545 70.72658 
L 292.999444 70.72658 
L 297.089343 70.72658 
L 301.179242 70.72658 
L 305.269141 70.72658 
L 309.35904 70.72658 
L 313.448939 70.72658 
L 317.538838 70.72658 
L 321.628737 70.72658 
L 325.718636 70.72658 
L 329.808535 70.72658 
L 333.898434 70.72658 
L 337.988333 70.72658 
L 342.078232 70.72658 
L 346.168131 70.72658 
L 350.25803 70.72658 
L 354.347929 70.72658 
L 358.437828 70.72658 
L 362.527727 70.72658 
L 366.617626 70.72658 
L 370.707525 70.72658 
L 374.797424 70.72658 
L 378.887323 70.72658 
L 382.977222 70.72658 
L 387.067121 70.72658 
L 391.15702 70.72658 
L 395.246919 70.72658 
L 399.336818 70.72658 
L 403.426717 70.72658 
L 407.516616 70.72658 
L 411.606515 70.72658 
L 415.696414 70.72658 
L 419.786313 70.72658 
L 423.876212 70.72658 
L 427.966111 70.72658 
L 432.05601 70.72658 
L 436.145909 70.72658 
L 440.235808 70.72658 
L 444.325707 70.72658 
L 448.415606 70.72658 
L 452.505505 70.72658 
L 456.595404 70.72658 
L 460.685303 70.72658 
L 464.775202 70.72658 
L 468.865101 70.72658 
L 472.955 70.72658 
" style="fill:none;stroke:#2ca02c;stroke-linecap:square;stroke-width:1.5;"/>
   </g>
   <g id="line2d_18">
    <path clip-path="url(#pb102ceb752)" d="M 68.055 266.992398 
L 72.144899 260.224611 
L 76.234798 266.992398 
L 80.324697 185.778956 
L 84.414596 158.707809 
L 88.504495 131.636662 
L 92.594394 199.31453 
L 96.684293 212.850103 
L 100.774192 118.101088 
L 104.864091 118.101088 
L 108.95399 131.636662 
L 113.043889 111.333301 
L 117.133788 111.333301 
L 121.223687 131.636662 
L 125.313586 118.101088 
L 129.403485 111.333301 
L 133.493384 111.333301 
L 137.583283 124.868875 
L 141.673182 118.101088 
L 145.763081 124.868875 
L 149.85298 124.868875 
L 153.942879 179.011169 
L 158.032778 111.333301 
L 162.122677 131.636662 
L 166.212576 124.868875 
L 170.302475 118.101088 
L 174.392374 111.333301 
L 178.482273 104.565514 
L 182.572172 111.333301 
L 186.662071 118.101088 
L 190.75197 118.101088 
L 194.841869 131.636662 
L 198.931768 111.333301 
L 203.021667 124.868875 
L 207.111566 124.868875 
L 211.201465 124.868875 
L 215.291364 124.868875 
L 219.381263 131.636662 
L 223.471162 124.868875 
L 227.561061 124.868875 
L 231.65096 131.636662 
L 235.740859 131.636662 
L 239.830758 131.636662 
L 243.920657 131.636662 
L 248.010556 131.636662 
L 252.100455 131.636662 
L 256.190354 131.636662 
L 260.280253 131.636662 
L 264.370152 131.636662 
L 268.460051 131.636662 
L 272.549949 131.636662 
L 276.639848 131.636662 
L 280.729747 131.636662 
L 284.819646 131.636662 
L 288.909545 131.636662 
L 292.999444 131.636662 
L 297.089343 131.636662 
L 301.179242 131.636662 
L 305.269141 131.636662 
L 309.35904 131.636662 
L 313.448939 131.636662 
L 317.538838 131.636662 
L 321.628737 131.636662 
L 325.718636 124.868875 
L 329.808535 124.868875 
L 333.898434 124.868875 
L 337.988333 124.868875 
L 342.078232 124.868875 
L 346.168131 124.868875 
L 350.25803 124.868875 
L 354.347929 124.868875 
L 358.437828 124.868875 
L 362.527727 124.868875 
L 366.617626 124.868875 
L 370.707525 124.868875 
L 374.797424 124.868875 
L 378.887323 124.868875 
L 382.977222 124.868875 
L 387.067121 124.868875 
L 391.15702 124.868875 
L 395.246919 124.868875 
L 399.336818 124.868875 
L 403.426717 124.868875 
L 407.516616 124.868875 
L 411.606515 124.868875 
L 415.696414 124.868875 
L 419.786313 124.868875 
L 423.876212 124.868875 
L 427.966111 124.868875 
L 432.05601 124.868875 
L 436.145909 124.868875 
L 440.235808 124.868875 
L 444.325707 124.868875 
L 448.415606 124.868875 
L 452.505505 124.868875 
L 456.595404 124.868875 
L 460.685303 124.868875 
L 464.775202 124.868875 
L 468.865101 124.868875 
L 472.955 124.868875 
" style="fill:none;stroke:#d62728;stroke-linecap:square;stroke-width:1.5;"/>
   </g>
   <g id="patch_3">
    <path d="M 47.81 318.04 
L 47.81 25.44 
" style="fill:none;stroke:#000000;stroke-linecap:square;stroke-linejoin:miter;stroke-width:0.8;"/>
   </g>
   <g id="patch_4">
    <path d="M 493.2 318.04 
L 493.2 25.44 
" style="fill:none;stroke:#000000;stroke-linecap:square;stroke-linejoin:miter;stroke-width:0.8;"/>
   </g>
   <g id="patch_5">
    <path d="M 47.81 318.04 
L 493.2 318.04 
" style="fill:none;stroke:#000000;stroke-linecap:square;stroke-linejoin:miter;stroke-width:0.8;"/>
   </g>
   <g id="patch_6">
    <path d="M 47.81 25.44 
L 493.2 25.44 
" style="fill:none;stroke:#000000;stroke-linecap:square;stroke-linejoin:miter;stroke-width:0.8;"/>
   </g>
   <g id="text_17">
    <!-- LSTM Training and Validation Losses for Base Parameters -->
    <defs>
     <path d="M 9.421875 54.6875 
L 18.40625 54.6875 
L 18.40625 0 
L 9.421875 0 
z
M 9.421875 75.984375 
L 18.40625 75.984375 
L 18.40625 64.59375 
L 9.421875 64.59375 
z
" id="DejaVuSans-105"/>
     <path d="M 45.40625 27.984375 
Q 45.40625 37.75 41.375 43.109375 
Q 37.359375 48.484375 30.078125 48.484375 
Q 22.859375 48.484375 18.828125 43.109375 
Q 14.796875 37.75 14.796875 27.984375 
Q 14.796875 18.265625 18.828125 12.890625 
Q 22.859375 7.515625 30.078125 7.515625 
Q 37.359375 7.515625 41.375 12.890625 
Q 45.40625 18.265625 45.40625 27.984375 
z
M 54.390625 6.78125 
Q 54.390625 -7.171875 48.1875 -13.984375 
Q 42 -20.796875 29.203125 -20.796875 
Q 24.46875 -20.796875 20.265625 -20.09375 
Q 16.0625 -19.390625 12.109375 -17.921875 
L 12.109375 -9.1875 
Q 16.0625 -11.328125 19.921875 -12.34375 
Q 23.78125 -13.375 27.78125 -13.375 
Q 36.625 -13.375 41.015625 -8.765625 
Q 45.40625 -4.15625 45.40625 5.171875 
L 45.40625 9.625 
Q 42.625 4.78125 38.28125 2.390625 
Q 33.9375 0 27.875 0 
Q 17.828125 0 11.671875 7.65625 
Q 5.515625 15.328125 5.515625 27.984375 
Q 5.515625 40.671875 11.671875 48.328125 
Q 17.828125 56 27.875 56 
Q 33.9375 56 38.28125 53.609375 
Q 42.625 51.21875 45.40625 46.390625 
L 45.40625 54.6875 
L 54.390625 54.6875 
z
" id="DejaVuSans-103"/>
     <path d="M 28.609375 0 
L 0.78125 72.90625 
L 11.078125 72.90625 
L 34.1875 11.53125 
L 57.328125 72.90625 
L 67.578125 72.90625 
L 39.796875 0 
z
" id="DejaVuSans-86"/>
     <path d="M 9.421875 75.984375 
L 18.40625 75.984375 
L 18.40625 0 
L 9.421875 0 
z
" id="DejaVuSans-108"/>
     <path d="M 18.3125 70.21875 
L 18.3125 54.6875 
L 36.8125 54.6875 
L 36.8125 47.703125 
L 18.3125 47.703125 
L 18.3125 18.015625 
Q 18.3125 11.328125 20.140625 9.421875 
Q 21.96875 7.515625 27.59375 7.515625 
L 36.8125 7.515625 
L 36.8125 0 
L 27.59375 0 
Q 17.1875 0 13.234375 3.875 
Q 9.28125 7.765625 9.28125 18.015625 
L 9.28125 47.703125 
L 2.6875 47.703125 
L 2.6875 54.6875 
L 9.28125 54.6875 
L 9.28125 70.21875 
z
" id="DejaVuSans-116"/>
     <path d="M 56.203125 29.59375 
L 56.203125 25.203125 
L 14.890625 25.203125 
Q 15.484375 15.921875 20.484375 11.0625 
Q 25.484375 6.203125 34.421875 6.203125 
Q 39.59375 6.203125 44.453125 7.46875 
Q 49.3125 8.734375 54.109375 11.28125 
L 54.109375 2.78125 
Q 49.265625 0.734375 44.1875 -0.34375 
Q 39.109375 -1.421875 33.890625 -1.421875 
Q 20.796875 -1.421875 13.15625 6.1875 
Q 5.515625 13.8125 5.515625 26.8125 
Q 5.515625 40.234375 12.765625 48.109375 
Q 20.015625 56 32.328125 56 
Q 43.359375 56 49.78125 48.890625 
Q 56.203125 41.796875 56.203125 29.59375 
z
M 47.21875 32.234375 
Q 47.125 39.59375 43.09375 43.984375 
Q 39.0625 48.390625 32.421875 48.390625 
Q 24.90625 48.390625 20.390625 44.140625 
Q 15.875 39.890625 15.1875 32.171875 
z
" id="DejaVuSans-101"/>
     <path d="M 37.109375 75.984375 
L 37.109375 68.5 
L 28.515625 68.5 
Q 23.6875 68.5 21.796875 66.546875 
Q 19.921875 64.59375 19.921875 59.515625 
L 19.921875 54.6875 
L 34.71875 54.6875 
L 34.71875 47.703125 
L 19.921875 47.703125 
L 19.921875 0 
L 10.890625 0 
L 10.890625 47.703125 
L 2.296875 47.703125 
L 2.296875 54.6875 
L 10.890625 54.6875 
L 10.890625 58.5 
Q 10.890625 67.625 15.140625 71.796875 
Q 19.390625 75.984375 28.609375 75.984375 
z
" id="DejaVuSans-102"/>
     <path d="M 19.671875 34.8125 
L 19.671875 8.109375 
L 35.5 8.109375 
Q 43.453125 8.109375 47.28125 11.40625 
Q 51.125 14.703125 51.125 21.484375 
Q 51.125 28.328125 47.28125 31.5625 
Q 43.453125 34.8125 35.5 34.8125 
z
M 19.671875 64.796875 
L 19.671875 42.828125 
L 34.28125 42.828125 
Q 41.5 42.828125 45.03125 45.53125 
Q 48.578125 48.25 48.578125 53.8125 
Q 48.578125 59.328125 45.03125 62.0625 
Q 41.5 64.796875 34.28125 64.796875 
z
M 9.8125 72.90625 
L 35.015625 72.90625 
Q 46.296875 72.90625 52.390625 68.21875 
Q 58.5 63.53125 58.5 54.890625 
Q 58.5 48.1875 55.375 44.234375 
Q 52.25 40.28125 46.1875 39.3125 
Q 53.46875 37.75 57.5 32.78125 
Q 61.53125 27.828125 61.53125 20.40625 
Q 61.53125 10.640625 54.890625 5.3125 
Q 48.25 0 35.984375 0 
L 9.8125 0 
z
" id="DejaVuSans-66"/>
     <path d="M 19.671875 64.796875 
L 19.671875 37.40625 
L 32.078125 37.40625 
Q 38.96875 37.40625 42.71875 40.96875 
Q 46.484375 44.53125 46.484375 51.125 
Q 46.484375 57.671875 42.71875 61.234375 
Q 38.96875 64.796875 32.078125 64.796875 
z
M 9.8125 72.90625 
L 32.078125 72.90625 
Q 44.34375 72.90625 50.609375 67.359375 
Q 56.890625 61.8125 56.890625 51.125 
Q 56.890625 40.328125 50.609375 34.8125 
Q 44.34375 29.296875 32.078125 29.296875 
L 19.671875 29.296875 
L 19.671875 0 
L 9.8125 0 
z
" id="DejaVuSans-80"/>
     <path d="M 52 44.1875 
Q 55.375 50.25 60.0625 53.125 
Q 64.75 56 71.09375 56 
Q 79.640625 56 84.28125 50.015625 
Q 88.921875 44.046875 88.921875 33.015625 
L 88.921875 0 
L 79.890625 0 
L 79.890625 32.71875 
Q 79.890625 40.578125 77.09375 44.375 
Q 74.3125 48.1875 68.609375 48.1875 
Q 61.625 48.1875 57.5625 43.546875 
Q 53.515625 38.921875 53.515625 30.90625 
L 53.515625 0 
L 44.484375 0 
L 44.484375 32.71875 
Q 44.484375 40.625 41.703125 44.40625 
Q 38.921875 48.1875 33.109375 48.1875 
Q 26.21875 48.1875 22.15625 43.53125 
Q 18.109375 38.875 18.109375 30.90625 
L 18.109375 0 
L 9.078125 0 
L 9.078125 54.6875 
L 18.109375 54.6875 
L 18.109375 46.1875 
Q 21.1875 51.21875 25.484375 53.609375 
Q 29.78125 56 35.6875 56 
Q 41.65625 56 45.828125 52.96875 
Q 50 49.953125 52 44.1875 
z
" id="DejaVuSans-109"/>
    </defs>
    <g transform="translate(99.395312 19.44)scale(0.12 -0.12)">
     <use xlink:href="#DejaVuSans-76"/>
     <use x="55.712891" xlink:href="#DejaVuSans-83"/>
     <use x="119.189453" xlink:href="#DejaVuSans-84"/>
     <use x="180.273438" xlink:href="#DejaVuSans-77"/>
     <use x="266.552734" xlink:href="#DejaVuSans-32"/>
     <use x="298.339844" xlink:href="#DejaVuSans-84"/>
     <use x="344.673828" xlink:href="#DejaVuSans-114"/>
     <use x="385.787109" xlink:href="#DejaVuSans-97"/>
     <use x="447.066406" xlink:href="#DejaVuSans-105"/>
     <use x="474.849609" xlink:href="#DejaVuSans-110"/>
     <use x="538.228516" xlink:href="#DejaVuSans-105"/>
     <use x="566.011719" xlink:href="#DejaVuSans-110"/>
     <use x="629.390625" xlink:href="#DejaVuSans-103"/>
     <use x="692.867188" xlink:href="#DejaVuSans-32"/>
     <use x="724.654297" xlink:href="#DejaVuSans-97"/>
     <use x="785.933594" xlink:href="#DejaVuSans-110"/>
     <use x="849.3125" xlink:href="#DejaVuSans-100"/>
     <use x="912.789062" xlink:href="#DejaVuSans-32"/>
     <use x="944.576172" xlink:href="#DejaVuSans-86"/>
     <use x="1005.234375" xlink:href="#DejaVuSans-97"/>
     <use x="1066.513672" xlink:href="#DejaVuSans-108"/>
     <use x="1094.296875" xlink:href="#DejaVuSans-105"/>
     <use x="1122.080078" xlink:href="#DejaVuSans-100"/>
     <use x="1185.556641" xlink:href="#DejaVuSans-97"/>
     <use x="1246.835938" xlink:href="#DejaVuSans-116"/>
     <use x="1286.044922" xlink:href="#DejaVuSans-105"/>
     <use x="1313.828125" xlink:href="#DejaVuSans-111"/>
     <use x="1375.009766" xlink:href="#DejaVuSans-110"/>
     <use x="1438.388672" xlink:href="#DejaVuSans-32"/>
     <use x="1470.175781" xlink:href="#DejaVuSans-76"/>
     <use x="1524.138672" xlink:href="#DejaVuSans-111"/>
     <use x="1585.320312" xlink:href="#DejaVuSans-115"/>
     <use x="1637.419922" xlink:href="#DejaVuSans-115"/>
     <use x="1689.519531" xlink:href="#DejaVuSans-101"/>
     <use x="1751.042969" xlink:href="#DejaVuSans-115"/>
     <use x="1803.142578" xlink:href="#DejaVuSans-32"/>
     <use x="1834.929688" xlink:href="#DejaVuSans-102"/>
     <use x="1870.134766" xlink:href="#DejaVuSans-111"/>
     <use x="1931.316406" xlink:href="#DejaVuSans-114"/>
     <use x="1972.429688" xlink:href="#DejaVuSans-32"/>
     <use x="2004.216797" xlink:href="#DejaVuSans-66"/>
     <use x="2072.820312" xlink:href="#DejaVuSans-97"/>
     <use x="2134.099609" xlink:href="#DejaVuSans-115"/>
     <use x="2186.199219" xlink:href="#DejaVuSans-101"/>
     <use x="2247.722656" xlink:href="#DejaVuSans-32"/>
     <use x="2279.509766" xlink:href="#DejaVuSans-80"/>
     <use x="2335.3125" xlink:href="#DejaVuSans-97"/>
     <use x="2396.591797" xlink:href="#DejaVuSans-114"/>
     <use x="2437.705078" xlink:href="#DejaVuSans-97"/>
     <use x="2498.984375" xlink:href="#DejaVuSans-109"/>
     <use x="2596.396484" xlink:href="#DejaVuSans-101"/>
     <use x="2657.919922" xlink:href="#DejaVuSans-116"/>
     <use x="2697.128906" xlink:href="#DejaVuSans-101"/>
     <use x="2758.652344" xlink:href="#DejaVuSans-114"/>
     <use x="2799.765625" xlink:href="#DejaVuSans-115"/>
    </g>
   </g>
   <g id="legend_1">
    <g id="patch_7">
     <path d="M 326.15 313.04 
L 486.2 313.04 
Q 488.2 313.04 488.2 311.04 
L 488.2 253.3275 
Q 488.2 251.3275 486.2 251.3275 
L 326.15 251.3275 
Q 324.15 251.3275 324.15 253.3275 
L 324.15 311.04 
Q 324.15 313.04 326.15 313.04 
z
" style="fill:#ffffff;opacity:0.8;stroke:#cccccc;stroke-linejoin:miter;"/>
    </g>
    <g id="line2d_19">
     <path d="M 328.15 259.425938 
L 348.15 259.425938 
" style="fill:none;stroke:#1f77b4;stroke-dasharray:5.55,2.4;stroke-dashoffset:0;stroke-width:1.5;"/>
    </g>
    <g id="line2d_20"/>
    <g id="text_18">
     <!-- LSTM Training Loss -->
     <g transform="translate(356.15 262.925938)scale(0.1 -0.1)">
      <use xlink:href="#DejaVuSans-76"/>
      <use x="55.712891" xlink:href="#DejaVuSans-83"/>
      <use x="119.189453" xlink:href="#DejaVuSans-84"/>
      <use x="180.273438" xlink:href="#DejaVuSans-77"/>
      <use x="266.552734" xlink:href="#DejaVuSans-32"/>
      <use x="298.339844" xlink:href="#DejaVuSans-84"/>
      <use x="344.673828" xlink:href="#DejaVuSans-114"/>
      <use x="385.787109" xlink:href="#DejaVuSans-97"/>
      <use x="447.066406" xlink:href="#DejaVuSans-105"/>
      <use x="474.849609" xlink:href="#DejaVuSans-110"/>
      <use x="538.228516" xlink:href="#DejaVuSans-105"/>
      <use x="566.011719" xlink:href="#DejaVuSans-110"/>
      <use x="629.390625" xlink:href="#DejaVuSans-103"/>
      <use x="692.867188" xlink:href="#DejaVuSans-32"/>
      <use x="724.654297" xlink:href="#DejaVuSans-76"/>
      <use x="778.617188" xlink:href="#DejaVuSans-111"/>
      <use x="839.798828" xlink:href="#DejaVuSans-115"/>
      <use x="891.898438" xlink:href="#DejaVuSans-115"/>
     </g>
    </g>
    <g id="line2d_21">
     <path d="M 328.15 274.104062 
L 348.15 274.104062 
" style="fill:none;stroke:#ff7f0e;stroke-dasharray:5.55,2.4;stroke-dashoffset:0;stroke-width:1.5;"/>
    </g>
    <g id="line2d_22"/>
    <g id="text_19">
     <!-- LSTM Validation Loss -->
     <g transform="translate(356.15 277.604062)scale(0.1 -0.1)">
      <use xlink:href="#DejaVuSans-76"/>
      <use x="55.712891" xlink:href="#DejaVuSans-83"/>
      <use x="119.189453" xlink:href="#DejaVuSans-84"/>
      <use x="180.273438" xlink:href="#DejaVuSans-77"/>
      <use x="266.552734" xlink:href="#DejaVuSans-32"/>
      <use x="298.339844" xlink:href="#DejaVuSans-86"/>
      <use x="358.998047" xlink:href="#DejaVuSans-97"/>
      <use x="420.277344" xlink:href="#DejaVuSans-108"/>
      <use x="448.060547" xlink:href="#DejaVuSans-105"/>
      <use x="475.84375" xlink:href="#DejaVuSans-100"/>
      <use x="539.320312" xlink:href="#DejaVuSans-97"/>
      <use x="600.599609" xlink:href="#DejaVuSans-116"/>
      <use x="639.808594" xlink:href="#DejaVuSans-105"/>
      <use x="667.591797" xlink:href="#DejaVuSans-111"/>
      <use x="728.773438" xlink:href="#DejaVuSans-110"/>
      <use x="792.152344" xlink:href="#DejaVuSans-32"/>
      <use x="823.939453" xlink:href="#DejaVuSans-76"/>
      <use x="877.902344" xlink:href="#DejaVuSans-111"/>
      <use x="939.083984" xlink:href="#DejaVuSans-115"/>
      <use x="991.183594" xlink:href="#DejaVuSans-115"/>
     </g>
    </g>
    <g id="line2d_23">
     <path d="M 328.15 288.782188 
L 348.15 288.782188 
" style="fill:none;stroke:#2ca02c;stroke-linecap:square;stroke-width:1.5;"/>
    </g>
    <g id="line2d_24"/>
    <g id="text_20">
     <!-- LSTM Training Accuracy -->
     <g transform="translate(356.15 292.282188)scale(0.1 -0.1)">
      <use xlink:href="#DejaVuSans-76"/>
      <use x="55.712891" xlink:href="#DejaVuSans-83"/>
      <use x="119.189453" xlink:href="#DejaVuSans-84"/>
      <use x="180.273438" xlink:href="#DejaVuSans-77"/>
      <use x="266.552734" xlink:href="#DejaVuSans-32"/>
      <use x="298.339844" xlink:href="#DejaVuSans-84"/>
      <use x="344.673828" xlink:href="#DejaVuSans-114"/>
      <use x="385.787109" xlink:href="#DejaVuSans-97"/>
      <use x="447.066406" xlink:href="#DejaVuSans-105"/>
      <use x="474.849609" xlink:href="#DejaVuSans-110"/>
      <use x="538.228516" xlink:href="#DejaVuSans-105"/>
      <use x="566.011719" xlink:href="#DejaVuSans-110"/>
      <use x="629.390625" xlink:href="#DejaVuSans-103"/>
      <use x="692.867188" xlink:href="#DejaVuSans-32"/>
      <use x="724.654297" xlink:href="#DejaVuSans-65"/>
      <use x="791.3125" xlink:href="#DejaVuSans-99"/>
      <use x="846.292969" xlink:href="#DejaVuSans-99"/>
      <use x="901.273438" xlink:href="#DejaVuSans-117"/>
      <use x="964.652344" xlink:href="#DejaVuSans-114"/>
      <use x="1005.765625" xlink:href="#DejaVuSans-97"/>
      <use x="1067.044922" xlink:href="#DejaVuSans-99"/>
      <use x="1122.025391" xlink:href="#DejaVuSans-121"/>
     </g>
    </g>
    <g id="line2d_25">
     <path d="M 328.15 303.460312 
L 348.15 303.460312 
" style="fill:none;stroke:#d62728;stroke-linecap:square;stroke-width:1.5;"/>
    </g>
    <g id="line2d_26"/>
    <g id="text_21">
     <!-- LSTM Validation Accuracy -->
     <g transform="translate(356.15 306.960312)scale(0.1 -0.1)">
      <use xlink:href="#DejaVuSans-76"/>
      <use x="55.712891" xlink:href="#DejaVuSans-83"/>
      <use x="119.189453" xlink:href="#DejaVuSans-84"/>
      <use x="180.273438" xlink:href="#DejaVuSans-77"/>
      <use x="266.552734" xlink:href="#DejaVuSans-32"/>
      <use x="298.339844" xlink:href="#DejaVuSans-86"/>
      <use x="358.998047" xlink:href="#DejaVuSans-97"/>
      <use x="420.277344" xlink:href="#DejaVuSans-108"/>
      <use x="448.060547" xlink:href="#DejaVuSans-105"/>
      <use x="475.84375" xlink:href="#DejaVuSans-100"/>
      <use x="539.320312" xlink:href="#DejaVuSans-97"/>
      <use x="600.599609" xlink:href="#DejaVuSans-116"/>
      <use x="639.808594" xlink:href="#DejaVuSans-105"/>
      <use x="667.591797" xlink:href="#DejaVuSans-111"/>
      <use x="728.773438" xlink:href="#DejaVuSans-110"/>
      <use x="792.152344" xlink:href="#DejaVuSans-32"/>
      <use x="823.939453" xlink:href="#DejaVuSans-65"/>
      <use x="890.597656" xlink:href="#DejaVuSans-99"/>
      <use x="945.578125" xlink:href="#DejaVuSans-99"/>
      <use x="1000.558594" xlink:href="#DejaVuSans-117"/>
      <use x="1063.9375" xlink:href="#DejaVuSans-114"/>
      <use x="1105.050781" xlink:href="#DejaVuSans-97"/>
      <use x="1166.330078" xlink:href="#DejaVuSans-99"/>
      <use x="1221.310547" xlink:href="#DejaVuSans-121"/>
     </g>
    </g>
   </g>
  </g>
 </g>
 <defs>
  <clipPath id="pb102ceb752">
   <rect height="292.6" width="445.39" x="47.81" y="25.44"/>
  </clipPath>
 </defs>
</svg>
