<?xml version="1.0" encoding="utf-8" standalone="no"?>
<!DOCTYPE svg PUBLIC "-//W3C//DTD SVG 1.1//EN"
  "http://www.w3.org/Graphics/SVG/1.1/DTD/svg11.dtd">
<!-- Created with matplotlib (https://matplotlib.org/) -->
<svg height="360pt" version="1.1" viewBox="0 0 504 360" width="504pt" xmlns="http://www.w3.org/2000/svg" xmlns:xlink="http://www.w3.org/1999/xlink">
 <defs>
  <style type="text/css">
*{stroke-linecap:butt;stroke-linejoin:round;}
  </style>
 </defs>
 <g id="figure_1">
  <g id="patch_1">
   <path d="M 0 360 
L 504 360 
L 504 0 
L 0 0 
z
" style="fill:#ffffff;"/>
  </g>
  <g id="axes_1">
   <g id="patch_2">
    <path d="M 47.81 318.04 
L 493.2 318.04 
L 493.2 25.44 
L 47.81 25.44 
z
" style="fill:#ffffff;"/>
   </g>
   <g id="matplotlib.axis_1">
    <g id="xtick_1">
     <g id="line2d_1">
      <defs>
       <path d="M 0 0 
L 0 3.5 
" id="mc1cbd55670" style="stroke:#000000;stroke-width:0.8;"/>
      </defs>
      <g>
       <use style="stroke:#000000;stroke-width:0.8;" x="63.965101" xlink:href="#mc1cbd55670" y="318.04"/>
      </g>
     </g>
     <g id="text_1">
      <!-- 0 -->
      <defs>
       <path d="M 31.78125 66.40625 
Q 24.171875 66.40625 20.328125 58.90625 
Q 16.5 51.421875 16.5 36.375 
Q 16.5 21.390625 20.328125 13.890625 
Q 24.171875 6.390625 31.78125 6.390625 
Q 39.453125 6.390625 43.28125 13.890625 
Q 47.125 21.390625 47.125 36.375 
Q 47.125 51.421875 43.28125 58.90625 
Q 39.453125 66.40625 31.78125 66.40625 
z
M 31.78125 74.21875 
Q 44.046875 74.21875 50.515625 64.515625 
Q 56.984375 54.828125 56.984375 36.375 
Q 56.984375 17.96875 50.515625 8.265625 
Q 44.046875 -1.421875 31.78125 -1.421875 
Q 19.53125 -1.421875 13.0625 8.265625 
Q 6.59375 17.96875 6.59375 36.375 
Q 6.59375 54.828125 13.0625 64.515625 
Q 19.53125 74.21875 31.78125 74.21875 
z
" id="DejaVuSans-48"/>
      </defs>
      <g transform="translate(60.783851 332.638438)scale(0.1 -0.1)">
       <use xlink:href="#DejaVuSans-48"/>
      </g>
     </g>
    </g>
    <g id="xtick_2">
     <g id="line2d_2">
      <g>
       <use style="stroke:#000000;stroke-width:0.8;" x="145.763081" xlink:href="#mc1cbd55670" y="318.04"/>
      </g>
     </g>
     <g id="text_2">
      <!-- 20 -->
      <defs>
       <path d="M 19.1875 8.296875 
L 53.609375 8.296875 
L 53.609375 0 
L 7.328125 0 
L 7.328125 8.296875 
Q 12.9375 14.109375 22.625 23.890625 
Q 32.328125 33.6875 34.8125 36.53125 
Q 39.546875 41.84375 41.421875 45.53125 
Q 43.3125 49.21875 43.3125 52.78125 
Q 43.3125 58.59375 39.234375 62.25 
Q 35.15625 65.921875 28.609375 65.921875 
Q 23.96875 65.921875 18.8125 64.3125 
Q 13.671875 62.703125 7.8125 59.421875 
L 7.8125 69.390625 
Q 13.765625 71.78125 18.9375 73 
Q 24.125 74.21875 28.421875 74.21875 
Q 39.75 74.21875 46.484375 68.546875 
Q 53.21875 62.890625 53.21875 53.421875 
Q 53.21875 48.921875 51.53125 44.890625 
Q 49.859375 40.875 45.40625 35.40625 
Q 44.1875 33.984375 37.640625 27.21875 
Q 31.109375 20.453125 19.1875 8.296875 
z
" id="DejaVuSans-50"/>
      </defs>
      <g transform="translate(139.400581 332.638438)scale(0.1 -0.1)">
       <use xlink:href="#DejaVuSans-50"/>
       <use x="63.623047" xlink:href="#DejaVuSans-48"/>
      </g>
     </g>
    </g>
    <g id="xtick_3">
     <g id="line2d_3">
      <g>
       <use style="stroke:#000000;stroke-width:0.8;" x="227.561061" xlink:href="#mc1cbd55670" y="318.04"/>
      </g>
     </g>
     <g id="text_3">
      <!-- 40 -->
      <defs>
       <path d="M 37.796875 64.3125 
L 12.890625 25.390625 
L 37.796875 25.390625 
z
M 35.203125 72.90625 
L 47.609375 72.90625 
L 47.609375 25.390625 
L 58.015625 25.390625 
L 58.015625 17.1875 
L 47.609375 17.1875 
L 47.609375 0 
L 37.796875 0 
L 37.796875 17.1875 
L 4.890625 17.1875 
L 4.890625 26.703125 
z
" id="DejaVuSans-52"/>
      </defs>
      <g transform="translate(221.198561 332.638438)scale(0.1 -0.1)">
       <use xlink:href="#DejaVuSans-52"/>
       <use x="63.623047" xlink:href="#DejaVuSans-48"/>
      </g>
     </g>
    </g>
    <g id="xtick_4">
     <g id="line2d_4">
      <g>
       <use style="stroke:#000000;stroke-width:0.8;" x="309.35904" xlink:href="#mc1cbd55670" y="318.04"/>
      </g>
     </g>
     <g id="text_4">
      <!-- 60 -->
      <defs>
       <path d="M 33.015625 40.375 
Q 26.375 40.375 22.484375 35.828125 
Q 18.609375 31.296875 18.609375 23.390625 
Q 18.609375 15.53125 22.484375 10.953125 
Q 26.375 6.390625 33.015625 6.390625 
Q 39.65625 6.390625 43.53125 10.953125 
Q 47.40625 15.53125 47.40625 23.390625 
Q 47.40625 31.296875 43.53125 35.828125 
Q 39.65625 40.375 33.015625 40.375 
z
M 52.59375 71.296875 
L 52.59375 62.3125 
Q 48.875 64.0625 45.09375 64.984375 
Q 41.3125 65.921875 37.59375 65.921875 
Q 27.828125 65.921875 22.671875 59.328125 
Q 17.53125 52.734375 16.796875 39.40625 
Q 19.671875 43.65625 24.015625 45.921875 
Q 28.375 48.1875 33.59375 48.1875 
Q 44.578125 48.1875 50.953125 41.515625 
Q 57.328125 34.859375 57.328125 23.390625 
Q 57.328125 12.15625 50.6875 5.359375 
Q 44.046875 -1.421875 33.015625 -1.421875 
Q 20.359375 -1.421875 13.671875 8.265625 
Q 6.984375 17.96875 6.984375 36.375 
Q 6.984375 53.65625 15.1875 63.9375 
Q 23.390625 74.21875 37.203125 74.21875 
Q 40.921875 74.21875 44.703125 73.484375 
Q 48.484375 72.75 52.59375 71.296875 
z
" id="DejaVuSans-54"/>
      </defs>
      <g transform="translate(302.99654 332.638438)scale(0.1 -0.1)">
       <use xlink:href="#DejaVuSans-54"/>
       <use x="63.623047" xlink:href="#DejaVuSans-48"/>
      </g>
     </g>
    </g>
    <g id="xtick_5">
     <g id="line2d_5">
      <g>
       <use style="stroke:#000000;stroke-width:0.8;" x="391.15702" xlink:href="#mc1cbd55670" y="318.04"/>
      </g>
     </g>
     <g id="text_5">
      <!-- 80 -->
      <defs>
       <path d="M 31.78125 34.625 
Q 24.75 34.625 20.71875 30.859375 
Q 16.703125 27.09375 16.703125 20.515625 
Q 16.703125 13.921875 20.71875 10.15625 
Q 24.75 6.390625 31.78125 6.390625 
Q 38.8125 6.390625 42.859375 10.171875 
Q 46.921875 13.96875 46.921875 20.515625 
Q 46.921875 27.09375 42.890625 30.859375 
Q 38.875 34.625 31.78125 34.625 
z
M 21.921875 38.8125 
Q 15.578125 40.375 12.03125 44.71875 
Q 8.5 49.078125 8.5 55.328125 
Q 8.5 64.0625 14.71875 69.140625 
Q 20.953125 74.21875 31.78125 74.21875 
Q 42.671875 74.21875 48.875 69.140625 
Q 55.078125 64.0625 55.078125 55.328125 
Q 55.078125 49.078125 51.53125 44.71875 
Q 48 40.375 41.703125 38.8125 
Q 48.828125 37.15625 52.796875 32.3125 
Q 56.78125 27.484375 56.78125 20.515625 
Q 56.78125 9.90625 50.3125 4.234375 
Q 43.84375 -1.421875 31.78125 -1.421875 
Q 19.734375 -1.421875 13.25 4.234375 
Q 6.78125 9.90625 6.78125 20.515625 
Q 6.78125 27.484375 10.78125 32.3125 
Q 14.796875 37.15625 21.921875 38.8125 
z
M 18.3125 54.390625 
Q 18.3125 48.734375 21.84375 45.5625 
Q 25.390625 42.390625 31.78125 42.390625 
Q 38.140625 42.390625 41.71875 45.5625 
Q 45.3125 48.734375 45.3125 54.390625 
Q 45.3125 60.0625 41.71875 63.234375 
Q 38.140625 66.40625 31.78125 66.40625 
Q 25.390625 66.40625 21.84375 63.234375 
Q 18.3125 60.0625 18.3125 54.390625 
z
" id="DejaVuSans-56"/>
      </defs>
      <g transform="translate(384.79452 332.638438)scale(0.1 -0.1)">
       <use xlink:href="#DejaVuSans-56"/>
       <use x="63.623047" xlink:href="#DejaVuSans-48"/>
      </g>
     </g>
    </g>
    <g id="xtick_6">
     <g id="line2d_6">
      <g>
       <use style="stroke:#000000;stroke-width:0.8;" x="472.955" xlink:href="#mc1cbd55670" y="318.04"/>
      </g>
     </g>
     <g id="text_6">
      <!-- 100 -->
      <defs>
       <path d="M 12.40625 8.296875 
L 28.515625 8.296875 
L 28.515625 63.921875 
L 10.984375 60.40625 
L 10.984375 69.390625 
L 28.421875 72.90625 
L 38.28125 72.90625 
L 38.28125 8.296875 
L 54.390625 8.296875 
L 54.390625 0 
L 12.40625 0 
z
" id="DejaVuSans-49"/>
      </defs>
      <g transform="translate(463.41125 332.638438)scale(0.1 -0.1)">
       <use xlink:href="#DejaVuSans-49"/>
       <use x="63.623047" xlink:href="#DejaVuSans-48"/>
       <use x="127.246094" xlink:href="#DejaVuSans-48"/>
      </g>
     </g>
    </g>
    <g id="text_7">
     <!-- LSTM Epochs -->
     <defs>
      <path d="M 9.8125 72.90625 
L 19.671875 72.90625 
L 19.671875 8.296875 
L 55.171875 8.296875 
L 55.171875 0 
L 9.8125 0 
z
" id="DejaVuSans-76"/>
      <path d="M 53.515625 70.515625 
L 53.515625 60.890625 
Q 47.90625 63.578125 42.921875 64.890625 
Q 37.9375 66.21875 33.296875 66.21875 
Q 25.25 66.21875 20.875 63.09375 
Q 16.5 59.96875 16.5 54.203125 
Q 16.5 49.359375 19.40625 46.890625 
Q 22.3125 44.4375 30.421875 42.921875 
L 36.375 41.703125 
Q 47.40625 39.59375 52.65625 34.296875 
Q 57.90625 29 57.90625 20.125 
Q 57.90625 9.515625 50.796875 4.046875 
Q 43.703125 -1.421875 29.984375 -1.421875 
Q 24.8125 -1.421875 18.96875 -0.25 
Q 13.140625 0.921875 6.890625 3.21875 
L 6.890625 13.375 
Q 12.890625 10.015625 18.65625 8.296875 
Q 24.421875 6.59375 29.984375 6.59375 
Q 38.421875 6.59375 43.015625 9.90625 
Q 47.609375 13.234375 47.609375 19.390625 
Q 47.609375 24.75 44.3125 27.78125 
Q 41.015625 30.8125 33.5 32.328125 
L 27.484375 33.5 
Q 16.453125 35.6875 11.515625 40.375 
Q 6.59375 45.0625 6.59375 53.421875 
Q 6.59375 63.09375 13.40625 68.65625 
Q 20.21875 74.21875 32.171875 74.21875 
Q 37.3125 74.21875 42.625 73.28125 
Q 47.953125 72.359375 53.515625 70.515625 
z
" id="DejaVuSans-83"/>
      <path d="M -0.296875 72.90625 
L 61.375 72.90625 
L 61.375 64.59375 
L 35.5 64.59375 
L 35.5 0 
L 25.59375 0 
L 25.59375 64.59375 
L -0.296875 64.59375 
z
" id="DejaVuSans-84"/>
      <path d="M 9.8125 72.90625 
L 24.515625 72.90625 
L 43.109375 23.296875 
L 61.8125 72.90625 
L 76.515625 72.90625 
L 76.515625 0 
L 66.890625 0 
L 66.890625 64.015625 
L 48.09375 14.015625 
L 38.1875 14.015625 
L 19.390625 64.015625 
L 19.390625 0 
L 9.8125 0 
z
" id="DejaVuSans-77"/>
      <path id="DejaVuSans-32"/>
      <path d="M 9.8125 72.90625 
L 55.90625 72.90625 
L 55.90625 64.59375 
L 19.671875 64.59375 
L 19.671875 43.015625 
L 54.390625 43.015625 
L 54.390625 34.71875 
L 19.671875 34.71875 
L 19.671875 8.296875 
L 56.78125 8.296875 
L 56.78125 0 
L 9.8125 0 
z
" id="DejaVuSans-69"/>
      <path d="M 18.109375 8.203125 
L 18.109375 -20.796875 
L 9.078125 -20.796875 
L 9.078125 54.6875 
L 18.109375 54.6875 
L 18.109375 46.390625 
Q 20.953125 51.265625 25.265625 53.625 
Q 29.59375 56 35.59375 56 
Q 45.5625 56 51.78125 48.09375 
Q 58.015625 40.1875 58.015625 27.296875 
Q 58.015625 14.40625 51.78125 6.484375 
Q 45.5625 -1.421875 35.59375 -1.421875 
Q 29.59375 -1.421875 25.265625 0.953125 
Q 20.953125 3.328125 18.109375 8.203125 
z
M 48.6875 27.296875 
Q 48.6875 37.203125 44.609375 42.84375 
Q 40.53125 48.484375 33.40625 48.484375 
Q 26.265625 48.484375 22.1875 42.84375 
Q 18.109375 37.203125 18.109375 27.296875 
Q 18.109375 17.390625 22.1875 11.75 
Q 26.265625 6.109375 33.40625 6.109375 
Q 40.53125 6.109375 44.609375 11.75 
Q 48.6875 17.390625 48.6875 27.296875 
z
" id="DejaVuSans-112"/>
      <path d="M 30.609375 48.390625 
Q 23.390625 48.390625 19.1875 42.75 
Q 14.984375 37.109375 14.984375 27.296875 
Q 14.984375 17.484375 19.15625 11.84375 
Q 23.34375 6.203125 30.609375 6.203125 
Q 37.796875 6.203125 41.984375 11.859375 
Q 46.1875 17.53125 46.1875 27.296875 
Q 46.1875 37.015625 41.984375 42.703125 
Q 37.796875 48.390625 30.609375 48.390625 
z
M 30.609375 56 
Q 42.328125 56 49.015625 48.375 
Q 55.71875 40.765625 55.71875 27.296875 
Q 55.71875 13.875 49.015625 6.21875 
Q 42.328125 -1.421875 30.609375 -1.421875 
Q 18.84375 -1.421875 12.171875 6.21875 
Q 5.515625 13.875 5.515625 27.296875 
Q 5.515625 40.765625 12.171875 48.375 
Q 18.84375 56 30.609375 56 
z
" id="DejaVuSans-111"/>
      <path d="M 48.78125 52.59375 
L 48.78125 44.1875 
Q 44.96875 46.296875 41.140625 47.34375 
Q 37.3125 48.390625 33.40625 48.390625 
Q 24.65625 48.390625 19.8125 42.84375 
Q 14.984375 37.3125 14.984375 27.296875 
Q 14.984375 17.28125 19.8125 11.734375 
Q 24.65625 6.203125 33.40625 6.203125 
Q 37.3125 6.203125 41.140625 7.25 
Q 44.96875 8.296875 48.78125 10.40625 
L 48.78125 2.09375 
Q 45.015625 0.34375 40.984375 -0.53125 
Q 36.96875 -1.421875 32.421875 -1.421875 
Q 20.0625 -1.421875 12.78125 6.34375 
Q 5.515625 14.109375 5.515625 27.296875 
Q 5.515625 40.671875 12.859375 48.328125 
Q 20.21875 56 33.015625 56 
Q 37.15625 56 41.109375 55.140625 
Q 45.0625 54.296875 48.78125 52.59375 
z
" id="DejaVuSans-99"/>
      <path d="M 54.890625 33.015625 
L 54.890625 0 
L 45.90625 0 
L 45.90625 32.71875 
Q 45.90625 40.484375 42.875 44.328125 
Q 39.84375 48.1875 33.796875 48.1875 
Q 26.515625 48.1875 22.3125 43.546875 
Q 18.109375 38.921875 18.109375 30.90625 
L 18.109375 0 
L 9.078125 0 
L 9.078125 75.984375 
L 18.109375 75.984375 
L 18.109375 46.1875 
Q 21.34375 51.125 25.703125 53.5625 
Q 30.078125 56 35.796875 56 
Q 45.21875 56 50.046875 50.171875 
Q 54.890625 44.34375 54.890625 33.015625 
z
" id="DejaVuSans-104"/>
      <path d="M 44.28125 53.078125 
L 44.28125 44.578125 
Q 40.484375 46.53125 36.375 47.5 
Q 32.28125 48.484375 27.875 48.484375 
Q 21.1875 48.484375 17.84375 46.4375 
Q 14.5 44.390625 14.5 40.28125 
Q 14.5 37.15625 16.890625 35.375 
Q 19.28125 33.59375 26.515625 31.984375 
L 29.59375 31.296875 
Q 39.15625 29.25 43.1875 25.515625 
Q 47.21875 21.78125 47.21875 15.09375 
Q 47.21875 7.46875 41.1875 3.015625 
Q 35.15625 -1.421875 24.609375 -1.421875 
Q 20.21875 -1.421875 15.453125 -0.5625 
Q 10.6875 0.296875 5.421875 2 
L 5.421875 11.28125 
Q 10.40625 8.6875 15.234375 7.390625 
Q 20.0625 6.109375 24.8125 6.109375 
Q 31.15625 6.109375 34.5625 8.28125 
Q 37.984375 10.453125 37.984375 14.40625 
Q 37.984375 18.0625 35.515625 20.015625 
Q 33.0625 21.96875 24.703125 23.78125 
L 21.578125 24.515625 
Q 13.234375 26.265625 9.515625 29.90625 
Q 5.8125 33.546875 5.8125 39.890625 
Q 5.8125 47.609375 11.28125 51.796875 
Q 16.75 56 26.8125 56 
Q 31.78125 56 36.171875 55.265625 
Q 40.578125 54.546875 44.28125 53.078125 
z
" id="DejaVuSans-115"/>
     </defs>
     <g transform="translate(237.672188 346.316563)scale(0.1 -0.1)">
      <use xlink:href="#DejaVuSans-76"/>
      <use x="55.712891" xlink:href="#DejaVuSans-83"/>
      <use x="119.189453" xlink:href="#DejaVuSans-84"/>
      <use x="180.273438" xlink:href="#DejaVuSans-77"/>
      <use x="266.552734" xlink:href="#DejaVuSans-32"/>
      <use x="298.339844" xlink:href="#DejaVuSans-69"/>
      <use x="361.523438" xlink:href="#DejaVuSans-112"/>
      <use x="425" xlink:href="#DejaVuSans-111"/>
      <use x="486.181641" xlink:href="#DejaVuSans-99"/>
      <use x="541.162109" xlink:href="#DejaVuSans-104"/>
      <use x="604.541016" xlink:href="#DejaVuSans-115"/>
     </g>
    </g>
   </g>
   <g id="matplotlib.axis_2">
    <g id="ytick_1">
     <g id="line2d_7">
      <defs>
       <path d="M 0 0 
L -3.5 0 
" id="m7c2eb0acb7" style="stroke:#000000;stroke-width:0.8;"/>
      </defs>
      <g>
       <use style="stroke:#000000;stroke-width:0.8;" x="47.81" xlink:href="#m7c2eb0acb7" y="307.784377"/>
      </g>
     </g>
     <g id="text_8">
      <!-- 0.3 -->
      <defs>
       <path d="M 10.6875 12.40625 
L 21 12.40625 
L 21 0 
L 10.6875 0 
z
" id="DejaVuSans-46"/>
       <path d="M 40.578125 39.3125 
Q 47.65625 37.796875 51.625 33 
Q 55.609375 28.21875 55.609375 21.1875 
Q 55.609375 10.40625 48.1875 4.484375 
Q 40.765625 -1.421875 27.09375 -1.421875 
Q 22.515625 -1.421875 17.65625 -0.515625 
Q 12.796875 0.390625 7.625 2.203125 
L 7.625 11.71875 
Q 11.71875 9.328125 16.59375 8.109375 
Q 21.484375 6.890625 26.8125 6.890625 
Q 36.078125 6.890625 40.9375 10.546875 
Q 45.796875 14.203125 45.796875 21.1875 
Q 45.796875 27.640625 41.28125 31.265625 
Q 36.765625 34.90625 28.71875 34.90625 
L 20.21875 34.90625 
L 20.21875 43.015625 
L 29.109375 43.015625 
Q 36.375 43.015625 40.234375 45.921875 
Q 44.09375 48.828125 44.09375 54.296875 
Q 44.09375 59.90625 40.109375 62.90625 
Q 36.140625 65.921875 28.71875 65.921875 
Q 24.65625 65.921875 20.015625 65.03125 
Q 15.375 64.15625 9.8125 62.3125 
L 9.8125 71.09375 
Q 15.4375 72.65625 20.34375 73.4375 
Q 25.25 74.21875 29.59375 74.21875 
Q 40.828125 74.21875 47.359375 69.109375 
Q 53.90625 64.015625 53.90625 55.328125 
Q 53.90625 49.265625 50.4375 45.09375 
Q 46.96875 40.921875 40.578125 39.3125 
z
" id="DejaVuSans-51"/>
      </defs>
      <g transform="translate(24.906875 311.583596)scale(0.1 -0.1)">
       <use xlink:href="#DejaVuSans-48"/>
       <use x="63.623047" xlink:href="#DejaVuSans-46"/>
       <use x="95.410156" xlink:href="#DejaVuSans-51"/>
      </g>
     </g>
    </g>
    <g id="ytick_2">
     <g id="line2d_8">
      <g>
       <use style="stroke:#000000;stroke-width:0.8;" x="47.81" xlink:href="#m7c2eb0acb7" y="273.281438"/>
      </g>
     </g>
     <g id="text_9">
      <!-- 0.4 -->
      <g transform="translate(24.906875 277.080657)scale(0.1 -0.1)">
       <use xlink:href="#DejaVuSans-48"/>
       <use x="63.623047" xlink:href="#DejaVuSans-46"/>
       <use x="95.410156" xlink:href="#DejaVuSans-52"/>
      </g>
     </g>
    </g>
    <g id="ytick_3">
     <g id="line2d_9">
      <g>
       <use style="stroke:#000000;stroke-width:0.8;" x="47.81" xlink:href="#m7c2eb0acb7" y="238.7785"/>
      </g>
     </g>
     <g id="text_10">
      <!-- 0.5 -->
      <defs>
       <path d="M 10.796875 72.90625 
L 49.515625 72.90625 
L 49.515625 64.59375 
L 19.828125 64.59375 
L 19.828125 46.734375 
Q 21.96875 47.46875 24.109375 47.828125 
Q 26.265625 48.1875 28.421875 48.1875 
Q 40.625 48.1875 47.75 41.5 
Q 54.890625 34.8125 54.890625 23.390625 
Q 54.890625 11.625 47.5625 5.09375 
Q 40.234375 -1.421875 26.90625 -1.421875 
Q 22.3125 -1.421875 17.546875 -0.640625 
Q 12.796875 0.140625 7.71875 1.703125 
L 7.71875 11.625 
Q 12.109375 9.234375 16.796875 8.0625 
Q 21.484375 6.890625 26.703125 6.890625 
Q 35.15625 6.890625 40.078125 11.328125 
Q 45.015625 15.765625 45.015625 23.390625 
Q 45.015625 31 40.078125 35.4375 
Q 35.15625 39.890625 26.703125 39.890625 
Q 22.75 39.890625 18.8125 39.015625 
Q 14.890625 38.140625 10.796875 36.28125 
z
" id="DejaVuSans-53"/>
      </defs>
      <g transform="translate(24.906875 242.577718)scale(0.1 -0.1)">
       <use xlink:href="#DejaVuSans-48"/>
       <use x="63.623047" xlink:href="#DejaVuSans-46"/>
       <use x="95.410156" xlink:href="#DejaVuSans-53"/>
      </g>
     </g>
    </g>
    <g id="ytick_4">
     <g id="line2d_10">
      <g>
       <use style="stroke:#000000;stroke-width:0.8;" x="47.81" xlink:href="#m7c2eb0acb7" y="204.275561"/>
      </g>
     </g>
     <g id="text_11">
      <!-- 0.6 -->
      <g transform="translate(24.906875 208.07478)scale(0.1 -0.1)">
       <use xlink:href="#DejaVuSans-48"/>
       <use x="63.623047" xlink:href="#DejaVuSans-46"/>
       <use x="95.410156" xlink:href="#DejaVuSans-54"/>
      </g>
     </g>
    </g>
    <g id="ytick_5">
     <g id="line2d_11">
      <g>
       <use style="stroke:#000000;stroke-width:0.8;" x="47.81" xlink:href="#m7c2eb0acb7" y="169.772622"/>
      </g>
     </g>
     <g id="text_12">
      <!-- 0.7 -->
      <defs>
       <path d="M 8.203125 72.90625 
L 55.078125 72.90625 
L 55.078125 68.703125 
L 28.609375 0 
L 18.3125 0 
L 43.21875 64.59375 
L 8.203125 64.59375 
z
" id="DejaVuSans-55"/>
      </defs>
      <g transform="translate(24.906875 173.571841)scale(0.1 -0.1)">
       <use xlink:href="#DejaVuSans-48"/>
       <use x="63.623047" xlink:href="#DejaVuSans-46"/>
       <use x="95.410156" xlink:href="#DejaVuSans-55"/>
      </g>
     </g>
    </g>
    <g id="ytick_6">
     <g id="line2d_12">
      <g>
       <use style="stroke:#000000;stroke-width:0.8;" x="47.81" xlink:href="#m7c2eb0acb7" y="135.269683"/>
      </g>
     </g>
     <g id="text_13">
      <!-- 0.8 -->
      <g transform="translate(24.906875 139.068902)scale(0.1 -0.1)">
       <use xlink:href="#DejaVuSans-48"/>
       <use x="63.623047" xlink:href="#DejaVuSans-46"/>
       <use x="95.410156" xlink:href="#DejaVuSans-56"/>
      </g>
     </g>
    </g>
    <g id="ytick_7">
     <g id="line2d_13">
      <g>
       <use style="stroke:#000000;stroke-width:0.8;" x="47.81" xlink:href="#m7c2eb0acb7" y="100.766745"/>
      </g>
     </g>
     <g id="text_14">
      <!-- 0.9 -->
      <defs>
       <path d="M 10.984375 1.515625 
L 10.984375 10.5 
Q 14.703125 8.734375 18.5 7.8125 
Q 22.3125 6.890625 25.984375 6.890625 
Q 35.75 6.890625 40.890625 13.453125 
Q 46.046875 20.015625 46.78125 33.40625 
Q 43.953125 29.203125 39.59375 26.953125 
Q 35.25 24.703125 29.984375 24.703125 
Q 19.046875 24.703125 12.671875 31.3125 
Q 6.296875 37.9375 6.296875 49.421875 
Q 6.296875 60.640625 12.9375 67.421875 
Q 19.578125 74.21875 30.609375 74.21875 
Q 43.265625 74.21875 49.921875 64.515625 
Q 56.59375 54.828125 56.59375 36.375 
Q 56.59375 19.140625 48.40625 8.859375 
Q 40.234375 -1.421875 26.421875 -1.421875 
Q 22.703125 -1.421875 18.890625 -0.6875 
Q 15.09375 0.046875 10.984375 1.515625 
z
M 30.609375 32.421875 
Q 37.25 32.421875 41.125 36.953125 
Q 45.015625 41.5 45.015625 49.421875 
Q 45.015625 57.28125 41.125 61.84375 
Q 37.25 66.40625 30.609375 66.40625 
Q 23.96875 66.40625 20.09375 61.84375 
Q 16.21875 57.28125 16.21875 49.421875 
Q 16.21875 41.5 20.09375 36.953125 
Q 23.96875 32.421875 30.609375 32.421875 
z
" id="DejaVuSans-57"/>
      </defs>
      <g transform="translate(24.906875 104.565964)scale(0.1 -0.1)">
       <use xlink:href="#DejaVuSans-48"/>
       <use x="63.623047" xlink:href="#DejaVuSans-46"/>
       <use x="95.410156" xlink:href="#DejaVuSans-57"/>
      </g>
     </g>
    </g>
    <g id="ytick_8">
     <g id="line2d_14">
      <g>
       <use style="stroke:#000000;stroke-width:0.8;" x="47.81" xlink:href="#m7c2eb0acb7" y="66.263806"/>
      </g>
     </g>
     <g id="text_15">
      <!-- 1.0 -->
      <g transform="translate(24.906875 70.063025)scale(0.1 -0.1)">
       <use xlink:href="#DejaVuSans-49"/>
       <use x="63.623047" xlink:href="#DejaVuSans-46"/>
       <use x="95.410156" xlink:href="#DejaVuSans-48"/>
      </g>
     </g>
    </g>
    <g id="ytick_9">
     <g id="line2d_15">
      <g>
       <use style="stroke:#000000;stroke-width:0.8;" x="47.81" xlink:href="#m7c2eb0acb7" y="31.760867"/>
      </g>
     </g>
     <g id="text_16">
      <!-- 1.1 -->
      <g transform="translate(24.906875 35.560086)scale(0.1 -0.1)">
       <use xlink:href="#DejaVuSans-49"/>
       <use x="63.623047" xlink:href="#DejaVuSans-46"/>
       <use x="95.410156" xlink:href="#DejaVuSans-49"/>
      </g>
     </g>
    </g>
    <g id="text_17">
     <!-- LSTM Loss and Accuracy -->
     <defs>
      <path d="M 34.28125 27.484375 
Q 23.390625 27.484375 19.1875 25 
Q 14.984375 22.515625 14.984375 16.5 
Q 14.984375 11.71875 18.140625 8.90625 
Q 21.296875 6.109375 26.703125 6.109375 
Q 34.1875 6.109375 38.703125 11.40625 
Q 43.21875 16.703125 43.21875 25.484375 
L 43.21875 27.484375 
z
M 52.203125 31.203125 
L 52.203125 0 
L 43.21875 0 
L 43.21875 8.296875 
Q 40.140625 3.328125 35.546875 0.953125 
Q 30.953125 -1.421875 24.3125 -1.421875 
Q 15.921875 -1.421875 10.953125 3.296875 
Q 6 8.015625 6 15.921875 
Q 6 25.140625 12.171875 29.828125 
Q 18.359375 34.515625 30.609375 34.515625 
L 43.21875 34.515625 
L 43.21875 35.40625 
Q 43.21875 41.609375 39.140625 45 
Q 35.0625 48.390625 27.6875 48.390625 
Q 23 48.390625 18.546875 47.265625 
Q 14.109375 46.140625 10.015625 43.890625 
L 10.015625 52.203125 
Q 14.9375 54.109375 19.578125 55.046875 
Q 24.21875 56 28.609375 56 
Q 40.484375 56 46.34375 49.84375 
Q 52.203125 43.703125 52.203125 31.203125 
z
" id="DejaVuSans-97"/>
      <path d="M 54.890625 33.015625 
L 54.890625 0 
L 45.90625 0 
L 45.90625 32.71875 
Q 45.90625 40.484375 42.875 44.328125 
Q 39.84375 48.1875 33.796875 48.1875 
Q 26.515625 48.1875 22.3125 43.546875 
Q 18.109375 38.921875 18.109375 30.90625 
L 18.109375 0 
L 9.078125 0 
L 9.078125 54.6875 
L 18.109375 54.6875 
L 18.109375 46.1875 
Q 21.34375 51.125 25.703125 53.5625 
Q 30.078125 56 35.796875 56 
Q 45.21875 56 50.046875 50.171875 
Q 54.890625 44.34375 54.890625 33.015625 
z
" id="DejaVuSans-110"/>
      <path d="M 45.40625 46.390625 
L 45.40625 75.984375 
L 54.390625 75.984375 
L 54.390625 0 
L 45.40625 0 
L 45.40625 8.203125 
Q 42.578125 3.328125 38.25 0.953125 
Q 33.9375 -1.421875 27.875 -1.421875 
Q 17.96875 -1.421875 11.734375 6.484375 
Q 5.515625 14.40625 5.515625 27.296875 
Q 5.515625 40.1875 11.734375 48.09375 
Q 17.96875 56 27.875 56 
Q 33.9375 56 38.25 53.625 
Q 42.578125 51.265625 45.40625 46.390625 
z
M 14.796875 27.296875 
Q 14.796875 17.390625 18.875 11.75 
Q 22.953125 6.109375 30.078125 6.109375 
Q 37.203125 6.109375 41.296875 11.75 
Q 45.40625 17.390625 45.40625 27.296875 
Q 45.40625 37.203125 41.296875 42.84375 
Q 37.203125 48.484375 30.078125 48.484375 
Q 22.953125 48.484375 18.875 42.84375 
Q 14.796875 37.203125 14.796875 27.296875 
z
" id="DejaVuSans-100"/>
      <path d="M 34.1875 63.1875 
L 20.796875 26.90625 
L 47.609375 26.90625 
z
M 28.609375 72.90625 
L 39.796875 72.90625 
L 67.578125 0 
L 57.328125 0 
L 50.6875 18.703125 
L 17.828125 18.703125 
L 11.1875 0 
L 0.78125 0 
z
" id="DejaVuSans-65"/>
      <path d="M 8.5 21.578125 
L 8.5 54.6875 
L 17.484375 54.6875 
L 17.484375 21.921875 
Q 17.484375 14.15625 20.5 10.265625 
Q 23.53125 6.390625 29.59375 6.390625 
Q 36.859375 6.390625 41.078125 11.03125 
Q 45.3125 15.671875 45.3125 23.6875 
L 45.3125 54.6875 
L 54.296875 54.6875 
L 54.296875 0 
L 45.3125 0 
L 45.3125 8.40625 
Q 42.046875 3.421875 37.71875 1 
Q 33.40625 -1.421875 27.6875 -1.421875 
Q 18.265625 -1.421875 13.375 4.4375 
Q 8.5 10.296875 8.5 21.578125 
z
M 31.109375 56 
z
" id="DejaVuSans-117"/>
      <path d="M 41.109375 46.296875 
Q 39.59375 47.171875 37.8125 47.578125 
Q 36.03125 48 33.890625 48 
Q 26.265625 48 22.1875 43.046875 
Q 18.109375 38.09375 18.109375 28.8125 
L 18.109375 0 
L 9.078125 0 
L 9.078125 54.6875 
L 18.109375 54.6875 
L 18.109375 46.1875 
Q 20.953125 51.171875 25.484375 53.578125 
Q 30.03125 56 36.53125 56 
Q 37.453125 56 38.578125 55.875 
Q 39.703125 55.765625 41.0625 55.515625 
z
" id="DejaVuSans-114"/>
      <path d="M 32.171875 -5.078125 
Q 28.375 -14.84375 24.75 -17.8125 
Q 21.140625 -20.796875 15.09375 -20.796875 
L 7.90625 -20.796875 
L 7.90625 -13.28125 
L 13.1875 -13.28125 
Q 16.890625 -13.28125 18.9375 -11.515625 
Q 21 -9.765625 23.484375 -3.21875 
L 25.09375 0.875 
L 2.984375 54.6875 
L 12.5 54.6875 
L 29.59375 11.921875 
L 46.6875 54.6875 
L 56.203125 54.6875 
z
" id="DejaVuSans-121"/>
     </defs>
     <g transform="translate(18.827188 233.037656)rotate(-90)scale(0.1 -0.1)">
      <use xlink:href="#DejaVuSans-76"/>
      <use x="55.712891" xlink:href="#DejaVuSans-83"/>
      <use x="119.189453" xlink:href="#DejaVuSans-84"/>
      <use x="180.273438" xlink:href="#DejaVuSans-77"/>
      <use x="266.552734" xlink:href="#DejaVuSans-32"/>
      <use x="298.339844" xlink:href="#DejaVuSans-76"/>
      <use x="352.302734" xlink:href="#DejaVuSans-111"/>
      <use x="413.484375" xlink:href="#DejaVuSans-115"/>
      <use x="465.583984" xlink:href="#DejaVuSans-115"/>
      <use x="517.683594" xlink:href="#DejaVuSans-32"/>
      <use x="549.470703" xlink:href="#DejaVuSans-97"/>
      <use x="610.75" xlink:href="#DejaVuSans-110"/>
      <use x="674.128906" xlink:href="#DejaVuSans-100"/>
      <use x="737.605469" xlink:href="#DejaVuSans-32"/>
      <use x="769.392578" xlink:href="#DejaVuSans-65"/>
      <use x="836.050781" xlink:href="#DejaVuSans-99"/>
      <use x="891.03125" xlink:href="#DejaVuSans-99"/>
      <use x="946.011719" xlink:href="#DejaVuSans-117"/>
      <use x="1009.390625" xlink:href="#DejaVuSans-114"/>
      <use x="1050.503906" xlink:href="#DejaVuSans-97"/>
      <use x="1111.783203" xlink:href="#DejaVuSans-99"/>
      <use x="1166.763672" xlink:href="#DejaVuSans-121"/>
     </g>
    </g>
   </g>
   <g id="line2d_16">
    <path clip-path="url(#p00fe1ba7c0)" d="M 68.055 38.779286 
L 72.144899 51.94227 
L 76.234798 64.782863 
L 80.324697 90.038525 
L 84.414596 80.242959 
L 88.504495 102.054059 
L 92.594394 118.910713 
L 96.684293 132.638939 
L 100.774192 155.749646 
L 104.864091 161.564952 
L 108.95399 175.066654 
L 113.043889 183.072505 
L 117.133788 193.629339 
L 121.223687 198.978126 
L 125.313586 205.359273 
L 129.403485 209.459887 
L 133.493384 212.027028 
L 137.583283 213.505786 
L 141.673182 214.837534 
L 145.763081 215.864723 
L 149.85298 217.082571 
L 153.942879 217.544739 
L 158.032778 218.319777 
L 162.122677 218.890266 
L 166.212576 219.078306 
L 170.302475 219.086583 
L 174.392374 218.510494 
L 178.482273 219.012442 
L 182.572172 219.542728 
L 186.662071 220.020905 
L 190.75197 220.447418 
L 194.841869 220.580068 
L 198.931768 220.678071 
L 203.021667 220.733471 
L 207.111566 220.763649 
L 211.201465 220.781447 
L 215.291364 220.80119 
L 219.381263 220.819942 
L 223.471162 220.834359 
L 227.561061 220.845402 
L 231.65096 220.855027 
L 235.740859 220.864243 
L 239.830758 220.871987 
L 243.920657 220.87915 
L 248.010556 220.885505 
L 252.100455 220.891657 
L 256.190354 220.897289 
L 260.280253 220.902066 
L 264.370152 220.906837 
L 268.460051 220.911346 
L 272.549949 220.915598 
L 276.639848 220.919329 
L 280.729747 220.923042 
L 284.819646 220.926468 
L 288.909545 220.929685 
L 292.999444 220.932814 
L 297.089343 220.93559 
L 301.179242 220.938299 
L 305.269141 220.940952 
L 309.35904 220.943505 
L 313.448939 220.945861 
L 317.538838 220.948059 
L 321.628737 220.950271 
L 325.718636 220.952307 
L 329.808535 220.954187 
L 333.898434 220.956061 
L 337.988333 220.957839 
L 342.078232 220.959475 
L 346.168131 220.961126 
L 350.25803 220.962725 
L 354.347929 220.964176 
L 358.437828 220.96558 
L 362.527727 220.96702 
L 366.617626 220.968268 
L 370.707525 220.969493 
L 374.797424 220.970777 
L 378.887323 220.971903 
L 382.977222 220.973063 
L 387.067121 220.974221 
L 391.15702 220.975234 
L 395.246919 220.97623 
L 399.336818 220.977223 
L 403.426717 220.978216 
L 407.516616 220.979165 
L 411.606515 220.980111 
L 415.696414 220.980969 
L 419.786313 220.98185 
L 423.876212 220.982685 
L 427.966111 220.983478 
L 432.05601 220.984254 
L 436.145909 220.98505 
L 440.235808 220.985822 
L 444.325707 220.986495 
L 448.415606 220.987265 
L 452.505505 220.987908 
L 456.595404 220.98859 
L 460.685303 220.98921 
L 464.775202 220.989859 
L 468.865101 220.99042 
L 472.955 220.991072 
" style="fill:none;stroke:#1f77b4;stroke-dasharray:5.55,2.4;stroke-dashoffset:0;stroke-width:1.5;"/>
   </g>
   <g id="line2d_17">
    <path clip-path="url(#p00fe1ba7c0)" d="M 68.055 38.74 
L 72.144899 44.599172 
L 76.234798 51.042185 
L 80.324697 93.546555 
L 84.414596 64.65975 
L 88.504495 61.310579 
L 92.594394 82.09664 
L 96.684293 111.573415 
L 100.774192 128.696324 
L 104.864091 123.24741 
L 108.95399 128.248853 
L 113.043889 161.477097 
L 117.133788 153.95572 
L 121.223687 172.350164 
L 125.313586 175.705464 
L 129.403485 176.422135 
L 133.493384 172.998415 
L 137.583283 178.618772 
L 141.673182 173.002734 
L 145.763081 175.240903 
L 149.85298 179.744386 
L 153.942879 169.933201 
L 158.032778 172.850129 
L 162.122677 177.597116 
L 166.212576 153.793151 
L 170.302475 177.307885 
L 174.392374 174.796711 
L 178.482273 167.771268 
L 182.572172 174.074765 
L 186.662071 174.260871 
L 190.75197 173.999763 
L 194.841869 172.598943 
L 198.931768 174.143001 
L 203.021667 182.66263 
L 207.111566 186.610325 
L 211.201465 184.142493 
L 215.291364 182.660656 
L 219.381263 183.889127 
L 223.471162 184.92192 
L 227.561061 185.470655 
L 231.65096 185.042073 
L 235.740859 184.672256 
L 239.830758 185.036191 
L 243.920657 184.988634 
L 248.010556 184.328259 
L 252.100455 184.454407 
L 256.190354 183.923831 
L 260.280253 183.699936 
L 264.370152 184.31083 
L 268.460051 184.377709 
L 272.549949 184.337288 
L 276.639848 184.379148 
L 280.729747 184.074504 
L 284.819646 184.037435 
L 288.909545 184.779134 
L 292.999444 184.225525 
L 297.089343 184.774353 
L 301.179242 184.324249 
L 305.269141 184.416927 
L 309.35904 184.938927 
L 313.448939 184.548093 
L 317.538838 184.193824 
L 321.628737 184.519774 
L 325.718636 184.07072 
L 329.808535 184.32211 
L 333.898434 184.205073 
L 337.988333 184.030833 
L 342.078232 184.187089 
L 346.168131 183.909744 
L 350.25803 184.187551 
L 354.347929 184.216878 
L 358.437828 184.203479 
L 362.527727 184.094719 
L 366.617626 183.640986 
L 370.707525 183.979913 
L 374.797424 184.105053 
L 378.887323 184.416238 
L 382.977222 184.253463 
L 387.067121 184.403097 
L 391.15702 184.361051 
L 395.246919 184.324475 
L 399.336818 184.925241 
L 403.426717 184.531856 
L 407.516616 184.640226 
L 411.606515 184.583393 
L 415.696414 184.573131 
L 419.786313 184.658981 
L 423.876212 184.628329 
L 427.966111 184.525204 
L 432.05601 185.052551 
L 436.145909 185.022793 
L 440.235808 185.208806 
L 444.325707 184.988551 
L 448.415606 184.827761 
L 452.505505 185.021045 
L 456.595404 185.196611 
L 460.685303 185.167717 
L 464.775202 184.882156 
L 468.865101 182.827554 
L 472.955 184.970454 
" style="fill:none;stroke:#ff7f0e;stroke-dasharray:5.55,2.4;stroke-dashoffset:0;stroke-width:1.5;"/>
   </g>
   <g id="line2d_18">
    <path clip-path="url(#p00fe1ba7c0)" d="M 68.055 260.524049 
L 72.144899 261.973752 
L 76.234798 235.879093 
L 80.324697 177.890961 
L 84.414596 235.879093 
L 88.504495 180.790367 
L 92.594394 137.299268 
L 96.684293 115.553719 
L 100.774192 124.251938 
L 104.864091 108.305202 
L 108.95399 79.311136 
L 113.043889 90.908762 
L 117.133788 77.861433 
L 121.223687 76.411729 
L 125.313586 76.411729 
L 129.403485 72.062619 
L 133.493384 70.612916 
L 137.583283 70.612916 
L 141.673182 70.612916 
L 145.763081 69.163213 
L 149.85298 69.163213 
L 153.942879 69.163213 
L 158.032778 67.713509 
L 162.122677 67.713509 
L 166.212576 67.713509 
L 170.302475 67.713509 
L 174.392374 69.163213 
L 178.482273 67.713509 
L 182.572172 66.263806 
L 186.662071 66.263806 
L 190.75197 66.263806 
L 194.841869 66.263806 
L 198.931768 66.263806 
L 203.021667 66.263806 
L 207.111566 66.263806 
L 211.201465 66.263806 
L 215.291364 66.263806 
L 219.381263 66.263806 
L 223.471162 66.263806 
L 227.561061 66.263806 
L 231.65096 66.263806 
L 235.740859 66.263806 
L 239.830758 66.263806 
L 243.920657 66.263806 
L 248.010556 66.263806 
L 252.100455 66.263806 
L 256.190354 66.263806 
L 260.280253 66.263806 
L 264.370152 66.263806 
L 268.460051 66.263806 
L 272.549949 66.263806 
L 276.639848 66.263806 
L 280.729747 66.263806 
L 284.819646 66.263806 
L 288.909545 66.263806 
L 292.999444 66.263806 
L 297.089343 66.263806 
L 301.179242 66.263806 
L 305.269141 66.263806 
L 309.35904 66.263806 
L 313.448939 66.263806 
L 317.538838 66.263806 
L 321.628737 66.263806 
L 325.718636 66.263806 
L 329.808535 66.263806 
L 333.898434 66.263806 
L 337.988333 66.263806 
L 342.078232 66.263806 
L 346.168131 66.263806 
L 350.25803 66.263806 
L 354.347929 66.263806 
L 358.437828 66.263806 
L 362.527727 66.263806 
L 366.617626 66.263806 
L 370.707525 66.263806 
L 374.797424 66.263806 
L 378.887323 66.263806 
L 382.977222 66.263806 
L 387.067121 66.263806 
L 391.15702 66.263806 
L 395.246919 66.263806 
L 399.336818 66.263806 
L 403.426717 66.263806 
L 407.516616 66.263806 
L 411.606515 66.263806 
L 415.696414 66.263806 
L 419.786313 66.263806 
L 423.876212 66.263806 
L 427.966111 66.263806 
L 432.05601 66.263806 
L 436.145909 66.263806 
L 440.235808 66.263806 
L 444.325707 66.263806 
L 448.415606 66.263806 
L 452.505505 66.263806 
L 456.595404 66.263806 
L 460.685303 66.263806 
L 464.775202 66.263806 
L 468.865101 66.263806 
L 472.955 66.263806 
" style="fill:none;stroke:#2ca02c;stroke-linecap:square;stroke-width:1.5;"/>
   </g>
   <g id="line2d_19">
    <path clip-path="url(#p00fe1ba7c0)" d="M 68.055 304.74 
L 72.144899 304.74 
L 76.234798 289.518115 
L 80.324697 188.038884 
L 84.414596 238.7785 
L 88.504495 279.370192 
L 92.594394 172.816999 
L 96.684293 172.816999 
L 100.774192 167.743038 
L 104.864091 147.447191 
L 108.95399 162.669076 
L 113.043889 106.855499 
L 117.133788 122.077383 
L 121.223687 106.855499 
L 125.313586 101.781537 
L 129.403485 101.781537 
L 133.493384 111.92946 
L 137.583283 101.781537 
L 141.673182 111.92946 
L 145.763081 111.92946 
L 149.85298 111.92946 
L 153.942879 117.003422 
L 158.032778 106.855499 
L 162.122677 106.855499 
L 166.212576 137.299268 
L 170.302475 111.92946 
L 174.392374 111.92946 
L 178.482273 111.92946 
L 182.572172 111.92946 
L 186.662071 111.92946 
L 190.75197 111.92946 
L 194.841869 111.92946 
L 198.931768 111.92946 
L 203.021667 106.855499 
L 207.111566 101.781537 
L 211.201465 101.781537 
L 215.291364 106.855499 
L 219.381263 101.781537 
L 223.471162 101.781537 
L 227.561061 101.781537 
L 231.65096 101.781537 
L 235.740859 101.781537 
L 239.830758 101.781537 
L 243.920657 101.781537 
L 248.010556 101.781537 
L 252.100455 101.781537 
L 256.190354 101.781537 
L 260.280253 106.855499 
L 264.370152 101.781537 
L 268.460051 101.781537 
L 272.549949 101.781537 
L 276.639848 101.781537 
L 280.729747 106.855499 
L 284.819646 106.855499 
L 288.909545 96.707576 
L 292.999444 106.855499 
L 297.089343 96.707576 
L 301.179242 101.781537 
L 305.269141 101.781537 
L 309.35904 96.707576 
L 313.448939 101.781537 
L 317.538838 101.781537 
L 321.628737 101.781537 
L 325.718636 101.781537 
L 329.808535 101.781537 
L 333.898434 101.781537 
L 337.988333 101.781537 
L 342.078232 101.781537 
L 346.168131 106.855499 
L 350.25803 101.781537 
L 354.347929 101.781537 
L 358.437828 101.781537 
L 362.527727 101.781537 
L 366.617626 106.855499 
L 370.707525 101.781537 
L 374.797424 101.781537 
L 378.887323 101.781537 
L 382.977222 101.781537 
L 387.067121 101.781537 
L 391.15702 101.781537 
L 395.246919 101.781537 
L 399.336818 101.781537 
L 403.426717 101.781537 
L 407.516616 101.781537 
L 411.606515 101.781537 
L 415.696414 101.781537 
L 419.786313 101.781537 
L 423.876212 101.781537 
L 427.966111 101.781537 
L 432.05601 101.781537 
L 436.145909 101.781537 
L 440.235808 101.781537 
L 444.325707 101.781537 
L 448.415606 101.781537 
L 452.505505 101.781537 
L 456.595404 101.781537 
L 460.685303 101.781537 
L 464.775202 101.781537 
L 468.865101 106.855499 
L 472.955 101.781537 
" style="fill:none;stroke:#d62728;stroke-linecap:square;stroke-width:1.5;"/>
   </g>
   <g id="patch_3">
    <path d="M 47.81 318.04 
L 47.81 25.44 
" style="fill:none;stroke:#000000;stroke-linecap:square;stroke-linejoin:miter;stroke-width:0.8;"/>
   </g>
   <g id="patch_4">
    <path d="M 493.2 318.04 
L 493.2 25.44 
" style="fill:none;stroke:#000000;stroke-linecap:square;stroke-linejoin:miter;stroke-width:0.8;"/>
   </g>
   <g id="patch_5">
    <path d="M 47.81 318.04 
L 493.2 318.04 
" style="fill:none;stroke:#000000;stroke-linecap:square;stroke-linejoin:miter;stroke-width:0.8;"/>
   </g>
   <g id="patch_6">
    <path d="M 47.81 25.44 
L 493.2 25.44 
" style="fill:none;stroke:#000000;stroke-linecap:square;stroke-linejoin:miter;stroke-width:0.8;"/>
   </g>
   <g id="text_18">
    <!-- LSTM Training and Validation Losses for Base Parameters -->
    <defs>
     <path d="M 9.421875 54.6875 
L 18.40625 54.6875 
L 18.40625 0 
L 9.421875 0 
z
M 9.421875 75.984375 
L 18.40625 75.984375 
L 18.40625 64.59375 
L 9.421875 64.59375 
z
" id="DejaVuSans-105"/>
     <path d="M 45.40625 27.984375 
Q 45.40625 37.75 41.375 43.109375 
Q 37.359375 48.484375 30.078125 48.484375 
Q 22.859375 48.484375 18.828125 43.109375 
Q 14.796875 37.75 14.796875 27.984375 
Q 14.796875 18.265625 18.828125 12.890625 
Q 22.859375 7.515625 30.078125 7.515625 
Q 37.359375 7.515625 41.375 12.890625 
Q 45.40625 18.265625 45.40625 27.984375 
z
M 54.390625 6.78125 
Q 54.390625 -7.171875 48.1875 -13.984375 
Q 42 -20.796875 29.203125 -20.796875 
Q 24.46875 -20.796875 20.265625 -20.09375 
Q 16.0625 -19.390625 12.109375 -17.921875 
L 12.109375 -9.1875 
Q 16.0625 -11.328125 19.921875 -12.34375 
Q 23.78125 -13.375 27.78125 -13.375 
Q 36.625 -13.375 41.015625 -8.765625 
Q 45.40625 -4.15625 45.40625 5.171875 
L 45.40625 9.625 
Q 42.625 4.78125 38.28125 2.390625 
Q 33.9375 0 27.875 0 
Q 17.828125 0 11.671875 7.65625 
Q 5.515625 15.328125 5.515625 27.984375 
Q 5.515625 40.671875 11.671875 48.328125 
Q 17.828125 56 27.875 56 
Q 33.9375 56 38.28125 53.609375 
Q 42.625 51.21875 45.40625 46.390625 
L 45.40625 54.6875 
L 54.390625 54.6875 
z
" id="DejaVuSans-103"/>
     <path d="M 28.609375 0 
L 0.78125 72.90625 
L 11.078125 72.90625 
L 34.1875 11.53125 
L 57.328125 72.90625 
L 67.578125 72.90625 
L 39.796875 0 
z
" id="DejaVuSans-86"/>
     <path d="M 9.421875 75.984375 
L 18.40625 75.984375 
L 18.40625 0 
L 9.421875 0 
z
" id="DejaVuSans-108"/>
     <path d="M 18.3125 70.21875 
L 18.3125 54.6875 
L 36.8125 54.6875 
L 36.8125 47.703125 
L 18.3125 47.703125 
L 18.3125 18.015625 
Q 18.3125 11.328125 20.140625 9.421875 
Q 21.96875 7.515625 27.59375 7.515625 
L 36.8125 7.515625 
L 36.8125 0 
L 27.59375 0 
Q 17.1875 0 13.234375 3.875 
Q 9.28125 7.765625 9.28125 18.015625 
L 9.28125 47.703125 
L 2.6875 47.703125 
L 2.6875 54.6875 
L 9.28125 54.6875 
L 9.28125 70.21875 
z
" id="DejaVuSans-116"/>
     <path d="M 56.203125 29.59375 
L 56.203125 25.203125 
L 14.890625 25.203125 
Q 15.484375 15.921875 20.484375 11.0625 
Q 25.484375 6.203125 34.421875 6.203125 
Q 39.59375 6.203125 44.453125 7.46875 
Q 49.3125 8.734375 54.109375 11.28125 
L 54.109375 2.78125 
Q 49.265625 0.734375 44.1875 -0.34375 
Q 39.109375 -1.421875 33.890625 -1.421875 
Q 20.796875 -1.421875 13.15625 6.1875 
Q 5.515625 13.8125 5.515625 26.8125 
Q 5.515625 40.234375 12.765625 48.109375 
Q 20.015625 56 32.328125 56 
Q 43.359375 56 49.78125 48.890625 
Q 56.203125 41.796875 56.203125 29.59375 
z
M 47.21875 32.234375 
Q 47.125 39.59375 43.09375 43.984375 
Q 39.0625 48.390625 32.421875 48.390625 
Q 24.90625 48.390625 20.390625 44.140625 
Q 15.875 39.890625 15.1875 32.171875 
z
" id="DejaVuSans-101"/>
     <path d="M 37.109375 75.984375 
L 37.109375 68.5 
L 28.515625 68.5 
Q 23.6875 68.5 21.796875 66.546875 
Q 19.921875 64.59375 19.921875 59.515625 
L 19.921875 54.6875 
L 34.71875 54.6875 
L 34.71875 47.703125 
L 19.921875 47.703125 
L 19.921875 0 
L 10.890625 0 
L 10.890625 47.703125 
L 2.296875 47.703125 
L 2.296875 54.6875 
L 10.890625 54.6875 
L 10.890625 58.5 
Q 10.890625 67.625 15.140625 71.796875 
Q 19.390625 75.984375 28.609375 75.984375 
z
" id="DejaVuSans-102"/>
     <path d="M 19.671875 34.8125 
L 19.671875 8.109375 
L 35.5 8.109375 
Q 43.453125 8.109375 47.28125 11.40625 
Q 51.125 14.703125 51.125 21.484375 
Q 51.125 28.328125 47.28125 31.5625 
Q 43.453125 34.8125 35.5 34.8125 
z
M 19.671875 64.796875 
L 19.671875 42.828125 
L 34.28125 42.828125 
Q 41.5 42.828125 45.03125 45.53125 
Q 48.578125 48.25 48.578125 53.8125 
Q 48.578125 59.328125 45.03125 62.0625 
Q 41.5 64.796875 34.28125 64.796875 
z
M 9.8125 72.90625 
L 35.015625 72.90625 
Q 46.296875 72.90625 52.390625 68.21875 
Q 58.5 63.53125 58.5 54.890625 
Q 58.5 48.1875 55.375 44.234375 
Q 52.25 40.28125 46.1875 39.3125 
Q 53.46875 37.75 57.5 32.78125 
Q 61.53125 27.828125 61.53125 20.40625 
Q 61.53125 10.640625 54.890625 5.3125 
Q 48.25 0 35.984375 0 
L 9.8125 0 
z
" id="DejaVuSans-66"/>
     <path d="M 19.671875 64.796875 
L 19.671875 37.40625 
L 32.078125 37.40625 
Q 38.96875 37.40625 42.71875 40.96875 
Q 46.484375 44.53125 46.484375 51.125 
Q 46.484375 57.671875 42.71875 61.234375 
Q 38.96875 64.796875 32.078125 64.796875 
z
M 9.8125 72.90625 
L 32.078125 72.90625 
Q 44.34375 72.90625 50.609375 67.359375 
Q 56.890625 61.8125 56.890625 51.125 
Q 56.890625 40.328125 50.609375 34.8125 
Q 44.34375 29.296875 32.078125 29.296875 
L 19.671875 29.296875 
L 19.671875 0 
L 9.8125 0 
z
" id="DejaVuSans-80"/>
     <path d="M 52 44.1875 
Q 55.375 50.25 60.0625 53.125 
Q 64.75 56 71.09375 56 
Q 79.640625 56 84.28125 50.015625 
Q 88.921875 44.046875 88.921875 33.015625 
L 88.921875 0 
L 79.890625 0 
L 79.890625 32.71875 
Q 79.890625 40.578125 77.09375 44.375 
Q 74.3125 48.1875 68.609375 48.1875 
Q 61.625 48.1875 57.5625 43.546875 
Q 53.515625 38.921875 53.515625 30.90625 
L 53.515625 0 
L 44.484375 0 
L 44.484375 32.71875 
Q 44.484375 40.625 41.703125 44.40625 
Q 38.921875 48.1875 33.109375 48.1875 
Q 26.21875 48.1875 22.15625 43.53125 
Q 18.109375 38.875 18.109375 30.90625 
L 18.109375 0 
L 9.078125 0 
L 9.078125 54.6875 
L 18.109375 54.6875 
L 18.109375 46.1875 
Q 21.1875 51.21875 25.484375 53.609375 
Q 29.78125 56 35.6875 56 
Q 41.65625 56 45.828125 52.96875 
Q 50 49.953125 52 44.1875 
z
" id="DejaVuSans-109"/>
    </defs>
    <g transform="translate(99.395312 19.44)scale(0.12 -0.12)">
     <use xlink:href="#DejaVuSans-76"/>
     <use x="55.712891" xlink:href="#DejaVuSans-83"/>
     <use x="119.189453" xlink:href="#DejaVuSans-84"/>
     <use x="180.273438" xlink:href="#DejaVuSans-77"/>
     <use x="266.552734" xlink:href="#DejaVuSans-32"/>
     <use x="298.339844" xlink:href="#DejaVuSans-84"/>
     <use x="344.673828" xlink:href="#DejaVuSans-114"/>
     <use x="385.787109" xlink:href="#DejaVuSans-97"/>
     <use x="447.066406" xlink:href="#DejaVuSans-105"/>
     <use x="474.849609" xlink:href="#DejaVuSans-110"/>
     <use x="538.228516" xlink:href="#DejaVuSans-105"/>
     <use x="566.011719" xlink:href="#DejaVuSans-110"/>
     <use x="629.390625" xlink:href="#DejaVuSans-103"/>
     <use x="692.867188" xlink:href="#DejaVuSans-32"/>
     <use x="724.654297" xlink:href="#DejaVuSans-97"/>
     <use x="785.933594" xlink:href="#DejaVuSans-110"/>
     <use x="849.3125" xlink:href="#DejaVuSans-100"/>
     <use x="912.789062" xlink:href="#DejaVuSans-32"/>
     <use x="944.576172" xlink:href="#DejaVuSans-86"/>
     <use x="1005.234375" xlink:href="#DejaVuSans-97"/>
     <use x="1066.513672" xlink:href="#DejaVuSans-108"/>
     <use x="1094.296875" xlink:href="#DejaVuSans-105"/>
     <use x="1122.080078" xlink:href="#DejaVuSans-100"/>
     <use x="1185.556641" xlink:href="#DejaVuSans-97"/>
     <use x="1246.835938" xlink:href="#DejaVuSans-116"/>
     <use x="1286.044922" xlink:href="#DejaVuSans-105"/>
     <use x="1313.828125" xlink:href="#DejaVuSans-111"/>
     <use x="1375.009766" xlink:href="#DejaVuSans-110"/>
     <use x="1438.388672" xlink:href="#DejaVuSans-32"/>
     <use x="1470.175781" xlink:href="#DejaVuSans-76"/>
     <use x="1524.138672" xlink:href="#DejaVuSans-111"/>
     <use x="1585.320312" xlink:href="#DejaVuSans-115"/>
     <use x="1637.419922" xlink:href="#DejaVuSans-115"/>
     <use x="1689.519531" xlink:href="#DejaVuSans-101"/>
     <use x="1751.042969" xlink:href="#DejaVuSans-115"/>
     <use x="1803.142578" xlink:href="#DejaVuSans-32"/>
     <use x="1834.929688" xlink:href="#DejaVuSans-102"/>
     <use x="1870.134766" xlink:href="#DejaVuSans-111"/>
     <use x="1931.316406" xlink:href="#DejaVuSans-114"/>
     <use x="1972.429688" xlink:href="#DejaVuSans-32"/>
     <use x="2004.216797" xlink:href="#DejaVuSans-66"/>
     <use x="2072.820312" xlink:href="#DejaVuSans-97"/>
     <use x="2134.099609" xlink:href="#DejaVuSans-115"/>
     <use x="2186.199219" xlink:href="#DejaVuSans-101"/>
     <use x="2247.722656" xlink:href="#DejaVuSans-32"/>
     <use x="2279.509766" xlink:href="#DejaVuSans-80"/>
     <use x="2335.3125" xlink:href="#DejaVuSans-97"/>
     <use x="2396.591797" xlink:href="#DejaVuSans-114"/>
     <use x="2437.705078" xlink:href="#DejaVuSans-97"/>
     <use x="2498.984375" xlink:href="#DejaVuSans-109"/>
     <use x="2596.396484" xlink:href="#DejaVuSans-101"/>
     <use x="2657.919922" xlink:href="#DejaVuSans-116"/>
     <use x="2697.128906" xlink:href="#DejaVuSans-101"/>
     <use x="2758.652344" xlink:href="#DejaVuSans-114"/>
     <use x="2799.765625" xlink:href="#DejaVuSans-115"/>
    </g>
   </g>
   <g id="legend_1">
    <g id="patch_7">
     <path d="M 326.15 313.04 
L 486.2 313.04 
Q 488.2 313.04 488.2 311.04 
L 488.2 253.3275 
Q 488.2 251.3275 486.2 251.3275 
L 326.15 251.3275 
Q 324.15 251.3275 324.15 253.3275 
L 324.15 311.04 
Q 324.15 313.04 326.15 313.04 
z
" style="fill:#ffffff;opacity:0.8;stroke:#cccccc;stroke-linejoin:miter;"/>
    </g>
    <g id="line2d_20">
     <path d="M 328.15 259.425938 
L 348.15 259.425938 
" style="fill:none;stroke:#1f77b4;stroke-dasharray:5.55,2.4;stroke-dashoffset:0;stroke-width:1.5;"/>
    </g>
    <g id="line2d_21"/>
    <g id="text_19">
     <!-- LSTM Training Loss -->
     <g transform="translate(356.15 262.925938)scale(0.1 -0.1)">
      <use xlink:href="#DejaVuSans-76"/>
      <use x="55.712891" xlink:href="#DejaVuSans-83"/>
      <use x="119.189453" xlink:href="#DejaVuSans-84"/>
      <use x="180.273438" xlink:href="#DejaVuSans-77"/>
      <use x="266.552734" xlink:href="#DejaVuSans-32"/>
      <use x="298.339844" xlink:href="#DejaVuSans-84"/>
      <use x="344.673828" xlink:href="#DejaVuSans-114"/>
      <use x="385.787109" xlink:href="#DejaVuSans-97"/>
      <use x="447.066406" xlink:href="#DejaVuSans-105"/>
      <use x="474.849609" xlink:href="#DejaVuSans-110"/>
      <use x="538.228516" xlink:href="#DejaVuSans-105"/>
      <use x="566.011719" xlink:href="#DejaVuSans-110"/>
      <use x="629.390625" xlink:href="#DejaVuSans-103"/>
      <use x="692.867188" xlink:href="#DejaVuSans-32"/>
      <use x="724.654297" xlink:href="#DejaVuSans-76"/>
      <use x="778.617188" xlink:href="#DejaVuSans-111"/>
      <use x="839.798828" xlink:href="#DejaVuSans-115"/>
      <use x="891.898438" xlink:href="#DejaVuSans-115"/>
     </g>
    </g>
    <g id="line2d_22">
     <path d="M 328.15 274.104062 
L 348.15 274.104062 
" style="fill:none;stroke:#ff7f0e;stroke-dasharray:5.55,2.4;stroke-dashoffset:0;stroke-width:1.5;"/>
    </g>
    <g id="line2d_23"/>
    <g id="text_20">
     <!-- LSTM Validation Loss -->
     <g transform="translate(356.15 277.604062)scale(0.1 -0.1)">
      <use xlink:href="#DejaVuSans-76"/>
      <use x="55.712891" xlink:href="#DejaVuSans-83"/>
      <use x="119.189453" xlink:href="#DejaVuSans-84"/>
      <use x="180.273438" xlink:href="#DejaVuSans-77"/>
      <use x="266.552734" xlink:href="#DejaVuSans-32"/>
      <use x="298.339844" xlink:href="#DejaVuSans-86"/>
      <use x="358.998047" xlink:href="#DejaVuSans-97"/>
      <use x="420.277344" xlink:href="#DejaVuSans-108"/>
      <use x="448.060547" xlink:href="#DejaVuSans-105"/>
      <use x="475.84375" xlink:href="#DejaVuSans-100"/>
      <use x="539.320312" xlink:href="#DejaVuSans-97"/>
      <use x="600.599609" xlink:href="#DejaVuSans-116"/>
      <use x="639.808594" xlink:href="#DejaVuSans-105"/>
      <use x="667.591797" xlink:href="#DejaVuSans-111"/>
      <use x="728.773438" xlink:href="#DejaVuSans-110"/>
      <use x="792.152344" xlink:href="#DejaVuSans-32"/>
      <use x="823.939453" xlink:href="#DejaVuSans-76"/>
      <use x="877.902344" xlink:href="#DejaVuSans-111"/>
      <use x="939.083984" xlink:href="#DejaVuSans-115"/>
      <use x="991.183594" xlink:href="#DejaVuSans-115"/>
     </g>
    </g>
    <g id="line2d_24">
     <path d="M 328.15 288.782188 
L 348.15 288.782188 
" style="fill:none;stroke:#2ca02c;stroke-linecap:square;stroke-width:1.5;"/>
    </g>
    <g id="line2d_25"/>
    <g id="text_21">
     <!-- LSTM Training Accuracy -->
     <g transform="translate(356.15 292.282188)scale(0.1 -0.1)">
      <use xlink:href="#DejaVuSans-76"/>
      <use x="55.712891" xlink:href="#DejaVuSans-83"/>
      <use x="119.189453" xlink:href="#DejaVuSans-84"/>
      <use x="180.273438" xlink:href="#DejaVuSans-77"/>
      <use x="266.552734" xlink:href="#DejaVuSans-32"/>
      <use x="298.339844" xlink:href="#DejaVuSans-84"/>
      <use x="344.673828" xlink:href="#DejaVuSans-114"/>
      <use x="385.787109" xlink:href="#DejaVuSans-97"/>
      <use x="447.066406" xlink:href="#DejaVuSans-105"/>
      <use x="474.849609" xlink:href="#DejaVuSans-110"/>
      <use x="538.228516" xlink:href="#DejaVuSans-105"/>
      <use x="566.011719" xlink:href="#DejaVuSans-110"/>
      <use x="629.390625" xlink:href="#DejaVuSans-103"/>
      <use x="692.867188" xlink:href="#DejaVuSans-32"/>
      <use x="724.654297" xlink:href="#DejaVuSans-65"/>
      <use x="791.3125" xlink:href="#DejaVuSans-99"/>
      <use x="846.292969" xlink:href="#DejaVuSans-99"/>
      <use x="901.273438" xlink:href="#DejaVuSans-117"/>
      <use x="964.652344" xlink:href="#DejaVuSans-114"/>
      <use x="1005.765625" xlink:href="#DejaVuSans-97"/>
      <use x="1067.044922" xlink:href="#DejaVuSans-99"/>
      <use x="1122.025391" xlink:href="#DejaVuSans-121"/>
     </g>
    </g>
    <g id="line2d_26">
     <path d="M 328.15 303.460312 
L 348.15 303.460312 
" style="fill:none;stroke:#d62728;stroke-linecap:square;stroke-width:1.5;"/>
    </g>
    <g id="line2d_27"/>
    <g id="text_22">
     <!-- LSTM Validation Accuracy -->
     <g transform="translate(356.15 306.960312)scale(0.1 -0.1)">
      <use xlink:href="#DejaVuSans-76"/>
      <use x="55.712891" xlink:href="#DejaVuSans-83"/>
      <use x="119.189453" xlink:href="#DejaVuSans-84"/>
      <use x="180.273438" xlink:href="#DejaVuSans-77"/>
      <use x="266.552734" xlink:href="#DejaVuSans-32"/>
      <use x="298.339844" xlink:href="#DejaVuSans-86"/>
      <use x="358.998047" xlink:href="#DejaVuSans-97"/>
      <use x="420.277344" xlink:href="#DejaVuSans-108"/>
      <use x="448.060547" xlink:href="#DejaVuSans-105"/>
      <use x="475.84375" xlink:href="#DejaVuSans-100"/>
      <use x="539.320312" xlink:href="#DejaVuSans-97"/>
      <use x="600.599609" xlink:href="#DejaVuSans-116"/>
      <use x="639.808594" xlink:href="#DejaVuSans-105"/>
      <use x="667.591797" xlink:href="#DejaVuSans-111"/>
      <use x="728.773438" xlink:href="#DejaVuSans-110"/>
      <use x="792.152344" xlink:href="#DejaVuSans-32"/>
      <use x="823.939453" xlink:href="#DejaVuSans-65"/>
      <use x="890.597656" xlink:href="#DejaVuSans-99"/>
      <use x="945.578125" xlink:href="#DejaVuSans-99"/>
      <use x="1000.558594" xlink:href="#DejaVuSans-117"/>
      <use x="1063.9375" xlink:href="#DejaVuSans-114"/>
      <use x="1105.050781" xlink:href="#DejaVuSans-97"/>
      <use x="1166.330078" xlink:href="#DejaVuSans-99"/>
      <use x="1221.310547" xlink:href="#DejaVuSans-121"/>
     </g>
    </g>
   </g>
  </g>
 </g>
 <defs>
  <clipPath id="p00fe1ba7c0">
   <rect height="292.6" width="445.39" x="47.81" y="25.44"/>
  </clipPath>
 </defs>
</svg>
