<?xml version="1.0" encoding="utf-8" standalone="no"?>
<!DOCTYPE svg PUBLIC "-//W3C//DTD SVG 1.1//EN"
  "http://www.w3.org/Graphics/SVG/1.1/DTD/svg11.dtd">
<!-- Created with matplotlib (https://matplotlib.org/) -->
<svg height="360pt" version="1.1" viewBox="0 0 504 360" width="504pt" xmlns="http://www.w3.org/2000/svg" xmlns:xlink="http://www.w3.org/1999/xlink">
 <defs>
  <style type="text/css">
*{stroke-linecap:butt;stroke-linejoin:round;}
  </style>
 </defs>
 <g id="figure_1">
  <g id="patch_1">
   <path d="M 0 360 
L 504 360 
L 504 0 
L 0 0 
z
" style="fill:#ffffff;"/>
  </g>
  <g id="axes_1">
   <g id="patch_2">
    <path d="M 51.615 315.52 
L 452.385 315.52 
L 452.385 27.96 
L 51.615 27.96 
z
" style="fill:#ffffff;"/>
   </g>
   <g id="matplotlib.axis_1">
    <g id="xtick_1">
     <g id="line2d_1">
      <defs>
       <path d="M 0 0 
L 0 3.5 
" id="m781895bfd2" style="stroke:#000000;stroke-width:0.8;"/>
      </defs>
      <g>
       <use style="stroke:#000000;stroke-width:0.8;" x="64.551581" xlink:href="#m781895bfd2" y="315.52"/>
      </g>
     </g>
     <g id="text_1">
      <!-- 0 -->
      <defs>
       <path d="M 31.78125 66.40625 
Q 24.171875 66.40625 20.328125 58.90625 
Q 16.5 51.421875 16.5 36.375 
Q 16.5 21.390625 20.328125 13.890625 
Q 24.171875 6.390625 31.78125 6.390625 
Q 39.453125 6.390625 43.28125 13.890625 
Q 47.125 21.390625 47.125 36.375 
Q 47.125 51.421875 43.28125 58.90625 
Q 39.453125 66.40625 31.78125 66.40625 
z
M 31.78125 74.21875 
Q 44.046875 74.21875 50.515625 64.515625 
Q 56.984375 54.828125 56.984375 36.375 
Q 56.984375 17.96875 50.515625 8.265625 
Q 44.046875 -1.421875 31.78125 -1.421875 
Q 19.53125 -1.421875 13.0625 8.265625 
Q 6.59375 17.96875 6.59375 36.375 
Q 6.59375 54.828125 13.0625 64.515625 
Q 19.53125 74.21875 31.78125 74.21875 
z
" id="DejaVuSans-48"/>
      </defs>
      <g transform="translate(61.052206 330.878281)scale(0.11 -0.11)">
       <use xlink:href="#DejaVuSans-48"/>
      </g>
     </g>
    </g>
    <g id="xtick_2">
     <g id="line2d_2">
      <g>
       <use style="stroke:#000000;stroke-width:0.8;" x="117.353953" xlink:href="#m781895bfd2" y="315.52"/>
      </g>
     </g>
     <g id="text_2">
      <!-- 10 -->
      <defs>
       <path d="M 12.40625 8.296875 
L 28.515625 8.296875 
L 28.515625 63.921875 
L 10.984375 60.40625 
L 10.984375 69.390625 
L 28.421875 72.90625 
L 38.28125 72.90625 
L 38.28125 8.296875 
L 54.390625 8.296875 
L 54.390625 0 
L 12.40625 0 
z
" id="DejaVuSans-49"/>
      </defs>
      <g transform="translate(110.355203 330.878281)scale(0.11 -0.11)">
       <use xlink:href="#DejaVuSans-49"/>
       <use x="63.623047" xlink:href="#DejaVuSans-48"/>
      </g>
     </g>
    </g>
    <g id="xtick_3">
     <g id="line2d_3">
      <g>
       <use style="stroke:#000000;stroke-width:0.8;" x="170.156324" xlink:href="#m781895bfd2" y="315.52"/>
      </g>
     </g>
     <g id="text_3">
      <!-- 20 -->
      <defs>
       <path d="M 19.1875 8.296875 
L 53.609375 8.296875 
L 53.609375 0 
L 7.328125 0 
L 7.328125 8.296875 
Q 12.9375 14.109375 22.625 23.890625 
Q 32.328125 33.6875 34.8125 36.53125 
Q 39.546875 41.84375 41.421875 45.53125 
Q 43.3125 49.21875 43.3125 52.78125 
Q 43.3125 58.59375 39.234375 62.25 
Q 35.15625 65.921875 28.609375 65.921875 
Q 23.96875 65.921875 18.8125 64.3125 
Q 13.671875 62.703125 7.8125 59.421875 
L 7.8125 69.390625 
Q 13.765625 71.78125 18.9375 73 
Q 24.125 74.21875 28.421875 74.21875 
Q 39.75 74.21875 46.484375 68.546875 
Q 53.21875 62.890625 53.21875 53.421875 
Q 53.21875 48.921875 51.53125 44.890625 
Q 49.859375 40.875 45.40625 35.40625 
Q 44.1875 33.984375 37.640625 27.21875 
Q 31.109375 20.453125 19.1875 8.296875 
z
" id="DejaVuSans-50"/>
      </defs>
      <g transform="translate(163.157574 330.878281)scale(0.11 -0.11)">
       <use xlink:href="#DejaVuSans-50"/>
       <use x="63.623047" xlink:href="#DejaVuSans-48"/>
      </g>
     </g>
    </g>
    <g id="xtick_4">
     <g id="line2d_4">
      <g>
       <use style="stroke:#000000;stroke-width:0.8;" x="222.958696" xlink:href="#m781895bfd2" y="315.52"/>
      </g>
     </g>
     <g id="text_4">
      <!-- 30 -->
      <defs>
       <path d="M 40.578125 39.3125 
Q 47.65625 37.796875 51.625 33 
Q 55.609375 28.21875 55.609375 21.1875 
Q 55.609375 10.40625 48.1875 4.484375 
Q 40.765625 -1.421875 27.09375 -1.421875 
Q 22.515625 -1.421875 17.65625 -0.515625 
Q 12.796875 0.390625 7.625 2.203125 
L 7.625 11.71875 
Q 11.71875 9.328125 16.59375 8.109375 
Q 21.484375 6.890625 26.8125 6.890625 
Q 36.078125 6.890625 40.9375 10.546875 
Q 45.796875 14.203125 45.796875 21.1875 
Q 45.796875 27.640625 41.28125 31.265625 
Q 36.765625 34.90625 28.71875 34.90625 
L 20.21875 34.90625 
L 20.21875 43.015625 
L 29.109375 43.015625 
Q 36.375 43.015625 40.234375 45.921875 
Q 44.09375 48.828125 44.09375 54.296875 
Q 44.09375 59.90625 40.109375 62.90625 
Q 36.140625 65.921875 28.71875 65.921875 
Q 24.65625 65.921875 20.015625 65.03125 
Q 15.375 64.15625 9.8125 62.3125 
L 9.8125 71.09375 
Q 15.4375 72.65625 20.34375 73.4375 
Q 25.25 74.21875 29.59375 74.21875 
Q 40.828125 74.21875 47.359375 69.109375 
Q 53.90625 64.015625 53.90625 55.328125 
Q 53.90625 49.265625 50.4375 45.09375 
Q 46.96875 40.921875 40.578125 39.3125 
z
" id="DejaVuSans-51"/>
      </defs>
      <g transform="translate(215.959946 330.878281)scale(0.11 -0.11)">
       <use xlink:href="#DejaVuSans-51"/>
       <use x="63.623047" xlink:href="#DejaVuSans-48"/>
      </g>
     </g>
    </g>
    <g id="xtick_5">
     <g id="line2d_5">
      <g>
       <use style="stroke:#000000;stroke-width:0.8;" x="275.761067" xlink:href="#m781895bfd2" y="315.52"/>
      </g>
     </g>
     <g id="text_5">
      <!-- 40 -->
      <defs>
       <path d="M 37.796875 64.3125 
L 12.890625 25.390625 
L 37.796875 25.390625 
z
M 35.203125 72.90625 
L 47.609375 72.90625 
L 47.609375 25.390625 
L 58.015625 25.390625 
L 58.015625 17.1875 
L 47.609375 17.1875 
L 47.609375 0 
L 37.796875 0 
L 37.796875 17.1875 
L 4.890625 17.1875 
L 4.890625 26.703125 
z
" id="DejaVuSans-52"/>
      </defs>
      <g transform="translate(268.762317 330.878281)scale(0.11 -0.11)">
       <use xlink:href="#DejaVuSans-52"/>
       <use x="63.623047" xlink:href="#DejaVuSans-48"/>
      </g>
     </g>
    </g>
    <g id="xtick_6">
     <g id="line2d_6">
      <g>
       <use style="stroke:#000000;stroke-width:0.8;" x="328.563439" xlink:href="#m781895bfd2" y="315.52"/>
      </g>
     </g>
     <g id="text_6">
      <!-- 50 -->
      <defs>
       <path d="M 10.796875 72.90625 
L 49.515625 72.90625 
L 49.515625 64.59375 
L 19.828125 64.59375 
L 19.828125 46.734375 
Q 21.96875 47.46875 24.109375 47.828125 
Q 26.265625 48.1875 28.421875 48.1875 
Q 40.625 48.1875 47.75 41.5 
Q 54.890625 34.8125 54.890625 23.390625 
Q 54.890625 11.625 47.5625 5.09375 
Q 40.234375 -1.421875 26.90625 -1.421875 
Q 22.3125 -1.421875 17.546875 -0.640625 
Q 12.796875 0.140625 7.71875 1.703125 
L 7.71875 11.625 
Q 12.109375 9.234375 16.796875 8.0625 
Q 21.484375 6.890625 26.703125 6.890625 
Q 35.15625 6.890625 40.078125 11.328125 
Q 45.015625 15.765625 45.015625 23.390625 
Q 45.015625 31 40.078125 35.4375 
Q 35.15625 39.890625 26.703125 39.890625 
Q 22.75 39.890625 18.8125 39.015625 
Q 14.890625 38.140625 10.796875 36.28125 
z
" id="DejaVuSans-53"/>
      </defs>
      <g transform="translate(321.564689 330.878281)scale(0.11 -0.11)">
       <use xlink:href="#DejaVuSans-53"/>
       <use x="63.623047" xlink:href="#DejaVuSans-48"/>
      </g>
     </g>
    </g>
    <g id="xtick_7">
     <g id="line2d_7">
      <g>
       <use style="stroke:#000000;stroke-width:0.8;" x="381.36581" xlink:href="#m781895bfd2" y="315.52"/>
      </g>
     </g>
     <g id="text_7">
      <!-- 60 -->
      <defs>
       <path d="M 33.015625 40.375 
Q 26.375 40.375 22.484375 35.828125 
Q 18.609375 31.296875 18.609375 23.390625 
Q 18.609375 15.53125 22.484375 10.953125 
Q 26.375 6.390625 33.015625 6.390625 
Q 39.65625 6.390625 43.53125 10.953125 
Q 47.40625 15.53125 47.40625 23.390625 
Q 47.40625 31.296875 43.53125 35.828125 
Q 39.65625 40.375 33.015625 40.375 
z
M 52.59375 71.296875 
L 52.59375 62.3125 
Q 48.875 64.0625 45.09375 64.984375 
Q 41.3125 65.921875 37.59375 65.921875 
Q 27.828125 65.921875 22.671875 59.328125 
Q 17.53125 52.734375 16.796875 39.40625 
Q 19.671875 43.65625 24.015625 45.921875 
Q 28.375 48.1875 33.59375 48.1875 
Q 44.578125 48.1875 50.953125 41.515625 
Q 57.328125 34.859375 57.328125 23.390625 
Q 57.328125 12.15625 50.6875 5.359375 
Q 44.046875 -1.421875 33.015625 -1.421875 
Q 20.359375 -1.421875 13.671875 8.265625 
Q 6.984375 17.96875 6.984375 36.375 
Q 6.984375 53.65625 15.1875 63.9375 
Q 23.390625 74.21875 37.203125 74.21875 
Q 40.921875 74.21875 44.703125 73.484375 
Q 48.484375 72.75 52.59375 71.296875 
z
" id="DejaVuSans-54"/>
      </defs>
      <g transform="translate(374.36706 330.878281)scale(0.11 -0.11)">
       <use xlink:href="#DejaVuSans-54"/>
       <use x="63.623047" xlink:href="#DejaVuSans-48"/>
      </g>
     </g>
    </g>
    <g id="xtick_8">
     <g id="line2d_8">
      <g>
       <use style="stroke:#000000;stroke-width:0.8;" x="434.168182" xlink:href="#m781895bfd2" y="315.52"/>
      </g>
     </g>
     <g id="text_8">
      <!-- 70 -->
      <defs>
       <path d="M 8.203125 72.90625 
L 55.078125 72.90625 
L 55.078125 68.703125 
L 28.609375 0 
L 18.3125 0 
L 43.21875 64.59375 
L 8.203125 64.59375 
z
" id="DejaVuSans-55"/>
      </defs>
      <g transform="translate(427.169432 330.878281)scale(0.11 -0.11)">
       <use xlink:href="#DejaVuSans-55"/>
       <use x="63.623047" xlink:href="#DejaVuSans-48"/>
      </g>
     </g>
    </g>
    <g id="text_9">
     <!-- RNN Epochs -->
     <defs>
      <path d="M 44.390625 34.1875 
Q 47.5625 33.109375 50.5625 29.59375 
Q 53.5625 26.078125 56.59375 19.921875 
L 66.609375 0 
L 56 0 
L 46.6875 18.703125 
Q 43.0625 26.03125 39.671875 28.421875 
Q 36.28125 30.8125 30.421875 30.8125 
L 19.671875 30.8125 
L 19.671875 0 
L 9.8125 0 
L 9.8125 72.90625 
L 32.078125 72.90625 
Q 44.578125 72.90625 50.734375 67.671875 
Q 56.890625 62.453125 56.890625 51.90625 
Q 56.890625 45.015625 53.6875 40.46875 
Q 50.484375 35.9375 44.390625 34.1875 
z
M 19.671875 64.796875 
L 19.671875 38.921875 
L 32.078125 38.921875 
Q 39.203125 38.921875 42.84375 42.21875 
Q 46.484375 45.515625 46.484375 51.90625 
Q 46.484375 58.296875 42.84375 61.546875 
Q 39.203125 64.796875 32.078125 64.796875 
z
" id="DejaVuSans-82"/>
      <path d="M 9.8125 72.90625 
L 23.09375 72.90625 
L 55.421875 11.921875 
L 55.421875 72.90625 
L 64.984375 72.90625 
L 64.984375 0 
L 51.703125 0 
L 19.390625 60.984375 
L 19.390625 0 
L 9.8125 0 
z
" id="DejaVuSans-78"/>
      <path id="DejaVuSans-32"/>
      <path d="M 9.8125 72.90625 
L 55.90625 72.90625 
L 55.90625 64.59375 
L 19.671875 64.59375 
L 19.671875 43.015625 
L 54.390625 43.015625 
L 54.390625 34.71875 
L 19.671875 34.71875 
L 19.671875 8.296875 
L 56.78125 8.296875 
L 56.78125 0 
L 9.8125 0 
z
" id="DejaVuSans-69"/>
      <path d="M 18.109375 8.203125 
L 18.109375 -20.796875 
L 9.078125 -20.796875 
L 9.078125 54.6875 
L 18.109375 54.6875 
L 18.109375 46.390625 
Q 20.953125 51.265625 25.265625 53.625 
Q 29.59375 56 35.59375 56 
Q 45.5625 56 51.78125 48.09375 
Q 58.015625 40.1875 58.015625 27.296875 
Q 58.015625 14.40625 51.78125 6.484375 
Q 45.5625 -1.421875 35.59375 -1.421875 
Q 29.59375 -1.421875 25.265625 0.953125 
Q 20.953125 3.328125 18.109375 8.203125 
z
M 48.6875 27.296875 
Q 48.6875 37.203125 44.609375 42.84375 
Q 40.53125 48.484375 33.40625 48.484375 
Q 26.265625 48.484375 22.1875 42.84375 
Q 18.109375 37.203125 18.109375 27.296875 
Q 18.109375 17.390625 22.1875 11.75 
Q 26.265625 6.109375 33.40625 6.109375 
Q 40.53125 6.109375 44.609375 11.75 
Q 48.6875 17.390625 48.6875 27.296875 
z
" id="DejaVuSans-112"/>
      <path d="M 30.609375 48.390625 
Q 23.390625 48.390625 19.1875 42.75 
Q 14.984375 37.109375 14.984375 27.296875 
Q 14.984375 17.484375 19.15625 11.84375 
Q 23.34375 6.203125 30.609375 6.203125 
Q 37.796875 6.203125 41.984375 11.859375 
Q 46.1875 17.53125 46.1875 27.296875 
Q 46.1875 37.015625 41.984375 42.703125 
Q 37.796875 48.390625 30.609375 48.390625 
z
M 30.609375 56 
Q 42.328125 56 49.015625 48.375 
Q 55.71875 40.765625 55.71875 27.296875 
Q 55.71875 13.875 49.015625 6.21875 
Q 42.328125 -1.421875 30.609375 -1.421875 
Q 18.84375 -1.421875 12.171875 6.21875 
Q 5.515625 13.875 5.515625 27.296875 
Q 5.515625 40.765625 12.171875 48.375 
Q 18.84375 56 30.609375 56 
z
" id="DejaVuSans-111"/>
      <path d="M 48.78125 52.59375 
L 48.78125 44.1875 
Q 44.96875 46.296875 41.140625 47.34375 
Q 37.3125 48.390625 33.40625 48.390625 
Q 24.65625 48.390625 19.8125 42.84375 
Q 14.984375 37.3125 14.984375 27.296875 
Q 14.984375 17.28125 19.8125 11.734375 
Q 24.65625 6.203125 33.40625 6.203125 
Q 37.3125 6.203125 41.140625 7.25 
Q 44.96875 8.296875 48.78125 10.40625 
L 48.78125 2.09375 
Q 45.015625 0.34375 40.984375 -0.53125 
Q 36.96875 -1.421875 32.421875 -1.421875 
Q 20.0625 -1.421875 12.78125 6.34375 
Q 5.515625 14.109375 5.515625 27.296875 
Q 5.515625 40.671875 12.859375 48.328125 
Q 20.21875 56 33.015625 56 
Q 37.15625 56 41.109375 55.140625 
Q 45.0625 54.296875 48.78125 52.59375 
z
" id="DejaVuSans-99"/>
      <path d="M 54.890625 33.015625 
L 54.890625 0 
L 45.90625 0 
L 45.90625 32.71875 
Q 45.90625 40.484375 42.875 44.328125 
Q 39.84375 48.1875 33.796875 48.1875 
Q 26.515625 48.1875 22.3125 43.546875 
Q 18.109375 38.921875 18.109375 30.90625 
L 18.109375 0 
L 9.078125 0 
L 9.078125 75.984375 
L 18.109375 75.984375 
L 18.109375 46.1875 
Q 21.34375 51.125 25.703125 53.5625 
Q 30.078125 56 35.796875 56 
Q 45.21875 56 50.046875 50.171875 
Q 54.890625 44.34375 54.890625 33.015625 
z
" id="DejaVuSans-104"/>
      <path d="M 44.28125 53.078125 
L 44.28125 44.578125 
Q 40.484375 46.53125 36.375 47.5 
Q 32.28125 48.484375 27.875 48.484375 
Q 21.1875 48.484375 17.84375 46.4375 
Q 14.5 44.390625 14.5 40.28125 
Q 14.5 37.15625 16.890625 35.375 
Q 19.28125 33.59375 26.515625 31.984375 
L 29.59375 31.296875 
Q 39.15625 29.25 43.1875 25.515625 
Q 47.21875 21.78125 47.21875 15.09375 
Q 47.21875 7.46875 41.1875 3.015625 
Q 35.15625 -1.421875 24.609375 -1.421875 
Q 20.21875 -1.421875 15.453125 -0.5625 
Q 10.6875 0.296875 5.421875 2 
L 5.421875 11.28125 
Q 10.40625 8.6875 15.234375 7.390625 
Q 20.0625 6.109375 24.8125 6.109375 
Q 31.15625 6.109375 34.5625 8.28125 
Q 37.984375 10.453125 37.984375 14.40625 
Q 37.984375 18.0625 35.515625 20.015625 
Q 33.0625 21.96875 24.703125 23.78125 
L 21.578125 24.515625 
Q 13.234375 26.265625 9.515625 29.90625 
Q 5.8125 33.546875 5.8125 39.890625 
Q 5.8125 47.609375 11.28125 51.796875 
Q 16.75 56 26.8125 56 
Q 31.78125 56 36.171875 55.265625 
Q 40.578125 54.546875 44.28125 53.078125 
z
" id="DejaVuSans-115"/>
     </defs>
     <g transform="translate(218.493828 345.524219)scale(0.11 -0.11)">
      <use xlink:href="#DejaVuSans-82"/>
      <use x="69.482422" xlink:href="#DejaVuSans-78"/>
      <use x="144.287109" xlink:href="#DejaVuSans-78"/>
      <use x="219.091797" xlink:href="#DejaVuSans-32"/>
      <use x="250.878906" xlink:href="#DejaVuSans-69"/>
      <use x="314.0625" xlink:href="#DejaVuSans-112"/>
      <use x="377.539062" xlink:href="#DejaVuSans-111"/>
      <use x="438.720703" xlink:href="#DejaVuSans-99"/>
      <use x="493.701172" xlink:href="#DejaVuSans-104"/>
      <use x="557.080078" xlink:href="#DejaVuSans-115"/>
     </g>
    </g>
   </g>
   <g id="matplotlib.axis_2">
    <g id="ytick_1">
     <g id="line2d_9">
      <defs>
       <path d="M 0 0 
L -3.5 0 
" id="m676bbd4a40" style="stroke:#000000;stroke-width:0.8;"/>
      </defs>
      <g>
       <use style="stroke:#000000;stroke-width:0.8;" x="51.615" xlink:href="#m676bbd4a40" y="294.392655"/>
      </g>
     </g>
     <g id="text_10">
      <!-- 0.4 -->
      <defs>
       <path d="M 10.6875 12.40625 
L 21 12.40625 
L 21 0 
L 10.6875 0 
z
" id="DejaVuSans-46"/>
      </defs>
      <g transform="translate(27.121563 298.571796)scale(0.11 -0.11)">
       <use xlink:href="#DejaVuSans-48"/>
       <use x="63.623047" xlink:href="#DejaVuSans-46"/>
       <use x="95.410156" xlink:href="#DejaVuSans-52"/>
      </g>
     </g>
    </g>
    <g id="ytick_2">
     <g id="line2d_10">
      <g>
       <use style="stroke:#000000;stroke-width:0.8;" x="51.615" xlink:href="#m676bbd4a40" y="257.518969"/>
      </g>
     </g>
     <g id="text_11">
      <!-- 0.5 -->
      <g transform="translate(27.121563 261.69811)scale(0.11 -0.11)">
       <use xlink:href="#DejaVuSans-48"/>
       <use x="63.623047" xlink:href="#DejaVuSans-46"/>
       <use x="95.410156" xlink:href="#DejaVuSans-53"/>
      </g>
     </g>
    </g>
    <g id="ytick_3">
     <g id="line2d_11">
      <g>
       <use style="stroke:#000000;stroke-width:0.8;" x="51.615" xlink:href="#m676bbd4a40" y="220.645283"/>
      </g>
     </g>
     <g id="text_12">
      <!-- 0.6 -->
      <g transform="translate(27.121563 224.824423)scale(0.11 -0.11)">
       <use xlink:href="#DejaVuSans-48"/>
       <use x="63.623047" xlink:href="#DejaVuSans-46"/>
       <use x="95.410156" xlink:href="#DejaVuSans-54"/>
      </g>
     </g>
    </g>
    <g id="ytick_4">
     <g id="line2d_12">
      <g>
       <use style="stroke:#000000;stroke-width:0.8;" x="51.615" xlink:href="#m676bbd4a40" y="183.771597"/>
      </g>
     </g>
     <g id="text_13">
      <!-- 0.7 -->
      <g transform="translate(27.121563 187.950737)scale(0.11 -0.11)">
       <use xlink:href="#DejaVuSans-48"/>
       <use x="63.623047" xlink:href="#DejaVuSans-46"/>
       <use x="95.410156" xlink:href="#DejaVuSans-55"/>
      </g>
     </g>
    </g>
    <g id="ytick_5">
     <g id="line2d_13">
      <g>
       <use style="stroke:#000000;stroke-width:0.8;" x="51.615" xlink:href="#m676bbd4a40" y="146.89791"/>
      </g>
     </g>
     <g id="text_14">
      <!-- 0.8 -->
      <defs>
       <path d="M 31.78125 34.625 
Q 24.75 34.625 20.71875 30.859375 
Q 16.703125 27.09375 16.703125 20.515625 
Q 16.703125 13.921875 20.71875 10.15625 
Q 24.75 6.390625 31.78125 6.390625 
Q 38.8125 6.390625 42.859375 10.171875 
Q 46.921875 13.96875 46.921875 20.515625 
Q 46.921875 27.09375 42.890625 30.859375 
Q 38.875 34.625 31.78125 34.625 
z
M 21.921875 38.8125 
Q 15.578125 40.375 12.03125 44.71875 
Q 8.5 49.078125 8.5 55.328125 
Q 8.5 64.0625 14.71875 69.140625 
Q 20.953125 74.21875 31.78125 74.21875 
Q 42.671875 74.21875 48.875 69.140625 
Q 55.078125 64.0625 55.078125 55.328125 
Q 55.078125 49.078125 51.53125 44.71875 
Q 48 40.375 41.703125 38.8125 
Q 48.828125 37.15625 52.796875 32.3125 
Q 56.78125 27.484375 56.78125 20.515625 
Q 56.78125 9.90625 50.3125 4.234375 
Q 43.84375 -1.421875 31.78125 -1.421875 
Q 19.734375 -1.421875 13.25 4.234375 
Q 6.78125 9.90625 6.78125 20.515625 
Q 6.78125 27.484375 10.78125 32.3125 
Q 14.796875 37.15625 21.921875 38.8125 
z
M 18.3125 54.390625 
Q 18.3125 48.734375 21.84375 45.5625 
Q 25.390625 42.390625 31.78125 42.390625 
Q 38.140625 42.390625 41.71875 45.5625 
Q 45.3125 48.734375 45.3125 54.390625 
Q 45.3125 60.0625 41.71875 63.234375 
Q 38.140625 66.40625 31.78125 66.40625 
Q 25.390625 66.40625 21.84375 63.234375 
Q 18.3125 60.0625 18.3125 54.390625 
z
" id="DejaVuSans-56"/>
      </defs>
      <g transform="translate(27.121563 151.077051)scale(0.11 -0.11)">
       <use xlink:href="#DejaVuSans-48"/>
       <use x="63.623047" xlink:href="#DejaVuSans-46"/>
       <use x="95.410156" xlink:href="#DejaVuSans-56"/>
      </g>
     </g>
    </g>
    <g id="ytick_6">
     <g id="line2d_14">
      <g>
       <use style="stroke:#000000;stroke-width:0.8;" x="51.615" xlink:href="#m676bbd4a40" y="110.024224"/>
      </g>
     </g>
     <g id="text_15">
      <!-- 0.9 -->
      <defs>
       <path d="M 10.984375 1.515625 
L 10.984375 10.5 
Q 14.703125 8.734375 18.5 7.8125 
Q 22.3125 6.890625 25.984375 6.890625 
Q 35.75 6.890625 40.890625 13.453125 
Q 46.046875 20.015625 46.78125 33.40625 
Q 43.953125 29.203125 39.59375 26.953125 
Q 35.25 24.703125 29.984375 24.703125 
Q 19.046875 24.703125 12.671875 31.3125 
Q 6.296875 37.9375 6.296875 49.421875 
Q 6.296875 60.640625 12.9375 67.421875 
Q 19.578125 74.21875 30.609375 74.21875 
Q 43.265625 74.21875 49.921875 64.515625 
Q 56.59375 54.828125 56.59375 36.375 
Q 56.59375 19.140625 48.40625 8.859375 
Q 40.234375 -1.421875 26.421875 -1.421875 
Q 22.703125 -1.421875 18.890625 -0.6875 
Q 15.09375 0.046875 10.984375 1.515625 
z
M 30.609375 32.421875 
Q 37.25 32.421875 41.125 36.953125 
Q 45.015625 41.5 45.015625 49.421875 
Q 45.015625 57.28125 41.125 61.84375 
Q 37.25 66.40625 30.609375 66.40625 
Q 23.96875 66.40625 20.09375 61.84375 
Q 16.21875 57.28125 16.21875 49.421875 
Q 16.21875 41.5 20.09375 36.953125 
Q 23.96875 32.421875 30.609375 32.421875 
z
" id="DejaVuSans-57"/>
      </defs>
      <g transform="translate(27.121563 114.203365)scale(0.11 -0.11)">
       <use xlink:href="#DejaVuSans-48"/>
       <use x="63.623047" xlink:href="#DejaVuSans-46"/>
       <use x="95.410156" xlink:href="#DejaVuSans-57"/>
      </g>
     </g>
    </g>
    <g id="ytick_7">
     <g id="line2d_15">
      <g>
       <use style="stroke:#000000;stroke-width:0.8;" x="51.615" xlink:href="#m676bbd4a40" y="73.150538"/>
      </g>
     </g>
     <g id="text_16">
      <!-- 1.0 -->
      <g transform="translate(27.121563 77.329679)scale(0.11 -0.11)">
       <use xlink:href="#DejaVuSans-49"/>
       <use x="63.623047" xlink:href="#DejaVuSans-46"/>
       <use x="95.410156" xlink:href="#DejaVuSans-48"/>
      </g>
     </g>
    </g>
    <g id="ytick_8">
     <g id="line2d_16">
      <g>
       <use style="stroke:#000000;stroke-width:0.8;" x="51.615" xlink:href="#m676bbd4a40" y="36.276852"/>
      </g>
     </g>
     <g id="text_17">
      <!-- 1.1 -->
      <g transform="translate(27.121563 40.455992)scale(0.11 -0.11)">
       <use xlink:href="#DejaVuSans-49"/>
       <use x="63.623047" xlink:href="#DejaVuSans-46"/>
       <use x="95.410156" xlink:href="#DejaVuSans-49"/>
      </g>
     </g>
    </g>
    <g id="text_18">
     <!-- RNN Loss and Accuracy -->
     <defs>
      <path d="M 9.8125 72.90625 
L 19.671875 72.90625 
L 19.671875 8.296875 
L 55.171875 8.296875 
L 55.171875 0 
L 9.8125 0 
z
" id="DejaVuSans-76"/>
      <path d="M 34.28125 27.484375 
Q 23.390625 27.484375 19.1875 25 
Q 14.984375 22.515625 14.984375 16.5 
Q 14.984375 11.71875 18.140625 8.90625 
Q 21.296875 6.109375 26.703125 6.109375 
Q 34.1875 6.109375 38.703125 11.40625 
Q 43.21875 16.703125 43.21875 25.484375 
L 43.21875 27.484375 
z
M 52.203125 31.203125 
L 52.203125 0 
L 43.21875 0 
L 43.21875 8.296875 
Q 40.140625 3.328125 35.546875 0.953125 
Q 30.953125 -1.421875 24.3125 -1.421875 
Q 15.921875 -1.421875 10.953125 3.296875 
Q 6 8.015625 6 15.921875 
Q 6 25.140625 12.171875 29.828125 
Q 18.359375 34.515625 30.609375 34.515625 
L 43.21875 34.515625 
L 43.21875 35.40625 
Q 43.21875 41.609375 39.140625 45 
Q 35.0625 48.390625 27.6875 48.390625 
Q 23 48.390625 18.546875 47.265625 
Q 14.109375 46.140625 10.015625 43.890625 
L 10.015625 52.203125 
Q 14.9375 54.109375 19.578125 55.046875 
Q 24.21875 56 28.609375 56 
Q 40.484375 56 46.34375 49.84375 
Q 52.203125 43.703125 52.203125 31.203125 
z
" id="DejaVuSans-97"/>
      <path d="M 54.890625 33.015625 
L 54.890625 0 
L 45.90625 0 
L 45.90625 32.71875 
Q 45.90625 40.484375 42.875 44.328125 
Q 39.84375 48.1875 33.796875 48.1875 
Q 26.515625 48.1875 22.3125 43.546875 
Q 18.109375 38.921875 18.109375 30.90625 
L 18.109375 0 
L 9.078125 0 
L 9.078125 54.6875 
L 18.109375 54.6875 
L 18.109375 46.1875 
Q 21.34375 51.125 25.703125 53.5625 
Q 30.078125 56 35.796875 56 
Q 45.21875 56 50.046875 50.171875 
Q 54.890625 44.34375 54.890625 33.015625 
z
" id="DejaVuSans-110"/>
      <path d="M 45.40625 46.390625 
L 45.40625 75.984375 
L 54.390625 75.984375 
L 54.390625 0 
L 45.40625 0 
L 45.40625 8.203125 
Q 42.578125 3.328125 38.25 0.953125 
Q 33.9375 -1.421875 27.875 -1.421875 
Q 17.96875 -1.421875 11.734375 6.484375 
Q 5.515625 14.40625 5.515625 27.296875 
Q 5.515625 40.1875 11.734375 48.09375 
Q 17.96875 56 27.875 56 
Q 33.9375 56 38.25 53.625 
Q 42.578125 51.265625 45.40625 46.390625 
z
M 14.796875 27.296875 
Q 14.796875 17.390625 18.875 11.75 
Q 22.953125 6.109375 30.078125 6.109375 
Q 37.203125 6.109375 41.296875 11.75 
Q 45.40625 17.390625 45.40625 27.296875 
Q 45.40625 37.203125 41.296875 42.84375 
Q 37.203125 48.484375 30.078125 48.484375 
Q 22.953125 48.484375 18.875 42.84375 
Q 14.796875 37.203125 14.796875 27.296875 
z
" id="DejaVuSans-100"/>
      <path d="M 34.1875 63.1875 
L 20.796875 26.90625 
L 47.609375 26.90625 
z
M 28.609375 72.90625 
L 39.796875 72.90625 
L 67.578125 0 
L 57.328125 0 
L 50.6875 18.703125 
L 17.828125 18.703125 
L 11.1875 0 
L 0.78125 0 
z
" id="DejaVuSans-65"/>
      <path d="M 8.5 21.578125 
L 8.5 54.6875 
L 17.484375 54.6875 
L 17.484375 21.921875 
Q 17.484375 14.15625 20.5 10.265625 
Q 23.53125 6.390625 29.59375 6.390625 
Q 36.859375 6.390625 41.078125 11.03125 
Q 45.3125 15.671875 45.3125 23.6875 
L 45.3125 54.6875 
L 54.296875 54.6875 
L 54.296875 0 
L 45.3125 0 
L 45.3125 8.40625 
Q 42.046875 3.421875 37.71875 1 
Q 33.40625 -1.421875 27.6875 -1.421875 
Q 18.265625 -1.421875 13.375 4.4375 
Q 8.5 10.296875 8.5 21.578125 
z
M 31.109375 56 
z
" id="DejaVuSans-117"/>
      <path d="M 41.109375 46.296875 
Q 39.59375 47.171875 37.8125 47.578125 
Q 36.03125 48 33.890625 48 
Q 26.265625 48 22.1875 43.046875 
Q 18.109375 38.09375 18.109375 28.8125 
L 18.109375 0 
L 9.078125 0 
L 9.078125 54.6875 
L 18.109375 54.6875 
L 18.109375 46.1875 
Q 20.953125 51.171875 25.484375 53.578125 
Q 30.03125 56 36.53125 56 
Q 37.453125 56 38.578125 55.875 
Q 39.703125 55.765625 41.0625 55.515625 
z
" id="DejaVuSans-114"/>
      <path d="M 32.171875 -5.078125 
Q 28.375 -14.84375 24.75 -17.8125 
Q 21.140625 -20.796875 15.09375 -20.796875 
L 7.90625 -20.796875 
L 7.90625 -13.28125 
L 13.1875 -13.28125 
Q 16.890625 -13.28125 18.9375 -11.515625 
Q 21 -9.765625 23.484375 -3.21875 
L 25.09375 0.875 
L 2.984375 54.6875 
L 12.5 54.6875 
L 29.59375 11.921875 
L 46.6875 54.6875 
L 56.203125 54.6875 
z
" id="DejaVuSans-121"/>
     </defs>
     <g transform="translate(20.833906 236.5575)rotate(-90)scale(0.11 -0.11)">
      <use xlink:href="#DejaVuSans-82"/>
      <use x="69.482422" xlink:href="#DejaVuSans-78"/>
      <use x="144.287109" xlink:href="#DejaVuSans-78"/>
      <use x="219.091797" xlink:href="#DejaVuSans-32"/>
      <use x="250.878906" xlink:href="#DejaVuSans-76"/>
      <use x="304.841797" xlink:href="#DejaVuSans-111"/>
      <use x="366.023438" xlink:href="#DejaVuSans-115"/>
      <use x="418.123047" xlink:href="#DejaVuSans-115"/>
      <use x="470.222656" xlink:href="#DejaVuSans-32"/>
      <use x="502.009766" xlink:href="#DejaVuSans-97"/>
      <use x="563.289062" xlink:href="#DejaVuSans-110"/>
      <use x="626.667969" xlink:href="#DejaVuSans-100"/>
      <use x="690.144531" xlink:href="#DejaVuSans-32"/>
      <use x="721.931641" xlink:href="#DejaVuSans-65"/>
      <use x="788.589844" xlink:href="#DejaVuSans-99"/>
      <use x="843.570312" xlink:href="#DejaVuSans-99"/>
      <use x="898.550781" xlink:href="#DejaVuSans-117"/>
      <use x="961.929688" xlink:href="#DejaVuSans-114"/>
      <use x="1003.042969" xlink:href="#DejaVuSans-97"/>
      <use x="1064.322266" xlink:href="#DejaVuSans-99"/>
      <use x="1119.302734" xlink:href="#DejaVuSans-121"/>
     </g>
    </g>
   </g>
   <g id="line2d_17">
    <path clip-path="url(#p07b99001bf)" d="M 69.831818 41.030909 
L 75.112055 63.152874 
L 80.392292 81.762437 
L 85.67253 101.898019 
L 90.952767 128.169289 
L 96.233004 161.674629 
L 101.513241 184.145859 
L 106.793478 201.484548 
L 112.073715 216.866039 
L 117.353953 227.761155 
L 122.63419 232.972401 
L 127.914427 234.979888 
L 133.194664 236.283869 
L 138.474901 236.856222 
L 143.755138 237.222913 
L 149.035375 237.475187 
L 154.315613 237.610622 
L 159.59585 237.721387 
L 164.876087 237.812051 
L 170.156324 237.879669 
L 175.436561 237.938188 
L 180.716798 237.983301 
L 185.997036 238.025995 
L 191.277273 238.06387 
L 196.55751 238.096458 
L 201.837747 238.126735 
L 207.117984 238.152167 
L 212.398221 238.175744 
L 217.678458 238.197408 
L 222.958696 238.216369 
L 228.238933 238.233142 
L 233.51917 238.250128 
L 238.799407 238.265494 
L 244.079644 238.279067 
L 249.359881 238.291884 
L 254.640119 238.302779 
L 259.920356 238.314142 
L 265.200593 238.324161 
L 270.48083 238.333461 
L 275.761067 238.342262 
L 281.041304 238.350661 
L 286.321542 238.358237 
L 291.601779 238.365553 
L 296.882016 238.372454 
L 302.162253 238.378658 
L 307.44249 238.384875 
L 312.722727 238.390545 
L 318.002964 238.396081 
L 323.283202 238.401151 
L 328.563439 238.406009 
L 333.843676 238.410348 
L 339.123913 238.414913 
L 344.40415 238.419095 
L 349.684387 238.423032 
L 354.964625 238.426615 
L 360.244862 238.430307 
L 365.525099 238.433802 
L 370.805336 238.437048 
L 376.085573 238.440075 
L 381.36581 238.443052 
L 386.646047 238.445887 
L 391.926285 238.448675 
L 397.206522 238.45125 
L 402.486759 238.453777 
L 407.766996 238.456119 
L 413.047233 238.458562 
L 418.32747 238.4607 
L 423.607708 238.462835 
L 428.887945 238.464911 
L 434.168182 238.466948 
" style="fill:none;stroke:#1f77b4;stroke-dasharray:5.55,2.4;stroke-dashoffset:0;stroke-width:1.5;"/>
   </g>
   <g id="line2d_18">
    <path clip-path="url(#p07b99001bf)" d="M 69.831818 48.170756 
L 75.112055 54.339464 
L 80.392292 58.2378 
L 85.67253 63.000503 
L 90.952767 73.911497 
L 96.233004 122.833295 
L 101.513241 88.169454 
L 106.793478 94.44968 
L 112.073715 113.455659 
L 117.353953 135.298229 
L 122.63419 126.528275 
L 127.914427 122.458782 
L 133.194664 142.103015 
L 138.474901 151.535157 
L 143.755138 150.785539 
L 149.035375 148.800227 
L 154.315613 151.716545 
L 159.59585 156.890366 
L 164.876087 159.301136 
L 170.156324 159.656692 
L 175.436561 158.825765 
L 180.716798 159.701385 
L 185.997036 158.410317 
L 191.277273 159.98383 
L 196.55751 161.693016 
L 201.837747 162.928236 
L 207.117984 163.221231 
L 212.398221 162.68143 
L 217.678458 163.26899 
L 222.958696 163.42418 
L 228.238933 163.558413 
L 233.51917 164.622059 
L 238.799407 165.000242 
L 244.079644 165.419436 
L 249.359881 165.239488 
L 254.640119 165.849906 
L 259.920356 165.813663 
L 265.200593 165.953314 
L 270.48083 165.700727 
L 275.761067 166.068888 
L 281.041304 166.789967 
L 286.321542 167.670632 
L 291.601779 167.321988 
L 296.882016 167.270438 
L 302.162253 167.376022 
L 307.44249 167.399396 
L 312.722727 167.856372 
L 318.002964 168.152399 
L 323.283202 168.22317 
L 328.563439 168.471998 
L 333.843676 168.575539 
L 339.123913 168.805609 
L 344.40415 169.014261 
L 349.684387 169.111373 
L 354.964625 168.952161 
L 360.244862 169.292036 
L 365.525099 169.535678 
L 370.805336 169.743802 
L 376.085573 169.490413 
L 381.36581 169.983169 
L 386.646047 169.860442 
L 391.926285 169.983917 
L 397.206522 170.000697 
L 402.486759 170.257032 
L 407.766996 170.556773 
L 413.047233 170.492695 
L 418.32747 170.833669 
L 423.607708 170.489245 
L 428.887945 170.869417 
L 434.168182 170.814427 
" style="fill:none;stroke:#ff7f0e;stroke-dasharray:5.55,2.4;stroke-dashoffset:0;stroke-width:1.5;"/>
   </g>
   <g id="line2d_19">
    <path clip-path="url(#p07b99001bf)" d="M 69.831818 302.449091 
L 75.112055 224.983364 
L 80.392292 184.701185 
L 85.67253 172.306669 
L 90.952767 145.968322 
L 96.233004 130.475176 
L 101.513241 108.784772 
L 106.793478 76.249167 
L 112.073715 76.249167 
L 117.353953 73.150538 
L 122.63419 73.150538 
L 127.914427 73.150538 
L 133.194664 73.150538 
L 138.474901 73.150538 
L 143.755138 73.150538 
L 149.035375 73.150538 
L 154.315613 73.150538 
L 159.59585 73.150538 
L 164.876087 73.150538 
L 170.156324 73.150538 
L 175.436561 73.150538 
L 180.716798 73.150538 
L 185.997036 73.150538 
L 191.277273 73.150538 
L 196.55751 73.150538 
L 201.837747 73.150538 
L 207.117984 73.150538 
L 212.398221 73.150538 
L 217.678458 73.150538 
L 222.958696 73.150538 
L 228.238933 73.150538 
L 233.51917 73.150538 
L 238.799407 73.150538 
L 244.079644 73.150538 
L 249.359881 73.150538 
L 254.640119 73.150538 
L 259.920356 73.150538 
L 265.200593 73.150538 
L 270.48083 73.150538 
L 275.761067 73.150538 
L 281.041304 73.150538 
L 286.321542 73.150538 
L 291.601779 73.150538 
L 296.882016 73.150538 
L 302.162253 73.150538 
L 307.44249 73.150538 
L 312.722727 73.150538 
L 318.002964 73.150538 
L 323.283202 73.150538 
L 328.563439 73.150538 
L 333.843676 73.150538 
L 339.123913 73.150538 
L 344.40415 73.150538 
L 349.684387 73.150538 
L 354.964625 73.150538 
L 360.244862 73.150538 
L 365.525099 73.150538 
L 370.805336 73.150538 
L 376.085573 73.150538 
L 381.36581 73.150538 
L 386.646047 73.150538 
L 391.926285 73.150538 
L 397.206522 73.150538 
L 402.486759 73.150538 
L 407.766996 73.150538 
L 413.047233 73.150538 
L 418.32747 73.150538 
L 423.607708 73.150538 
L 428.887945 73.150538 
L 434.168182 73.150538 
" style="fill:none;stroke:#2ca02c;stroke-linecap:square;stroke-width:1.5;"/>
   </g>
   <g id="line2d_20">
    <path clip-path="url(#p07b99001bf)" d="M 69.831818 300.899776 
L 75.112055 284.631974 
L 80.392292 262.94157 
L 85.67253 257.518969 
L 90.952767 241.251166 
L 96.233004 176.179955 
L 101.513241 224.983364 
L 106.793478 219.560763 
L 112.073715 203.29296 
L 117.353953 176.179955 
L 122.63419 192.447758 
L 127.914427 197.870359 
L 133.194664 187.025157 
L 138.474901 176.179955 
L 143.755138 165.334753 
L 149.035375 170.757354 
L 154.315613 170.757354 
L 159.59585 170.757354 
L 164.876087 159.912153 
L 170.156324 165.334753 
L 175.436561 159.912153 
L 180.716798 159.912153 
L 185.997036 170.757354 
L 191.277273 154.489552 
L 196.55751 159.912153 
L 201.837747 159.912153 
L 207.117984 159.912153 
L 212.398221 159.912153 
L 217.678458 159.912153 
L 222.958696 159.912153 
L 228.238933 159.912153 
L 233.51917 159.912153 
L 238.799407 159.912153 
L 244.079644 159.912153 
L 249.359881 159.912153 
L 254.640119 159.912153 
L 259.920356 159.912153 
L 265.200593 159.912153 
L 270.48083 154.489552 
L 275.761067 149.066951 
L 281.041304 149.066951 
L 286.321542 143.64435 
L 291.601779 149.066951 
L 296.882016 143.64435 
L 302.162253 149.066951 
L 307.44249 143.64435 
L 312.722727 138.221749 
L 318.002964 138.221749 
L 323.283202 138.221749 
L 328.563439 138.221749 
L 333.843676 138.221749 
L 339.123913 138.221749 
L 344.40415 138.221749 
L 349.684387 138.221749 
L 354.964625 138.221749 
L 360.244862 138.221749 
L 365.525099 138.221749 
L 370.805336 138.221749 
L 376.085573 138.221749 
L 381.36581 138.221749 
L 386.646047 138.221749 
L 391.926285 138.221749 
L 397.206522 138.221749 
L 402.486759 138.221749 
L 407.766996 138.221749 
L 413.047233 138.221749 
L 418.32747 138.221749 
L 423.607708 138.221749 
L 428.887945 138.221749 
L 434.168182 138.221749 
" style="fill:none;stroke:#d62728;stroke-linecap:square;stroke-width:1.5;"/>
   </g>
   <g id="patch_3">
    <path d="M 51.615 315.52 
L 51.615 27.96 
" style="fill:none;stroke:#000000;stroke-linecap:square;stroke-linejoin:miter;stroke-width:0.8;"/>
   </g>
   <g id="patch_4">
    <path d="M 452.385 315.52 
L 452.385 27.96 
" style="fill:none;stroke:#000000;stroke-linecap:square;stroke-linejoin:miter;stroke-width:0.8;"/>
   </g>
   <g id="patch_5">
    <path d="M 51.615 315.52 
L 452.385 315.52 
" style="fill:none;stroke:#000000;stroke-linecap:square;stroke-linejoin:miter;stroke-width:0.8;"/>
   </g>
   <g id="patch_6">
    <path d="M 51.615 27.96 
L 452.385 27.96 
" style="fill:none;stroke:#000000;stroke-linecap:square;stroke-linejoin:miter;stroke-width:0.8;"/>
   </g>
   <g id="text_19">
    <!-- RNN Training and Validation Losses/Accuracies for Sliced Time Samples -->
    <defs>
     <path d="M -0.296875 72.90625 
L 61.375 72.90625 
L 61.375 64.59375 
L 35.5 64.59375 
L 35.5 0 
L 25.59375 0 
L 25.59375 64.59375 
L -0.296875 64.59375 
z
" id="DejaVuSans-84"/>
     <path d="M 9.421875 54.6875 
L 18.40625 54.6875 
L 18.40625 0 
L 9.421875 0 
z
M 9.421875 75.984375 
L 18.40625 75.984375 
L 18.40625 64.59375 
L 9.421875 64.59375 
z
" id="DejaVuSans-105"/>
     <path d="M 45.40625 27.984375 
Q 45.40625 37.75 41.375 43.109375 
Q 37.359375 48.484375 30.078125 48.484375 
Q 22.859375 48.484375 18.828125 43.109375 
Q 14.796875 37.75 14.796875 27.984375 
Q 14.796875 18.265625 18.828125 12.890625 
Q 22.859375 7.515625 30.078125 7.515625 
Q 37.359375 7.515625 41.375 12.890625 
Q 45.40625 18.265625 45.40625 27.984375 
z
M 54.390625 6.78125 
Q 54.390625 -7.171875 48.1875 -13.984375 
Q 42 -20.796875 29.203125 -20.796875 
Q 24.46875 -20.796875 20.265625 -20.09375 
Q 16.0625 -19.390625 12.109375 -17.921875 
L 12.109375 -9.1875 
Q 16.0625 -11.328125 19.921875 -12.34375 
Q 23.78125 -13.375 27.78125 -13.375 
Q 36.625 -13.375 41.015625 -8.765625 
Q 45.40625 -4.15625 45.40625 5.171875 
L 45.40625 9.625 
Q 42.625 4.78125 38.28125 2.390625 
Q 33.9375 0 27.875 0 
Q 17.828125 0 11.671875 7.65625 
Q 5.515625 15.328125 5.515625 27.984375 
Q 5.515625 40.671875 11.671875 48.328125 
Q 17.828125 56 27.875 56 
Q 33.9375 56 38.28125 53.609375 
Q 42.625 51.21875 45.40625 46.390625 
L 45.40625 54.6875 
L 54.390625 54.6875 
z
" id="DejaVuSans-103"/>
     <path d="M 28.609375 0 
L 0.78125 72.90625 
L 11.078125 72.90625 
L 34.1875 11.53125 
L 57.328125 72.90625 
L 67.578125 72.90625 
L 39.796875 0 
z
" id="DejaVuSans-86"/>
     <path d="M 9.421875 75.984375 
L 18.40625 75.984375 
L 18.40625 0 
L 9.421875 0 
z
" id="DejaVuSans-108"/>
     <path d="M 18.3125 70.21875 
L 18.3125 54.6875 
L 36.8125 54.6875 
L 36.8125 47.703125 
L 18.3125 47.703125 
L 18.3125 18.015625 
Q 18.3125 11.328125 20.140625 9.421875 
Q 21.96875 7.515625 27.59375 7.515625 
L 36.8125 7.515625 
L 36.8125 0 
L 27.59375 0 
Q 17.1875 0 13.234375 3.875 
Q 9.28125 7.765625 9.28125 18.015625 
L 9.28125 47.703125 
L 2.6875 47.703125 
L 2.6875 54.6875 
L 9.28125 54.6875 
L 9.28125 70.21875 
z
" id="DejaVuSans-116"/>
     <path d="M 56.203125 29.59375 
L 56.203125 25.203125 
L 14.890625 25.203125 
Q 15.484375 15.921875 20.484375 11.0625 
Q 25.484375 6.203125 34.421875 6.203125 
Q 39.59375 6.203125 44.453125 7.46875 
Q 49.3125 8.734375 54.109375 11.28125 
L 54.109375 2.78125 
Q 49.265625 0.734375 44.1875 -0.34375 
Q 39.109375 -1.421875 33.890625 -1.421875 
Q 20.796875 -1.421875 13.15625 6.1875 
Q 5.515625 13.8125 5.515625 26.8125 
Q 5.515625 40.234375 12.765625 48.109375 
Q 20.015625 56 32.328125 56 
Q 43.359375 56 49.78125 48.890625 
Q 56.203125 41.796875 56.203125 29.59375 
z
M 47.21875 32.234375 
Q 47.125 39.59375 43.09375 43.984375 
Q 39.0625 48.390625 32.421875 48.390625 
Q 24.90625 48.390625 20.390625 44.140625 
Q 15.875 39.890625 15.1875 32.171875 
z
" id="DejaVuSans-101"/>
     <path d="M 25.390625 72.90625 
L 33.6875 72.90625 
L 8.296875 -9.28125 
L 0 -9.28125 
z
" id="DejaVuSans-47"/>
     <path d="M 37.109375 75.984375 
L 37.109375 68.5 
L 28.515625 68.5 
Q 23.6875 68.5 21.796875 66.546875 
Q 19.921875 64.59375 19.921875 59.515625 
L 19.921875 54.6875 
L 34.71875 54.6875 
L 34.71875 47.703125 
L 19.921875 47.703125 
L 19.921875 0 
L 10.890625 0 
L 10.890625 47.703125 
L 2.296875 47.703125 
L 2.296875 54.6875 
L 10.890625 54.6875 
L 10.890625 58.5 
Q 10.890625 67.625 15.140625 71.796875 
Q 19.390625 75.984375 28.609375 75.984375 
z
" id="DejaVuSans-102"/>
     <path d="M 53.515625 70.515625 
L 53.515625 60.890625 
Q 47.90625 63.578125 42.921875 64.890625 
Q 37.9375 66.21875 33.296875 66.21875 
Q 25.25 66.21875 20.875 63.09375 
Q 16.5 59.96875 16.5 54.203125 
Q 16.5 49.359375 19.40625 46.890625 
Q 22.3125 44.4375 30.421875 42.921875 
L 36.375 41.703125 
Q 47.40625 39.59375 52.65625 34.296875 
Q 57.90625 29 57.90625 20.125 
Q 57.90625 9.515625 50.796875 4.046875 
Q 43.703125 -1.421875 29.984375 -1.421875 
Q 24.8125 -1.421875 18.96875 -0.25 
Q 13.140625 0.921875 6.890625 3.21875 
L 6.890625 13.375 
Q 12.890625 10.015625 18.65625 8.296875 
Q 24.421875 6.59375 29.984375 6.59375 
Q 38.421875 6.59375 43.015625 9.90625 
Q 47.609375 13.234375 47.609375 19.390625 
Q 47.609375 24.75 44.3125 27.78125 
Q 41.015625 30.8125 33.5 32.328125 
L 27.484375 33.5 
Q 16.453125 35.6875 11.515625 40.375 
Q 6.59375 45.0625 6.59375 53.421875 
Q 6.59375 63.09375 13.40625 68.65625 
Q 20.21875 74.21875 32.171875 74.21875 
Q 37.3125 74.21875 42.625 73.28125 
Q 47.953125 72.359375 53.515625 70.515625 
z
" id="DejaVuSans-83"/>
     <path d="M 52 44.1875 
Q 55.375 50.25 60.0625 53.125 
Q 64.75 56 71.09375 56 
Q 79.640625 56 84.28125 50.015625 
Q 88.921875 44.046875 88.921875 33.015625 
L 88.921875 0 
L 79.890625 0 
L 79.890625 32.71875 
Q 79.890625 40.578125 77.09375 44.375 
Q 74.3125 48.1875 68.609375 48.1875 
Q 61.625 48.1875 57.5625 43.546875 
Q 53.515625 38.921875 53.515625 30.90625 
L 53.515625 0 
L 44.484375 0 
L 44.484375 32.71875 
Q 44.484375 40.625 41.703125 44.40625 
Q 38.921875 48.1875 33.109375 48.1875 
Q 26.21875 48.1875 22.15625 43.53125 
Q 18.109375 38.875 18.109375 30.90625 
L 18.109375 0 
L 9.078125 0 
L 9.078125 54.6875 
L 18.109375 54.6875 
L 18.109375 46.1875 
Q 21.1875 51.21875 25.484375 53.609375 
Q 29.78125 56 35.6875 56 
Q 41.65625 56 45.828125 52.96875 
Q 50 49.953125 52 44.1875 
z
" id="DejaVuSans-109"/>
    </defs>
    <g transform="translate(16.805906 21.96)scale(0.132 -0.132)">
     <use xlink:href="#DejaVuSans-82"/>
     <use x="69.482422" xlink:href="#DejaVuSans-78"/>
     <use x="144.287109" xlink:href="#DejaVuSans-78"/>
     <use x="219.091797" xlink:href="#DejaVuSans-32"/>
     <use x="250.878906" xlink:href="#DejaVuSans-84"/>
     <use x="297.212891" xlink:href="#DejaVuSans-114"/>
     <use x="338.326172" xlink:href="#DejaVuSans-97"/>
     <use x="399.605469" xlink:href="#DejaVuSans-105"/>
     <use x="427.388672" xlink:href="#DejaVuSans-110"/>
     <use x="490.767578" xlink:href="#DejaVuSans-105"/>
     <use x="518.550781" xlink:href="#DejaVuSans-110"/>
     <use x="581.929688" xlink:href="#DejaVuSans-103"/>
     <use x="645.40625" xlink:href="#DejaVuSans-32"/>
     <use x="677.193359" xlink:href="#DejaVuSans-97"/>
     <use x="738.472656" xlink:href="#DejaVuSans-110"/>
     <use x="801.851562" xlink:href="#DejaVuSans-100"/>
     <use x="865.328125" xlink:href="#DejaVuSans-32"/>
     <use x="897.115234" xlink:href="#DejaVuSans-86"/>
     <use x="957.773438" xlink:href="#DejaVuSans-97"/>
     <use x="1019.052734" xlink:href="#DejaVuSans-108"/>
     <use x="1046.835938" xlink:href="#DejaVuSans-105"/>
     <use x="1074.619141" xlink:href="#DejaVuSans-100"/>
     <use x="1138.095703" xlink:href="#DejaVuSans-97"/>
     <use x="1199.375" xlink:href="#DejaVuSans-116"/>
     <use x="1238.583984" xlink:href="#DejaVuSans-105"/>
     <use x="1266.367188" xlink:href="#DejaVuSans-111"/>
     <use x="1327.548828" xlink:href="#DejaVuSans-110"/>
     <use x="1390.927734" xlink:href="#DejaVuSans-32"/>
     <use x="1422.714844" xlink:href="#DejaVuSans-76"/>
     <use x="1476.677734" xlink:href="#DejaVuSans-111"/>
     <use x="1537.859375" xlink:href="#DejaVuSans-115"/>
     <use x="1589.958984" xlink:href="#DejaVuSans-115"/>
     <use x="1642.058594" xlink:href="#DejaVuSans-101"/>
     <use x="1703.582031" xlink:href="#DejaVuSans-115"/>
     <use x="1755.681641" xlink:href="#DejaVuSans-47"/>
     <use x="1789.373047" xlink:href="#DejaVuSans-65"/>
     <use x="1856.03125" xlink:href="#DejaVuSans-99"/>
     <use x="1911.011719" xlink:href="#DejaVuSans-99"/>
     <use x="1965.992188" xlink:href="#DejaVuSans-117"/>
     <use x="2029.371094" xlink:href="#DejaVuSans-114"/>
     <use x="2070.484375" xlink:href="#DejaVuSans-97"/>
     <use x="2131.763672" xlink:href="#DejaVuSans-99"/>
     <use x="2186.744141" xlink:href="#DejaVuSans-105"/>
     <use x="2214.527344" xlink:href="#DejaVuSans-101"/>
     <use x="2276.050781" xlink:href="#DejaVuSans-115"/>
     <use x="2328.150391" xlink:href="#DejaVuSans-32"/>
     <use x="2359.9375" xlink:href="#DejaVuSans-102"/>
     <use x="2395.142578" xlink:href="#DejaVuSans-111"/>
     <use x="2456.324219" xlink:href="#DejaVuSans-114"/>
     <use x="2497.4375" xlink:href="#DejaVuSans-32"/>
     <use x="2529.224609" xlink:href="#DejaVuSans-83"/>
     <use x="2592.701172" xlink:href="#DejaVuSans-108"/>
     <use x="2620.484375" xlink:href="#DejaVuSans-105"/>
     <use x="2648.267578" xlink:href="#DejaVuSans-99"/>
     <use x="2703.248047" xlink:href="#DejaVuSans-101"/>
     <use x="2764.771484" xlink:href="#DejaVuSans-100"/>
     <use x="2828.248047" xlink:href="#DejaVuSans-32"/>
     <use x="2860.035156" xlink:href="#DejaVuSans-84"/>
     <use x="2917.994141" xlink:href="#DejaVuSans-105"/>
     <use x="2945.777344" xlink:href="#DejaVuSans-109"/>
     <use x="3043.189453" xlink:href="#DejaVuSans-101"/>
     <use x="3104.712891" xlink:href="#DejaVuSans-32"/>
     <use x="3136.5" xlink:href="#DejaVuSans-83"/>
     <use x="3199.976562" xlink:href="#DejaVuSans-97"/>
     <use x="3261.255859" xlink:href="#DejaVuSans-109"/>
     <use x="3358.667969" xlink:href="#DejaVuSans-112"/>
     <use x="3422.144531" xlink:href="#DejaVuSans-108"/>
     <use x="3449.927734" xlink:href="#DejaVuSans-101"/>
     <use x="3511.451172" xlink:href="#DejaVuSans-115"/>
    </g>
   </g>
   <g id="legend_1">
    <g id="patch_7">
     <path d="M 273.849844 310.02 
L 444.685 310.02 
Q 446.885 310.02 446.885 307.82 
L 446.885 244.33625 
Q 446.885 242.13625 444.685 242.13625 
L 273.849844 242.13625 
Q 271.649844 242.13625 271.649844 244.33625 
L 271.649844 307.82 
Q 271.649844 310.02 273.849844 310.02 
z
" style="fill:#ffffff;opacity:0.8;stroke:#cccccc;stroke-linejoin:miter;"/>
    </g>
    <g id="line2d_21">
     <path d="M 276.049844 251.044531 
L 298.049844 251.044531 
" style="fill:none;stroke:#1f77b4;stroke-dasharray:5.55,2.4;stroke-dashoffset:0;stroke-width:1.5;"/>
    </g>
    <g id="line2d_22"/>
    <g id="text_20">
     <!-- RNN Training Loss -->
     <g transform="translate(306.849844 254.894531)scale(0.11 -0.11)">
      <use xlink:href="#DejaVuSans-82"/>
      <use x="69.482422" xlink:href="#DejaVuSans-78"/>
      <use x="144.287109" xlink:href="#DejaVuSans-78"/>
      <use x="219.091797" xlink:href="#DejaVuSans-32"/>
      <use x="250.878906" xlink:href="#DejaVuSans-84"/>
      <use x="297.212891" xlink:href="#DejaVuSans-114"/>
      <use x="338.326172" xlink:href="#DejaVuSans-97"/>
      <use x="399.605469" xlink:href="#DejaVuSans-105"/>
      <use x="427.388672" xlink:href="#DejaVuSans-110"/>
      <use x="490.767578" xlink:href="#DejaVuSans-105"/>
      <use x="518.550781" xlink:href="#DejaVuSans-110"/>
      <use x="581.929688" xlink:href="#DejaVuSans-103"/>
      <use x="645.40625" xlink:href="#DejaVuSans-32"/>
      <use x="677.193359" xlink:href="#DejaVuSans-76"/>
      <use x="731.15625" xlink:href="#DejaVuSans-111"/>
      <use x="792.337891" xlink:href="#DejaVuSans-115"/>
      <use x="844.4375" xlink:href="#DejaVuSans-115"/>
     </g>
    </g>
    <g id="line2d_23">
     <path d="M 276.049844 267.190469 
L 298.049844 267.190469 
" style="fill:none;stroke:#ff7f0e;stroke-dasharray:5.55,2.4;stroke-dashoffset:0;stroke-width:1.5;"/>
    </g>
    <g id="line2d_24"/>
    <g id="text_21">
     <!-- RNN Validation Loss -->
     <g transform="translate(306.849844 271.040469)scale(0.11 -0.11)">
      <use xlink:href="#DejaVuSans-82"/>
      <use x="69.482422" xlink:href="#DejaVuSans-78"/>
      <use x="144.287109" xlink:href="#DejaVuSans-78"/>
      <use x="219.091797" xlink:href="#DejaVuSans-32"/>
      <use x="250.878906" xlink:href="#DejaVuSans-86"/>
      <use x="311.537109" xlink:href="#DejaVuSans-97"/>
      <use x="372.816406" xlink:href="#DejaVuSans-108"/>
      <use x="400.599609" xlink:href="#DejaVuSans-105"/>
      <use x="428.382812" xlink:href="#DejaVuSans-100"/>
      <use x="491.859375" xlink:href="#DejaVuSans-97"/>
      <use x="553.138672" xlink:href="#DejaVuSans-116"/>
      <use x="592.347656" xlink:href="#DejaVuSans-105"/>
      <use x="620.130859" xlink:href="#DejaVuSans-111"/>
      <use x="681.3125" xlink:href="#DejaVuSans-110"/>
      <use x="744.691406" xlink:href="#DejaVuSans-32"/>
      <use x="776.478516" xlink:href="#DejaVuSans-76"/>
      <use x="830.441406" xlink:href="#DejaVuSans-111"/>
      <use x="891.623047" xlink:href="#DejaVuSans-115"/>
      <use x="943.722656" xlink:href="#DejaVuSans-115"/>
     </g>
    </g>
    <g id="line2d_25">
     <path d="M 276.049844 283.336406 
L 298.049844 283.336406 
" style="fill:none;stroke:#2ca02c;stroke-linecap:square;stroke-width:1.5;"/>
    </g>
    <g id="line2d_26"/>
    <g id="text_22">
     <!-- RNN Training Accuracy -->
     <g transform="translate(306.849844 287.186406)scale(0.11 -0.11)">
      <use xlink:href="#DejaVuSans-82"/>
      <use x="69.482422" xlink:href="#DejaVuSans-78"/>
      <use x="144.287109" xlink:href="#DejaVuSans-78"/>
      <use x="219.091797" xlink:href="#DejaVuSans-32"/>
      <use x="250.878906" xlink:href="#DejaVuSans-84"/>
      <use x="297.212891" xlink:href="#DejaVuSans-114"/>
      <use x="338.326172" xlink:href="#DejaVuSans-97"/>
      <use x="399.605469" xlink:href="#DejaVuSans-105"/>
      <use x="427.388672" xlink:href="#DejaVuSans-110"/>
      <use x="490.767578" xlink:href="#DejaVuSans-105"/>
      <use x="518.550781" xlink:href="#DejaVuSans-110"/>
      <use x="581.929688" xlink:href="#DejaVuSans-103"/>
      <use x="645.40625" xlink:href="#DejaVuSans-32"/>
      <use x="677.193359" xlink:href="#DejaVuSans-65"/>
      <use x="743.851562" xlink:href="#DejaVuSans-99"/>
      <use x="798.832031" xlink:href="#DejaVuSans-99"/>
      <use x="853.8125" xlink:href="#DejaVuSans-117"/>
      <use x="917.191406" xlink:href="#DejaVuSans-114"/>
      <use x="958.304688" xlink:href="#DejaVuSans-97"/>
      <use x="1019.583984" xlink:href="#DejaVuSans-99"/>
      <use x="1074.564453" xlink:href="#DejaVuSans-121"/>
     </g>
    </g>
    <g id="line2d_27">
     <path d="M 276.049844 299.482344 
L 298.049844 299.482344 
" style="fill:none;stroke:#d62728;stroke-linecap:square;stroke-width:1.5;"/>
    </g>
    <g id="line2d_28"/>
    <g id="text_23">
     <!-- RNN Validation Accuracy -->
     <g transform="translate(306.849844 303.332344)scale(0.11 -0.11)">
      <use xlink:href="#DejaVuSans-82"/>
      <use x="69.482422" xlink:href="#DejaVuSans-78"/>
      <use x="144.287109" xlink:href="#DejaVuSans-78"/>
      <use x="219.091797" xlink:href="#DejaVuSans-32"/>
      <use x="250.878906" xlink:href="#DejaVuSans-86"/>
      <use x="311.537109" xlink:href="#DejaVuSans-97"/>
      <use x="372.816406" xlink:href="#DejaVuSans-108"/>
      <use x="400.599609" xlink:href="#DejaVuSans-105"/>
      <use x="428.382812" xlink:href="#DejaVuSans-100"/>
      <use x="491.859375" xlink:href="#DejaVuSans-97"/>
      <use x="553.138672" xlink:href="#DejaVuSans-116"/>
      <use x="592.347656" xlink:href="#DejaVuSans-105"/>
      <use x="620.130859" xlink:href="#DejaVuSans-111"/>
      <use x="681.3125" xlink:href="#DejaVuSans-110"/>
      <use x="744.691406" xlink:href="#DejaVuSans-32"/>
      <use x="776.478516" xlink:href="#DejaVuSans-65"/>
      <use x="843.136719" xlink:href="#DejaVuSans-99"/>
      <use x="898.117188" xlink:href="#DejaVuSans-99"/>
      <use x="953.097656" xlink:href="#DejaVuSans-117"/>
      <use x="1016.476562" xlink:href="#DejaVuSans-114"/>
      <use x="1057.589844" xlink:href="#DejaVuSans-97"/>
      <use x="1118.869141" xlink:href="#DejaVuSans-99"/>
      <use x="1173.849609" xlink:href="#DejaVuSans-121"/>
     </g>
    </g>
   </g>
  </g>
 </g>
 <defs>
  <clipPath id="p07b99001bf">
   <rect height="287.56" width="400.77" x="51.615" y="27.96"/>
  </clipPath>
 </defs>
</svg>
